<svg xmlns="http://www.w3.org/2000/svg" width="90" height="90" viewBox="0 0 90 90">
  <g id="Group_1143658" data-name="Group 1143658" transform="translate(-204.373 -8572)">
    <path id="Path_875096" data-name="Path 875096" d="M45,0A45,45,0,1,1,0,45,45,45,0,0,1,45,0Z" transform="translate(204.373 8572)" fill="#fcdfdb"/>
    <path id="Path_874071" data-name="Path 874071" d="M83.114,53.993a1.875,1.875,0,0,1-1.875,1.875H75.616v3.749h3.749a1.875,1.875,0,0,1,0,3.749H75.616v3.749a1.875,1.875,0,0,1-3.749,0V53.993a1.875,1.875,0,0,1,1.875-1.875h7.5A1.875,1.875,0,0,1,83.114,53.993Zm-30.93,4.686a6.561,6.561,0,0,1-6.561,6.561H43.749v1.875a1.875,1.875,0,0,1-3.749,0V53.993a1.875,1.875,0,0,1,1.875-1.875h3.749a6.561,6.561,0,0,1,6.561,6.561Zm-3.749,0a2.812,2.812,0,0,0-2.812-2.812H43.749v5.624h1.875A2.812,2.812,0,0,0,48.435,58.679Zm20.62,1.875a8.435,8.435,0,0,1-8.435,8.435H56.871A1.875,1.875,0,0,1,55,67.114V53.993a1.875,1.875,0,0,1,1.875-1.875H60.62A8.435,8.435,0,0,1,69.055,60.553Zm-3.749,0a4.686,4.686,0,0,0-4.686-4.686H58.745V65.24H60.62A4.686,4.686,0,0,0,65.306,60.553ZM40,44.62V27.749A3.749,3.749,0,0,1,43.749,24H66.243a1.875,1.875,0,0,1,1.326.548L80.691,37.67A1.874,1.874,0,0,1,81.24,39V44.62a1.875,1.875,0,1,1-3.749,0V40.871H66.243A1.875,1.875,0,0,1,64.369,39V27.749H43.749V44.62a1.875,1.875,0,1,1-3.749,0Zm28.118-7.5h6.723L68.118,30.4Z" transform="translate(189.816 8570.506)" fill="#f15642"/>
  </g>
</svg>
