<svg xmlns="http://www.w3.org/2000/svg" width="24" height="26.182" viewBox="0 0 24 26.182">
  <path id="Path_874074" data-name="Path 874074" d="M59.636,40.364H57.455a1.091,1.091,0,0,0-1.091,1.091v7.636a1.091,1.091,0,0,0,2.182,0V48h1.091a3.818,3.818,0,1,0,0-7.636Zm0,5.455H58.545V42.545h1.091a1.636,1.636,0,0,1,0,3.273Zm-6.545-4.364v7.636a1.091,1.091,0,0,1-2.182,0V41.455a1.091,1.091,0,0,1,2.182,0Zm-5.455,7.636a1.091,1.091,0,0,1-1.091,1.091H42.182a1.091,1.091,0,0,1-.955-1.636l3.431-6H42.182a1.091,1.091,0,0,1,0-2.182h4.364A1.091,1.091,0,0,1,47.5,42l-3.438,6h2.483A1.091,1.091,0,0,1,47.636,49.091ZM63.681,31.955l-7.636-7.636A1.091,1.091,0,0,0,55.273,24H42.182A2.182,2.182,0,0,0,40,26.182V36a1.091,1.091,0,0,0,2.182,0V26.182h12v6.545a1.091,1.091,0,0,0,1.091,1.091h6.545V36A1.091,1.091,0,1,0,64,36V32.727A1.091,1.091,0,0,0,63.681,31.955Zm-7.317-.319V27.724l3.912,3.912Z" transform="translate(-40 -24)" fill="#84630a"/>
</svg>
