<svg xmlns="http://www.w3.org/2000/svg" width="158" height="158" viewBox="0 0 158 158">
  <g id="Grupo_130" data-name="Grupo 130" transform="translate(-350 -859)">
    <path id="Trazado_255" data-name="Trazado 255" d="M60.877,0A60.877,60.877,0,1,1,0,60.877,60.877,60.877,0,0,1,60.877,0Z" transform="translate(367.943 876.943)" fill="#ccc"/>
    <g id="_025-light_bulb" data-name="025-light bulb" transform="translate(385.267 894.538)">
      <g id="Grupo_128" data-name="Grupo 128" transform="translate(15.238 1.836)">
        <path id="Trazado_240" data-name="Trazado 240" d="M109.023,72.419h22.03c0-11.566,16.522-11.2,16.522-34.881a27.537,27.537,0,1,0-55.075,0C92.5,61.22,109.023,60.853,109.023,72.419Z" transform="translate(-92.501 -10.001)" fill="#ffc144" fill-rule="evenodd"/>
        <path id="Trazado_241" data-name="Trazado 241" d="M186.161,350h-22.03a4.131,4.131,0,0,0,0,8.261h22.03a4.131,4.131,0,0,0,0-8.261Z" transform="translate(-147.609 -287.584)" fill="#f7c19b" fill-rule="evenodd"/>
        <path id="Trazado_242" data-name="Trazado 242" d="M182.5,395h22.03v7.343H182.5Z" transform="translate(-165.979 -324.323)" fill="#f7c19b" fill-rule="evenodd"/>
        <path id="Trazado_243" data-name="Trazado 243" d="M204.531,435H182.5v3.671a3.682,3.682,0,0,0,3.672,3.672h14.687a3.682,3.682,0,0,0,3.672-3.672Z" transform="translate(-165.979 -356.98)" fill="#f7c19b" fill-rule="evenodd"/>
        <g id="Grupo_127" data-name="Grupo 127" transform="translate(15.604 12.222)">
          <path id="Trazado_244" data-name="Trazado 244" d="M189.434,107.2a3.672,3.672,0,0,0,3.672-3.672,3.916,3.916,0,0,1,.809-2.134,32.727,32.727,0,0,1,3.921-4.419,12.121,12.121,0,0,0,2.61-3.9A11.928,11.928,0,1,0,177.5,88.508a3.672,3.672,0,1,0,7.343,0,4.59,4.59,0,1,1,8.832,1.762,4.747,4.747,0,0,1-1.032,1.518,38.153,38.153,0,0,0-4.839,5.566,10.765,10.765,0,0,0-2.043,6.178A3.672,3.672,0,0,0,189.434,107.2Z" transform="translate(-177.501 -76.575)" fill="#fff" fill-rule="evenodd"/>
          <path id="Trazado_245" data-name="Trazado 245" d="M229.844,247.091a3.672,3.672,0,1,0-7.343,0h0a3.672,3.672,0,1,0,7.343,0Z" transform="translate(-214.24 -212.789)" fill="#fff" fill-rule="evenodd"/>
        </g>
      </g>
      <g id="Grupo_129" data-name="Grupo 129" transform="translate(0)">
        <path id="Trazado_246" data-name="Trazado 246" d="M111.874,0a29.436,29.436,0,0,0-7.746,1.035,1.836,1.836,0,1,0,.966,3.542,25.718,25.718,0,0,1,32.482,24.8c0,13.168-5.251,18.311-9.884,22.849-3.017,2.955-5.885,5.766-6.511,10.2H102.567c-.627-4.43-3.494-7.241-6.511-10.2-4.633-4.538-9.884-9.681-9.884-22.849a25.71,25.71,0,0,1,6.072-16.588,1.836,1.836,0,0,0-2.8-2.372A29.386,29.386,0,0,0,82.5,29.373c0,14.711,6.091,20.678,10.986,25.472,2.787,2.729,4.9,4.8,5.415,7.9a5.965,5.965,0,0,0,.121,11.311v3.962h-.459a1.836,1.836,0,0,0,0,3.672h.459V83.53a5.514,5.514,0,0,0,5.507,5.507h14.687a5.514,5.514,0,0,0,5.507-5.507V81.695h.459a1.836,1.836,0,0,0,0-3.672h-.459V74.061a5.965,5.965,0,0,0,.121-11.311c.513-3.1,2.629-5.175,5.415-7.9,4.895-4.794,10.986-10.76,10.986-25.472A29.406,29.406,0,0,0,111.874,0Zm9.179,83.53a1.838,1.838,0,0,1-1.836,1.836H104.531A1.838,1.838,0,0,1,102.7,83.53V81.694h18.358ZM102.7,78.023V74.351h18.358v3.672Zm20.194-7.344h-22.03a2.295,2.295,0,1,1,0-4.59h22.03a2.295,2.295,0,1,1,0,4.59Z" transform="translate(-69.099)"/>
        <path id="Trazado_247" data-name="Trazado 247" d="M15.558,153.672a1.836,1.836,0,0,0,0-3.672H11.336a1.836,1.836,0,0,0,0,3.672Z" transform="translate(-9.5 -122.463)"/>
        <path id="Trazado_248" data-name="Trazado 248" d="M27.688,250.246l-7.313,4.222a1.836,1.836,0,1,0,1.836,3.18l7.313-4.222a1.836,1.836,0,0,0-1.836-3.18Z" transform="translate(-17.628 -204.104)"/>
        <path id="Trazado_249" data-name="Trazado 249" d="M415.773,254.467l-7.313-4.222a1.836,1.836,0,0,0-1.836,3.18l7.313,4.222a1.836,1.836,0,0,0,1.836-3.18Z" transform="translate(-332.97 -204.103)"/>
        <path id="Trazado_250" data-name="Trazado 250" d="M438.561,150h-4.222a1.836,1.836,0,1,0,0,3.672h4.222a1.836,1.836,0,0,0,0-3.672Z" transform="translate(-354.847 -122.463)"/>
        <path id="Trazado_251" data-name="Trazado 251" d="M407.544,34.893a1.827,1.827,0,0,0,.916-.246l7.313-4.222a1.836,1.836,0,1,0-1.836-3.18l-7.313,4.222a1.836,1.836,0,0,0,.92,3.426Z" transform="translate(-332.97 -22.042)"/>
        <path id="Trazado_252" data-name="Trazado 252" d="M29.523,31.466,22.21,27.243a1.836,1.836,0,0,0-1.836,3.18l7.313,4.222a1.836,1.836,0,1,0,1.836-3.18Z" transform="translate(-17.628 -22.041)"/>
        <path id="Trazado_253" data-name="Trazado 253" d="M187.278,94.251a32.879,32.879,0,0,1,3.691-4.138,13.885,13.885,0,0,0,3.005-4.489A13.764,13.764,0,1,0,167.5,80.343a5.507,5.507,0,0,0,11.015,0,2.754,2.754,0,1,1,5.3,1.055,2.9,2.9,0,0,1-.636.928,38.867,38.867,0,0,0-5.069,5.847,12.578,12.578,0,0,0-2.35,7.2,5.485,5.485,0,0,0,1.407,3.672,5.506,5.506,0,1,0,9.608,3.673h0a5.485,5.485,0,0,0-1.407-3.672,5.485,5.485,0,0,0,1.407-3.672A2.334,2.334,0,0,1,187.278,94.251Zm-6.109-4.044a35.715,35.715,0,0,1,4.609-5.285,6.546,6.546,0,0,0,1.428-2.108,6.428,6.428,0,1,0-12.362-2.47,1.836,1.836,0,1,1-3.672,0,10.1,10.1,0,1,1,19.415,3.866,10.235,10.235,0,0,1-2.214,3.308,33.154,33.154,0,0,0-4.152,4.7,5.637,5.637,0,0,0-1.117,3.151,1.836,1.836,0,1,1-3.672,0A8.965,8.965,0,0,1,181.169,90.206Zm1.936,12.506a1.836,1.836,0,1,1-1.836-1.837,1.838,1.838,0,0,1,1.836,1.837Z" transform="translate(-138.494 -54.352)"/>
        <path id="Trazado_254" data-name="Trazado 254" d="M153.634,27.209a1.836,1.836,0,0,0,0-3.672h0a1.836,1.836,0,1,0,0,3.672Z" transform="translate(-125.674 -19.216)"/>
      </g>
    </g>
    <path id="Sustracción_1" data-name="Sustracción 1" d="M79,158a78.631,78.631,0,0,1-44.17-13.492A79.23,79.23,0,0,1,6.208,109.75a78.9,78.9,0,0,1,7.284-74.92A79.23,79.23,0,0,1,48.249,6.208a78.9,78.9,0,0,1,74.92,7.284A79.23,79.23,0,0,1,151.792,48.25a78.9,78.9,0,0,1-7.284,74.92,79.23,79.23,0,0,1-34.758,28.622A78.506,78.506,0,0,1,79,158ZM79,10.972A67.711,67.711,0,0,0,40.965,22.59,68.226,68.226,0,0,0,16.318,52.52a67.938,67.938,0,0,0,6.272,64.515,68.227,68.227,0,0,0,29.93,24.647,67.938,67.938,0,0,0,64.514-6.272,68.227,68.227,0,0,0,24.647-29.93,67.938,67.938,0,0,0-6.272-64.515,68.226,68.226,0,0,0-29.93-24.647A67.6,67.6,0,0,0,79,10.972Z" transform="translate(350 859)" fill="#d9d9d9"/>
  </g>
</svg>
