<svg xmlns="http://www.w3.org/2000/svg" xmlns:xlink="http://www.w3.org/1999/xlink" width="316.504" height="304.725" viewBox="0 0 316.504 304.725">
  <defs>
    <clipPath id="clip-path">
      <rect id="Rectángulo_54" data-name="Rectángulo 54" width="316.504" height="304.725" fill="none"/>
    </clipPath>
    <clipPath id="clip-path-5">
      <rect id="Rectángulo_26" data-name="Rectángulo 26" width="13.632" height="9.934" fill="none"/>
    </clipPath>
    <clipPath id="clip-path-6">
      <rect id="Rectángulo_27" data-name="Rectángulo 27" width="19.931" height="12.787" fill="none"/>
    </clipPath>
    <clipPath id="clip-path-7">
      <rect id="Rectángulo_28" data-name="Rectángulo 28" width="7.255" height="17.212" fill="none"/>
    </clipPath>
    <clipPath id="clip-path-8">
      <rect id="Rectángulo_29" data-name="Rectángulo 29" width="8.131" height="16.737" fill="none"/>
    </clipPath>
    <clipPath id="clip-path-9">
      <rect id="Rectángulo_30" data-name="Rectángulo 30" width="8.67" height="13.57" fill="none"/>
    </clipPath>
    <clipPath id="clip-path-10">
      <rect id="Rectángulo_31" data-name="Rectángulo 31" width="53.53" height="43.4" fill="none"/>
    </clipPath>
    <clipPath id="clip-path-11">
      <rect id="Rectángulo_32" data-name="Rectángulo 32" width="24.722" height="20.36" fill="none"/>
    </clipPath>
    <clipPath id="clip-path-12">
      <rect id="Rectángulo_33" data-name="Rectángulo 33" width="25.556" height="29.527" fill="none"/>
    </clipPath>
    <clipPath id="clip-path-13">
      <rect id="Rectángulo_34" data-name="Rectángulo 34" width="11.481" height="33.72" fill="none"/>
    </clipPath>
    <clipPath id="clip-path-14">
      <rect id="Rectángulo_35" data-name="Rectángulo 35" width="2.76" height="45.821" fill="none"/>
    </clipPath>
    <clipPath id="clip-path-15">
      <rect id="Rectángulo_36" data-name="Rectángulo 36" width="75.628" height="19.219" fill="none"/>
    </clipPath>
    <clipPath id="clip-path-16">
      <rect id="Rectángulo_37" data-name="Rectángulo 37" width="26.25" height="22.917" fill="none"/>
    </clipPath>
    <clipPath id="clip-path-17">
      <rect id="Rectángulo_38" data-name="Rectángulo 38" width="145.018" height="93.836" fill="none"/>
    </clipPath>
    <clipPath id="clip-path-18">
      <rect id="Rectángulo_39" data-name="Rectángulo 39" width="10.049" height="14.008" fill="none"/>
    </clipPath>
    <clipPath id="clip-path-19">
      <rect id="Rectángulo_41" data-name="Rectángulo 41" width="4.68" height="14.296" fill="none"/>
    </clipPath>
    <clipPath id="clip-path-20">
      <rect id="Rectángulo_42" data-name="Rectángulo 42" width="3.562" height="14.4" fill="none"/>
    </clipPath>
    <clipPath id="clip-path-21">
      <rect id="Rectángulo_43" data-name="Rectángulo 43" width="10.35" height="26.293" fill="none"/>
    </clipPath>
    <clipPath id="clip-path-22">
      <rect id="Rectángulo_44" data-name="Rectángulo 44" width="7.225" height="15.163" fill="none"/>
    </clipPath>
    <clipPath id="clip-path-23">
      <rect id="Rectángulo_45" data-name="Rectángulo 45" width="5.987" height="12.046" fill="none"/>
    </clipPath>
    <clipPath id="clip-path-24">
      <rect id="Rectángulo_46" data-name="Rectángulo 46" width="11.66" height="8.142" fill="none"/>
    </clipPath>
    <clipPath id="clip-path-25">
      <rect id="Rectángulo_47" data-name="Rectángulo 47" width="14.022" height="7.942" fill="none"/>
    </clipPath>
  </defs>
  <g id="Grupo_131" data-name="Grupo 131" transform="translate(-793.088 -425.318)">
    <g id="Grupo_124" data-name="Grupo 124" transform="translate(793.088 425.318)">
      <g id="Grupo_123" data-name="Grupo 123" clip-path="url(#clip-path)">
        <g id="Grupo_50" data-name="Grupo 50">
          <g id="Grupo_49" data-name="Grupo 49" clip-path="url(#clip-path)">
            <path id="Trazado_137" data-name="Trazado 137" d="M.061,169.172l5.11-.4a4.355,4.355,0,0,1,4.113-4.719,4.146,4.146,0,0,1,4.212,2.322,4.592,4.592,0,0,1-.037,4.167c-.753,1.5-2.55,2.946-6.042,2.612l.911,11.52,5.052-.4-.534-6.749a9.9,9.9,0,0,0,6.323-10.2c-.591-7.471-7.428-8.677-10.3-8.45-2.194.173-9.623,1.295-8.814,10.3" transform="translate(0 -47.308)" fill="#fff"/>
            <rect id="Rectángulo_17" data-name="Rectángulo 17" width="5.143" height="4.804" transform="translate(8.503 139.736) rotate(-4.518)" fill="#fff"/>
            <path id="Trazado_138" data-name="Trazado 138" d="M352.073,232.187h2.77a2.355,2.355,0,0,1,2.418-2.368,2.242,2.242,0,0,1,2.17,1.431,2.482,2.482,0,0,1-.2,2.243c-.47.775-1.5,1.479-3.366,1.149v6.247h2.739v-3.659A5.349,5.349,0,0,0,362.448,232c0-4.05-3.632-4.991-5.188-4.991-1.189,0-5.24.287-5.188,5.174" transform="translate(-104.856 -67.61)" fill="#e0e0e0"/>
            <rect id="Rectángulo_18" data-name="Rectángulo 18" width="2.78" height="2.597" transform="translate(251.003 174.566)" fill="#e0e0e0"/>
            <path id="Trazado_139" data-name="Trazado 139" d="M1.261,355.612l3.538.5a3.037,3.037,0,0,1,3.519-2.584,2.892,2.892,0,0,1,2.512,2.222,3.2,3.2,0,0,1-.66,2.83c-.741.9-2.185,1.616-4.509.856l-1.138,7.979,3.5.5.666-4.674a6.9,6.9,0,0,0,5.858-5.977c.737-5.174-3.731-7.037-5.718-7.32-1.519-.216-6.745-.587-7.568,5.665" transform="translate(-0.376 -104.195)" fill="#f5f5f5"/>
            <rect id="Rectángulo_19" data-name="Rectángulo 19" width="3.35" height="3.587" transform="translate(3.431 268.183) rotate(-81.886)" fill="#f5f5f5"/>
            <path id="Trazado_140" data-name="Trazado 140" d="M132.784,10.768l4.65-1.008a4.044,4.044,0,0,1,3.2-4.854,3.851,3.851,0,0,1,4.165,1.612,4.264,4.264,0,0,1,.485,3.838c-.507,1.471-1.979,3.028-5.233,3.155L142.32,24l4.6-1-1.331-6.141a9.188,9.188,0,0,0,4.547-10.172c-1.474-6.8-7.914-7.058-10.524-6.492-2,.433-8.692,2.39-6.825,10.574" transform="translate(-39.45 0)" fill="#f5f5f5"/>
            <rect id="Rectángulo_20" data-name="Rectángulo 20" width="4.775" height="4.46" transform="translate(103.326 26.159) rotate(-12.234)" fill="#f5f5f5"/>
            <path id="Trazado_141" data-name="Trazado 141" d="M407.843,397.371l2.7.6a2.354,2.354,0,0,1,2.871-1.79,2.242,2.242,0,0,1,1.811,1.865,2.485,2.485,0,0,1-.677,2.149c-.626.655-1.784,1.12-3.535.4l-1.348,6.1,2.675.591.789-3.573a5.35,5.35,0,0,0,4.879-4.275c.874-3.955-2.47-5.657-3.988-5.993-1.161-.257-5.178-.85-6.182,3.933" transform="translate(-121.466 -117.125)" fill="#e0e0e0"/>
            <rect id="Rectángulo_21" data-name="Rectángulo 21" width="2.597" height="2.78" transform="matrix(0.216, -0.976, 0.976, 0.216, 287.359, 293.353)" fill="#e0e0e0"/>
            <path id="Trazado_142" data-name="Trazado 142" d="M419.5,112.829h5.1a4.336,4.336,0,0,1,4.452-4.361,4.128,4.128,0,0,1,4,2.635,4.571,4.571,0,0,1-.363,4.132c-.866,1.427-2.762,2.724-6.2,2.118v11.5h5.044v-6.739a9.852,9.852,0,0,0,7.076-9.627c0-7.461-6.69-9.194-9.555-9.194-2.19,0-9.651.529-9.555,9.531" transform="translate(-124.938 -30.765)" fill="#f5f5f5"/>
            <rect id="Rectángulo_22" data-name="Rectángulo 22" width="5.12" height="4.782" transform="translate(301.539 100.463)" fill="#f5f5f5"/>
            <path id="Trazado_143" data-name="Trazado 143" d="M238.47,22.181l5.5,1.216a4.79,4.79,0,0,1,5.843-3.642,4.559,4.559,0,0,1,3.684,3.8,5.054,5.054,0,0,1-1.377,4.372c-1.274,1.333-3.629,2.279-7.194.806l-2.743,12.41,5.443,1.2,1.607-7.27a10.885,10.885,0,0,0,9.928-8.7c1.779-8.048-5.025-11.513-8.115-12.2-2.363-.522-10.538-1.73-12.579,8" transform="translate(-71.022 -4.12)" fill="#e0e0e0"/>
            <rect id="Rectángulo_23" data-name="Rectángulo 23" width="5.283" height="5.657" transform="translate(169.445 44.731) rotate(-77.541)" fill="#e0e0e0"/>
          </g>
        </g>
        <g id="Grupo_52" data-name="Grupo 52">
          <g id="Grupo_51" data-name="Grupo 51" clip-path="url(#clip-path)">
            <path id="Trazado_144" data-name="Trazado 144" d="M304.823,433.647c0,.1-62.619.176-139.844.176-77.253,0-139.857-.079-139.857-.176s62.6-.176,139.857-.176c77.225,0,139.844.079,139.844.176" transform="translate(-7.482 -129.098)" fill="#263238"/>
          </g>
        </g>
        <path id="Trazado_145" data-name="Trazado 145" d="M188.342,38.075l-17.014,5.634,6.015,16.85Z" transform="translate(-51.025 -11.34)" fill="#e5782c"/>
        <g id="Grupo_120" data-name="Grupo 120">
          <g id="Grupo_119" data-name="Grupo 119" clip-path="url(#clip-path)">
            <path id="Trazado_146" data-name="Trazado 146" d="M193.914,112.779l-5.546-10.492c10.855-5.738,16.4-14.15,15.616-23.685-.843-10.251-9.033-19.683-20.381-23.468l3.757-11.258c16.037,5.351,27.206,18.6,28.453,33.753,1.181,14.357-6.8,27.169-21.9,35.15" transform="translate(-54.681 -13.067)" fill="#e5782c"/>
            <g id="Grupo_55" data-name="Grupo 55" transform="translate(147.255 70.93)" opacity="0.3">
              <g id="Grupo_54" data-name="Grupo 54">
                <g id="Grupo_53" data-name="Grupo 53" clip-path="url(#clip-path-5)">
                  <path id="Trazado_147" data-name="Trazado 147" d="M211.221,103.072s5.274,1.709,12.123-2.056l-.685,5.138-12.671,4.8-.276-3.859Z" transform="translate(-209.712 -101.015)"/>
                </g>
              </g>
            </g>
            <path id="Trazado_148" data-name="Trazado 148" d="M143.424,188.535c-35.412-4.84-64.029-15.354-85.054-31.248-17.811-13.465-24.937-27-27.279-31.441A65.128,65.128,0,0,1,23.47,89.487c2.082-22.368,18.366-35.862,28.8-39.475,8.812-3.05,20.565-3.074,28.3-1.745A79.283,79.283,0,0,1,105.023,56.8L97.907,69.9a64.428,64.428,0,0,0-19.855-6.936c-6.708-1.152-15.694-.662-20.9,1.14C51.643,66.012,39.79,75.063,38.319,90.869A50.276,50.276,0,0,0,44.286,118.9c1.959,3.719,7.919,15.034,23.078,26.494,18.962,14.335,45.231,23.88,78.08,28.369Z" transform="translate(-6.914 -14.125)" fill="#e5782c"/>
            <g id="Grupo_58" data-name="Grupo 58" transform="translate(44.325 129.667)" opacity="0.3">
              <g id="Grupo_57" data-name="Grupo 57">
                <g id="Grupo_56" data-name="Grupo 56" clip-path="url(#clip-path-6)">
                  <path id="Trazado_149" data-name="Trazado 149" d="M77.239,184.665,63.125,192.29l6.163,5.162,13.768-8.408Z" transform="translate(-63.125 -184.665)"/>
                </g>
              </g>
            </g>
            <g id="Grupo_61" data-name="Grupo 61" transform="translate(106.268 153.114)" opacity="0.3">
              <g id="Grupo_60" data-name="Grupo 60">
                <g id="Grupo_59" data-name="Grupo 59" clip-path="url(#clip-path-7)">
                  <path id="Trazado_150" data-name="Trazado 150" d="M151.341,218.057s.008,13.953,2.339,16.05l4.916,1.163L154.835,218.9Z" transform="translate(-151.341 -218.057)"/>
                </g>
              </g>
            </g>
            <path id="Trazado_151" data-name="Trazado 151" d="M124,75.835l18.629-5.062L137.152,52.3Z" transform="translate(-36.931 -15.576)" fill="#e5782c"/>
            <path id="Trazado_152" data-name="Trazado 152" d="M327.266,390.226l-2.09-14.275c43.093-6.309,65.658-41.145,73.359-55.829l12.775,6.7c-8.728,16.642-34.387,56.133-84.045,63.4" transform="translate(-96.845 -95.34)" fill="#fabf50"/>
            <path id="Trazado_153" data-name="Trazado 153" d="M440.242,333.883l-2.869-22.425-21.9,10.082Z" transform="translate(-123.738 -92.76)" fill="#fabf50"/>
            <g id="Grupo_64" data-name="Grupo 64" transform="translate(254.871 270.492)" opacity="0.3">
              <g id="Grupo_63" data-name="Grupo 63">
                <g id="Grupo_62" data-name="Grupo 62" clip-path="url(#clip-path-8)">
                  <path id="Trazado_154" data-name="Trazado 154" d="M366.471,385.22l-3.5,1.832,2.222,14.905,5.909-2.837Z" transform="translate(-362.974 -385.22)"/>
                </g>
              </g>
            </g>
            <path id="Trazado_155" data-name="Trazado 155" d="M104.014,332.2c-19.51-3.279-47.222-11.614-68.453-32.7-19.834-19.7-29.288-47.288-24.672-72a76.491,76.491,0,0,1,17.868-35.837,97.693,97.693,0,0,1,32.057-24c20.474-9.608,45.46-13.692,76.383-12.488l-.462,11.859c-28.982-1.13-52.165,2.591-70.878,11.373-22.8,10.7-39.391,30.347-43.3,51.275-3.9,20.9,4.284,44.425,21.369,61.4,19.018,18.89,44.244,26.424,62.056,29.417Z" transform="translate(-2.9 -46.154)" fill="#e5782c"/>
            <g id="Grupo_67" data-name="Grupo 67" transform="translate(88.195 271.968)" opacity="0.3">
              <g id="Grupo_66" data-name="Grupo 66">
                <g id="Grupo_65" data-name="Grupo 65" clip-path="url(#clip-path-9)">
                  <path id="Trazado_156" data-name="Trazado 156" d="M129.107,387.322,125.6,398.677l8.671,2.215-.324-12.445Z" transform="translate(-125.602 -387.322)"/>
                </g>
              </g>
            </g>
            <path id="Trazado_157" data-name="Trazado 157" d="M143.976,159.321a36.532,36.532,0,0,1,26.341-41.962l1.826-.5c20-4.2,34.738,10.442,38.381,30.55L223.917,224,197.5,247.33l-14.726-8.423c-1.267-5.613-3.99-17.218-4.033-17.208,0,0-19.726,2.2-25.1-16.661-2.6-9.11-6.415-28.306-9.669-45.717" transform="translate(-42.693 -34.59)" fill="#ffae7a"/>
            <path id="Trazado_158" data-name="Trazado 158" d="M193.757,260.543s12.117-2.54,22.66-13.977c0,0-2.063,15.837-21.408,19.262Z" transform="translate(-57.706 -73.433)" fill="#6f4439"/>
            <path id="Trazado_159" data-name="Trazado 159" d="M159.814,198.4a2.8,2.8,0,0,0,3.347,2.019,2.677,2.677,0,0,0,2.123-3.193,2.8,2.8,0,0,0-3.343-2.022,2.68,2.68,0,0,0-2.126,3.2" transform="translate(-47.576 -58.117)" fill="#2b3137"/>
            <path id="Trazado_160" data-name="Trazado 160" d="M153.167,186.051c.43.261,2.066-1.81,4.976-2.592,2.9-.823,5.436.093,5.655-.348.112-.2-.4-.744-1.515-1.168a7.686,7.686,0,0,0-4.646-.157,7.385,7.385,0,0,0-3.842,2.5c-.707.929-.838,1.648-.629,1.762" transform="translate(-45.59 -54.056)" fill="#263238"/>
            <path id="Trazado_161" data-name="Trazado 161" d="M195.291,189.306a2.8,2.8,0,0,0,3.347,2.018,2.677,2.677,0,0,0,2.123-3.193,2.8,2.8,0,0,0-3.344-2.021,2.68,2.68,0,0,0-2.126,3.2" transform="translate(-58.142 -55.409)" fill="#2b3137"/>
            <path id="Trazado_162" data-name="Trazado 162" d="M194.022,175.983c.432.261,2.07-1.81,4.978-2.592,2.9-.822,5.436.093,5.655-.349.111-.2-.4-.743-1.516-1.166a7.688,7.688,0,0,0-4.645-.158,7.4,7.4,0,0,0-3.842,2.5c-.7.929-.836,1.649-.63,1.762" transform="translate(-57.758 -51.058)" fill="#263238"/>
            <path id="Trazado_163" data-name="Trazado 163" d="M184.415,203.34c-.032-.169-1.924.01-4.955.431-.763.125-1.506.169-1.769-.3a3.916,3.916,0,0,1-.1-2.335q.315-2.98.66-6.251c.863-8.879,1.272-16.1.915-16.13s-1.348,7.139-2.21,16.018c-.195,2.185-.383,4.267-.559,6.259a4.459,4.459,0,0,0,.407,3.019,1.931,1.931,0,0,0,1.516.754,5.239,5.239,0,0,0,1.309-.167c2.991-.642,4.823-1.126,4.789-1.294" transform="translate(-52.512 -53.236)" fill="#2b3137"/>
            <path id="Trazado_164" data-name="Trazado 164" d="M204.5,163.9c-.384-.782-3.333-.067-6.893-.106-3.562.034-6.508-.685-6.895.1-.169.373.409,1.085,1.641,1.748a11.99,11.99,0,0,0,10.5.008c1.233-.661,1.812-1.373,1.642-1.746" transform="translate(-56.791 -48.703)" fill="#2b3137"/>
            <path id="Trazado_165" data-name="Trazado 165" d="M149.633,173.78c.777.508,2.977-.789,5.827-1.552,2.827-.847,5.393-.9,5.773-1.74.158-.4-.393-.965-1.611-1.323a9.5,9.5,0,0,0-5.028.128,9.352,9.352,0,0,0-4.319,2.524c-.836.939-.993,1.708-.642,1.963" transform="translate(-44.512 -50.299)" fill="#263238"/>
            <path id="Trazado_166" data-name="Trazado 166" d="M242.162,179.794c.284-.227,12.009-6.942,15.11,6.106s-11.8,13.9-11.912,13.533-3.2-19.639-3.2-19.639" transform="translate(-72.122 -52.973)" fill="#ffae7a"/>
            <path id="Trazado_167" data-name="Trazado 167" d="M251.828,194.925c.047-.055.265.1.691.19a2.334,2.334,0,0,0,1.708-.369c1.258-.833,1.9-3.3,1.4-5.665a7.715,7.715,0,0,0-1.409-3.1,2.7,2.7,0,0,0-2.125-1.338,1.19,1.19,0,0,0-1.194.942c-.088.406.057.647-.007.686-.029.041-.332-.152-.355-.716a1.487,1.487,0,0,1,.319-.939,1.762,1.762,0,0,1,1.178-.631,3.285,3.285,0,0,1,2.856,1.459,7.925,7.925,0,0,1,1.652,3.45c.541,2.649-.219,5.43-1.977,6.423a2.5,2.5,0,0,1-2.161.149c-.481-.226-.619-.5-.579-.536" transform="translate(-74.617 -54.786)" fill="#6f4439"/>
            <path id="Trazado_168" data-name="Trazado 168" d="M99.932,142.667a3.178,3.178,0,0,1,1.019-2.153c1.283-1.24,3.032-1.536,4.688-1.961a28.238,28.238,0,0,0,11.216-5.859,13.975,13.975,0,0,1-4.1-1.622c-2.613-1.6-4.6-4.528-4.306-7.575a1.863,1.863,0,0,1,.723-1.493c.785-.463,1.726.191,2.475.709,2.463,1.7,4.481,2.206,7.308,1.219a11.889,11.889,0,0,0,4.606-2.655c.043-.072.077-.15.12-.221.511-.863,1.013-1.69,1.51-2.493l0-.007v0c3.74-6.043,7.151-10.427,11.076-13.218,5.754-4.09,16.154-7.683,23.211-7.533s14.312,4.108,16.866,10.689c2.969-4.041,8.566-5.355,13.538-4.619l.1-.077c5.482.59,9.63,5.238,12.356,10.031.149.262.288.53.433.8a20.6,20.6,0,0,0,8.388,5.009c.557.166,1.2.381,1.394.928a1.676,1.676,0,0,1-.544,1.552,10.349,10.349,0,0,1-3.68,2.679,23.261,23.261,0,0,0,2.525,3.148c.8.829,1.756,1.822,1.5,2.946a2.19,2.19,0,0,1-2,1.505,6.42,6.42,0,0,1-2.606-.5q1.331,1.82,2.66,3.641a12.28,12.28,0,0,1-5.581.951c.081,5.074,1.414,14.187.956,17.749-3.448.891-4.379.716-5.987,1.715-2.078,1.291-.258,5.082-3.47,4.651-1.635-.22-5.291-5.341-6.158-6.744a76.585,76.585,0,0,1-10.783-30.752,24.634,24.634,0,0,0-8.672-3.563l.275.15c-5.777-.573-12.246-.949-16.705,2.767-3.46,2.884-4.79,7.509-6.946,11.463-4.085,7.493-9.592,12.29-17.8,14.635.633,5.938,2.67,15.407,3.676,20.848l-7.166-9.655.006.045c-.522-.541-.98-1.1-1.428-1.669l-.148-.169,0-.025a34.343,34.343,0,0,0-2.244-2.694l-.041.058c-2.3,3.266-7.527.368-5.982-3.314a7.772,7.772,0,0,1,1.232-2.02,5.463,5.463,0,0,1-4.745,2.524,4.284,4.284,0,0,1-3.935-3.414,3.644,3.644,0,0,1,1.43-3.349,12.3,12.3,0,0,1-7.166.131c-1.528-.444-3.149-1.39-3.1-3.189" transform="translate(-29.762 -29.129)" fill="#2b3137"/>
            <path id="Trazado_169" data-name="Trazado 169" d="M202.092,118.205a16.957,16.957,0,0,1,2.334,1.292,14.082,14.082,0,0,1,4.45,5.636,24.783,24.783,0,0,1,1.651,4.734c.429,1.756.739,3.672,1.081,5.689a51.759,51.759,0,0,0,1.357,6.294,22.667,22.667,0,0,0,1.222,3.2,7.082,7.082,0,0,0,2.115,2.88,2.962,2.962,0,0,0,2.911.26,4.4,4.4,0,0,0,2.1-1.951,10.171,10.171,0,0,0,.676-5.294l-.388.145a16.442,16.442,0,0,0,3.281,3.441,5.848,5.848,0,0,0,4.2,1.132,3.767,3.767,0,0,0,1.885-.816,3.268,3.268,0,0,0,1.021-1.638,3.363,3.363,0,0,0,0-1.789,2.44,2.44,0,0,0-.969-1.338l-.159.229a12.655,12.655,0,0,0,4.838,2.093,11.413,11.413,0,0,0,1.39.19,2.225,2.225,0,0,0,.482,0,2.367,2.367,0,0,0-.475-.081c-.312-.048-.775-.117-1.365-.258a13.069,13.069,0,0,1-4.707-2.173l-.159.228a2.518,2.518,0,0,1,.807,2.807,2.942,2.942,0,0,1-.93,1.456,3.421,3.421,0,0,1-1.714.718,5.477,5.477,0,0,1-3.908-1.1,16.208,16.208,0,0,1-3.175-3.377l-.421-.546.032.691a9.826,9.826,0,0,1-.64,5.057,3.962,3.962,0,0,1-1.875,1.745,2.5,2.5,0,0,1-2.474-.218,6.7,6.7,0,0,1-1.963-2.7,22.526,22.526,0,0,1-1.2-3.132,52.448,52.448,0,0,1-1.371-6.235c-.352-2.012-.678-3.934-1.128-5.709a24.612,24.612,0,0,0-1.728-4.783,13.877,13.877,0,0,0-4.64-5.641,7.96,7.96,0,0,0-2.436-1.145" transform="translate(-60.188 -35.204)" fill="#455a64"/>
            <path id="Trazado_170" data-name="Trazado 170" d="M124.335,147.389a.707.707,0,0,0,.185.093l.56.234a6.55,6.55,0,0,0,.933.324,10.46,10.46,0,0,0,1.308.333,17.421,17.421,0,0,0,8.523-.489,22.249,22.249,0,0,0,10.5-7.017,38.526,38.526,0,0,0,7.162-13.781c.834-2.644,1.4-5.285,2.12-7.772a26.038,26.038,0,0,1,2.873-6.834,13.4,13.4,0,0,1,4.7-4.658,9.581,9.581,0,0,1,2.821-1.029,10.551,10.551,0,0,1,2.778-.127,11.365,11.365,0,0,1,7.379,3.72,13.6,13.6,0,0,1,1.671,2.626.665.665,0,0,0-.063-.2l-.23-.563a9.862,9.862,0,0,0-1.242-1.982,11.174,11.174,0,0,0-2.832-2.385,11.486,11.486,0,0,0-4.652-1.543,10.821,10.821,0,0,0-2.873.1,9.922,9.922,0,0,0-2.941,1.046,13.725,13.725,0,0,0-4.872,4.763,26.2,26.2,0,0,0-2.947,6.936c-.734,2.506-1.3,5.141-2.127,7.761a38.548,38.548,0,0,1-7.046,13.643,22.109,22.109,0,0,1-10.274,6.981,17.667,17.667,0,0,1-8.394.624,27.873,27.873,0,0,1-3.019-.809" transform="translate(-37.03 -31.657)" fill="#455a64"/>
            <path id="Trazado_171" data-name="Trazado 171" d="M119,151.683a3.024,3.024,0,0,0,.8.312,15.108,15.108,0,0,0,2.274.544,20.24,20.24,0,0,0,3.462.284,21.335,21.335,0,0,0,8.3-1.711,20.373,20.373,0,0,0,3.067-1.63,15.25,15.25,0,0,0,1.873-1.4c.414-.366.63-.579.61-.6-.055-.067-.98.728-2.654,1.725a23.088,23.088,0,0,1-3.06,1.517,22.91,22.91,0,0,1-8.142,1.679,23.271,23.271,0,0,1-3.41-.183c-1.932-.254-3.1-.619-3.12-.536" transform="translate(-35.44 -43.922)" fill="#455a64"/>
            <path id="Trazado_172" data-name="Trazado 172" d="M199.082,223.161c.053.286-2.152.921-4.831,1.766s-4.854,1.576-4.975,1.311,1.915-1.435,4.666-2.294,5.093-1.056,5.14-.783" transform="translate(-56.37 -66.428)" fill="#2b3137"/>
            <path id="Trazado_173" data-name="Trazado 173" d="M186.958,164.318a1.789,1.789,0,0,1-.982.223,4.347,4.347,0,0,1-3.962-2.48,1.8,1.8,0,0,1-.229-.981,8.565,8.565,0,0,1,.445.871,4.75,4.75,0,0,0,3.75,2.347,8.375,8.375,0,0,1,.977.02" transform="translate(-54.136 -47.973)" fill="#6f4439"/>
            <path id="Trazado_174" data-name="Trazado 174" d="M206.334,224.6a4.478,4.478,0,0,0-.764-3.663c.027-.032.235.081.484.364a3.01,3.01,0,0,1,.578,2.772c-.115.36-.26.546-.3.527" transform="translate(-61.222 -65.8)" fill="#6f4439"/>
            <path id="Trazado_175" data-name="Trazado 175" d="M99.148,204.084s15.38-31.193,16.433-32.448,6.653-14.3,6.653-14.3l7.836-9.364s3.675.551,1.341,5.307l-3.326,6.335L140.3,147.355s3.618.418,2.209,4.26c-1.047,2.855-4.777,7.277-4.777,7.277l10.963-9.517s4.561.7,2.373,5.488c-1.423,3.111-14.2,17.236-14.2,17.236s6.376-3.938,8.39-5.245,4.094-4.151,5.581-3.882,4.083,2.571.21,6.968-14.77,11.4-16.357,12.275l-1.587.87s-1.887,4.889-4.548,7.251c0,0-4.373,13.858-6.578,17.673a19.01,19.01,0,0,1-6.326,6.35l-6.727,18.172L89.709,219.259Z" transform="translate(-26.718 -43.886)" fill="#ffae7a"/>
            <path id="Trazado_176" data-name="Trazado 176" d="M99.117,204.021s-.2.346-.605,1.011L96.7,207.976l-6.962,11.26-.021-.1,19.235,13.244-.163.051,6.711-18.178a.129.129,0,0,1,.053-.064l0,0a19.43,19.43,0,0,0,4.849-4.247,14.878,14.878,0,0,0,1.821-2.814c.493-1.022.948-2.083,1.375-3.168,1.708-4.339,3.25-8.958,4.783-13.728a.15.15,0,0,1,.042-.064,14.488,14.488,0,0,0,2.554-3.259,28.931,28.931,0,0,0,1.952-3.937.153.153,0,0,1,.067-.077c.805-.449,1.63-.872,2.414-1.364s1.579-.994,2.365-1.512q2.36-1.553,4.708-3.231c1.562-1.121,3.118-2.283,4.636-3.52a28.978,28.978,0,0,0,4.254-4.078,7.331,7.331,0,0,0,1.38-2.573,2.842,2.842,0,0,0-.541-2.7,2.775,2.775,0,0,0-1.188-.785,1.587,1.587,0,0,0-1.338.214,15.386,15.386,0,0,0-2.35,1.918,14.85,14.85,0,0,1-2.451,1.925l-2.642,1.652-5.332,3.334a.157.157,0,0,1-.217-.05.159.159,0,0,1,.018-.19l2.949-3.305c2.823-3.208,5.6-6.4,8.219-9.658.651-.817,1.288-1.639,1.9-2.477a9.255,9.255,0,0,0,1.46-2.668,3.432,3.432,0,0,0-.178-2.852,3.7,3.7,0,0,0-2.424-1.5l.125-.036L137.8,158.945a.153.153,0,0,1-.215-.015.156.156,0,0,1,0-.2,38.878,38.878,0,0,0,4.161-5.943,8.476,8.476,0,0,0,.694-1.621,3.586,3.586,0,0,0,.17-1.689,2.205,2.205,0,0,0-.824-1.4,3.429,3.429,0,0,0-1.534-.642l.121-.042-12.221,12.255a.138.138,0,0,1-.22-.162q1.661-3.161,3.248-6.178a9.744,9.744,0,0,0,.628-1.547,6.879,6.879,0,0,0,.18-.8,3.854,3.854,0,0,0,.011-.8,2.23,2.23,0,0,0-.624-1.4,2.624,2.624,0,0,0-1.357-.718l.119-.045-7.843,9.358.018-.03c-1.6,3.684-3.139,7.185-4.676,10.466-.389.819-.771,1.626-1.176,2.41-.2.393-.405.779-.638,1.155a12.444,12.444,0,0,0-.678,1.088c-.829,1.487-1.581,2.962-2.318,4.379-2.922,5.687-5.39,10.62-7.414,14.654l-4.655,9.3c-.532,1.06-.939,1.871-1.216,2.422s-.425.821-.425.821.128-.286.393-.836.666-1.371,1.186-2.437c1.055-2.142,2.605-5.287,4.6-9.333s4.457-8.984,7.364-14.681c.734-1.421,1.48-2.9,2.31-4.392.2-.367.459-.769.683-1.1.222-.361.428-.747.625-1.138.4-.78.781-1.587,1.167-2.4,1.527-3.281,3.063-6.784,4.651-10.469a.139.139,0,0,1,.018-.029l7.827-9.371,0,0a.122.122,0,0,1,.115-.041,2.883,2.883,0,0,1,1.5.791,2.5,2.5,0,0,1,.7,1.56,4.143,4.143,0,0,1-.011.865,6.98,6.98,0,0,1-.187.84,10.04,10.04,0,0,1-.644,1.594l-3.243,6.185-.221-.162,12.209-12.268,0,0a.137.137,0,0,1,.117-.038,3.705,3.705,0,0,1,1.682.7,2.5,2.5,0,0,1,.933,1.581,3.867,3.867,0,0,1-.176,1.825,8.809,8.809,0,0,1-.714,1.675,39.188,39.188,0,0,1-4.194,6l-.216-.213,10.961-9.519,0,0a.145.145,0,0,1,.121-.033,4.644,4.644,0,0,1,1.48.554,3.255,3.255,0,0,1,1.161,1.092,3.74,3.74,0,0,1,.213,3.11,7.315,7.315,0,0,1-.638,1.447c-.263.461-.569.881-.866,1.311-.612.845-1.253,1.671-1.9,2.49-2.621,3.267-5.4,6.461-8.229,9.671l-2.951,3.308-.2-.24,5.328-3.331a28.872,28.872,0,0,0,5.051-3.543,15.6,15.6,0,0,1,2.409-1.959,2.67,2.67,0,0,1,.755-.294,1.581,1.581,0,0,1,.83.056,3.081,3.081,0,0,1,1.326.875,3.154,3.154,0,0,1,.609,2.985,7.659,7.659,0,0,1-1.437,2.688,29.233,29.233,0,0,1-4.3,4.125c-1.526,1.242-3.087,2.407-4.653,3.53s-3.143,2.2-4.721,3.234q-1.182.778-2.373,1.515c-.8.5-1.624.921-2.427,1.369l.067-.077a29.2,29.2,0,0,1-1.978,3.981,14.758,14.758,0,0,1-2.613,3.323l.041-.064c-1.539,4.775-3.085,9.392-4.8,13.742-.429,1.087-.888,2.151-1.388,3.186a15.075,15.075,0,0,1-1.857,2.86,19.658,19.658,0,0,1-4.929,4.3l.056-.066c-2.444,6.584-4.722,12.717-6.745,18.165a.108.108,0,0,1-.138.065.115.115,0,0,1-.025-.013l-19.2-13.3a.075.075,0,0,1-.021-.1l7.02-11.219,1.842-2.924c.417-.659.64-.992.64-.992" transform="translate(-26.686 -43.823)" fill="#6f4439"/>
            <path id="Trazado_177" data-name="Trazado 177" d="M151.882,160.94a7.276,7.276,0,0,1-.672.852c-.45.534-1.112,1.3-1.946,2.225-1.673,1.852-4.036,4.37-6.817,6.978a76.2,76.2,0,0,1-6.152,5.228l-.02.015-.022.006a12.7,12.7,0,0,0-3.722,1.751c-.816.563-1.225.951-1.248.926a1.521,1.521,0,0,1,.276-.3,10.215,10.215,0,0,1,.887-.745A11.99,11.99,0,0,1,136.182,176l-.042.021c1.77-1.378,3.892-3.191,6.091-5.255,2.773-2.6,5.156-5.088,6.869-6.9l2.018-2.156a7.05,7.05,0,0,1,.764-.77" transform="translate(-39.099 -47.932)" fill="#6f4439"/>
            <path id="Trazado_178" data-name="Trazado 178" d="M141.579,163.76a10.075,10.075,0,0,1-1.152,1.448c-.746.863-1.81,2.029-3.012,3.286-1.175,1.215-2.236,2.313-3.1,3.2a11.547,11.547,0,0,1-1.327,1.286,10.1,10.1,0,0,1,1.163-1.438c.753-.857,1.828-2.012,3.03-3.269l3.076-3.219a11.343,11.343,0,0,1,1.317-1.3" transform="translate(-39.608 -48.771)" fill="#6f4439"/>
            <path id="Trazado_179" data-name="Trazado 179" d="M151.7,182.338a2.061,2.061,0,0,1-.449.367c-.3.22-.746.523-1.305.882a45.846,45.846,0,0,1-9.332,4.54c-.628.219-1.141.383-1.5.483a2.086,2.086,0,0,1-.565.127,18.657,18.657,0,0,1,1.986-.819c1.232-.489,2.918-1.2,4.735-2.081s3.415-1.774,4.559-2.441a19.041,19.041,0,0,1,1.871-1.058" transform="translate(-41.264 -54.304)" fill="#6f4439"/>
            <path id="Trazado_180" data-name="Trazado 180" d="M80.768,231.606c-.672.9-20.6,30.9-20.6,30.9s-18.821,29.321-21.57,37.57C34.584,312.121,33.687,333,46.674,338.6s17.462,5.779,33.136-.267a108.59,108.59,0,0,0,27.1-15.49l-3.078-54.569L91.192,274.76l10.877-29.2Z" transform="translate(-10.71 -68.978)" fill="#e0e0e0"/>
            <path id="Trazado_181" data-name="Trazado 181" d="M328.619,297.779s10.12,8.1,13.783,35.687c2.313,17.417,8.875,59.626,8.875,59.626l-38.252.085s-7.687-54.457-6.9-55.282,22.5-40.116,22.5-40.116" transform="translate(-91.154 -88.686)" fill="#e0e0e0"/>
            <path id="Trazado_182" data-name="Trazado 182" d="M128.01,277.729l43.065-5.531S179.2,285.21,195.1,282.669c22.326-3.567,21.75-19.314,21.75-19.314s37.16,12.759,44.353,15.977a32.054,32.054,0,0,1,11.148,8.2s-13.2,51.236-13.614,51.88-2.911,44-1.98,43.518c.4-.209-121.2.013-123.22,0L129.9,331.18l-12.746-44.123Z" transform="translate(-34.891 -78.434)" fill="#e0e0e0"/>
            <path id="Trazado_183" data-name="Trazado 183" d="M115.433,272.414a3.478,3.478,0,0,1-.172.506q-.205.529-.551,1.43c-.474,1.242-1.166,3.037-1.98,5.27-1.643,4.462-3.751,10.682-6.019,17.574-1.12,3.456-2.32,6.7-2.992,9.766-.367,1.527-.7,2.986-1.088,4.335a34.308,34.308,0,0,1-1.254,3.691c-.435,1.106-.8,2.114-1.1,3.01a19.357,19.357,0,0,1-.925,2.246c-.288.6-.522,1.062-.684,1.371a3.4,3.4,0,0,1-.262.466,3.471,3.471,0,0,1,.2-.494q.234-.516.63-1.4a20.842,20.842,0,0,0,.869-2.251c.286-.9.635-1.922,1.059-3.033a54.182,54.182,0,0,0,2.267-8.015c.659-3.087,1.858-6.351,2.974-9.8,2.269-6.893,4.412-13.107,6.109-17.552.842-2.226,1.568-4.009,2.076-5.239l.605-1.407a3.453,3.453,0,0,1,.231-.482" transform="translate(-29.308 -81.131)" fill="#263238"/>
            <path id="Trazado_184" data-name="Trazado 184" d="M130.728,365.518a1.98,1.98,0,0,1-.048-.355c-.024-.258-.055-.6-.094-1.035-.074-.931-.178-2.246-.308-3.895-.244-3.363-.587-8.078-.988-13.606l0,.021c-.759-3.435-1.647-7.2-2.7-11.109a115.332,115.332,0,0,0-7.138-20.206,44.4,44.4,0,0,0-3.233-5.63c-.441-.627-.819-1.088-1.056-1.417l-.272-.371a.585.585,0,0,1-.085-.134s.041.035.11.113l.3.352c.253.316.649.767,1.107,1.385a40.971,40.971,0,0,1,3.332,5.6,109.8,109.8,0,0,1,7.243,20.223c1.053,3.917,1.935,7.687,2.68,11.129l0,.011v.011c.355,5.531.658,10.249.874,13.614.1,1.651.171,2.968.225,3.9.02.435.037.779.048,1.038a2.016,2.016,0,0,1,0,.359" transform="translate(-34.193 -91.664)" fill="#263238"/>
            <path id="Trazado_185" data-name="Trazado 185" d="M315.955,400.877c-.006,0-.028.132-.032,0,0-.149-.006-.343-.01-.587,0-.536,0-1.291-.007-2.255.008-1.979.018-4.807.032-8.295.057-7.022.135-16.694.223-27.385v-.02c.007-.053.014-.109.022-.166,1.435-10.637,2.734-20.265,3.677-27.257.483-3.471.876-6.286,1.15-8.256.14-.958.25-1.709.328-2.242.039-.242.07-.435.093-.582a.949.949,0,0,1,.043-.2,1.036,1.036,0,0,1-.011.2c-.016.148-.037.342-.062.586-.064.535-.154,1.289-.27,2.25l-1.05,8.268c-.92,7-2.186,16.628-3.585,27.269l-.022.167v-.019c-.124,10.691-.235,20.362-.316,27.385-.055,3.487-.1,6.315-.132,8.294-.022.963-.039,1.718-.052,2.254-.008.244-.015.438-.021.586-.006.132.006,0,0,0" transform="translate(-94.084 -96.386)" fill="#263238"/>
            <path id="Trazado_186" data-name="Trazado 186" d="M215.854,313.4l-9.923,84.206,29.036.138L222.438,313.4Z" transform="translate(-61.331 -93.338)" fill="#e5782c"/>
            <g id="Grupo_70" data-name="Grupo 70" transform="translate(26.448 224.212)" opacity="0.3">
              <g id="Grupo_69" data-name="Grupo 69">
                <g id="Grupo_68" data-name="Grupo 68" clip-path="url(#clip-path-10)">
                  <path id="Trazado_187" data-name="Trazado 187" d="M37.666,331.562s17.62,30.485,46.853,31.15l6.676-3.955L41.512,319.311a95.01,95.01,0,0,0-3.846,12.251" transform="translate(-37.666 -319.311)"/>
                </g>
              </g>
            </g>
            <path id="Trazado_188" data-name="Trazado 188" d="M187.844,269.822l3.8-6.788s21.9,16.654,21.6,17c0,0,23.005-24.969,23.371-25.342l5.1,7.558s-20.33,26.181-20.6,26.412c-.332.282-12.8-2.264-12.8-2.264l-10.6-5Z" transform="translate(-55.945 -75.854)" fill="#e0e0e0"/>
            <path id="Trazado_189" data-name="Trazado 189" d="M215.333,302.431l3.669,7.23h6.584l2.59-8.353-4.864-5.723h-2.878Z" transform="translate(-64.131 -88.032)" fill="#e5782c"/>
            <path id="Trazado_190" data-name="Trazado 190" d="M213.705,288.683a.885.885,0,0,1-.119.205c-.106.153-.234.338-.389.563l-1.5,2.088-5.309,7.228-.113.155-.132-.142-4.939-5.361c-3.676-4.029-6.964-7.714-9.287-10.431-1.164-1.355-2.083-2.475-2.7-3.261-.314-.388-.536-.709-.693-.921a1.829,1.829,0,0,1-.22-.336,1.792,1.792,0,0,1,.275.294c.174.2.411.5.742.878.649.759,1.593,1.852,2.781,3.186,2.367,2.674,5.681,6.332,9.357,10.36l4.919,5.376-.245.013c2.185-2.889,4.054-5.362,5.407-7.153.654-.844,1.18-1.527,1.572-2.034l.428-.532c.1-.119.156-.179.163-.173" transform="translate(-56.082 -82.935)" fill="#263238"/>
            <path id="Trazado_191" data-name="Trazado 191" d="M252.945,267.69c.248.1-1.186,2.308-3.672,5.653-2.485,3.361-6.018,7.925-9.974,12.924-2.474,3.125-4.819,6.051-6.843,8.549l-.116.143-.117-.14-5.645-6.736-1.569-1.911-.405-.513a.818.818,0,0,1-.127-.186c.006,0,.062.048.164.155l.44.482,1.633,1.857,5.739,6.656-.232,0,6.809-8.572c3.955-5,7.516-9.537,10.049-12.857s4.026-5.446,3.866-5.507" transform="translate(-66.855 -79.725)" fill="#263238"/>
            <path id="Trazado_192" data-name="Trazado 192" d="M219.841,309.782a10.385,10.385,0,0,1,.672-1.877c.466-1.139,1.159-2.693,2.007-4.369s1.693-3.155,2.335-4.2a10.483,10.483,0,0,1,1.115-1.652,12.688,12.688,0,0,1-.905,1.774c-.586,1.079-1.392,2.569-2.238,4.238s-1.569,3.2-2.092,4.311a12.759,12.759,0,0,1-.894,1.779" transform="translate(-65.473 -88.656)" fill="#263238"/>
            <path id="Trazado_193" data-name="Trazado 193" d="M226.809,315.394a34.094,34.094,0,0,1-6.841,0,34.215,34.215,0,0,1,6.841,0" transform="translate(-65.512 -93.881)" fill="#263238"/>
            <g id="Grupo_73" data-name="Grupo 73" transform="translate(134.434 198.241)" opacity="0.3">
              <g id="Grupo_72" data-name="Grupo 72">
                <g id="Grupo_71" data-name="Grupo 71" clip-path="url(#clip-path-11)">
                  <path id="Trazado_194" data-name="Trazado 194" d="M191.454,282.324l16.743,20.36,7.979-11.185-1.533-1.668-7.442,9.988Z" transform="translate(-191.454 -282.324)"/>
                </g>
              </g>
            </g>
            <g id="Grupo_76" data-name="Grupo 76" transform="translate(159.157 190.28)" opacity="0.3">
              <g id="Grupo_75" data-name="Grupo 75">
                <g id="Grupo_74" data-name="Grupo 74" clip-path="url(#clip-path-12)">
                  <path id="Trazado_195" data-name="Trazado 195" d="M226.662,288.123c.858,1.146,4.87,12.249,6.389,12.391s19.167-29.526,19.167-29.526L232.989,295.7Z" transform="translate(-226.662 -270.987)"/>
                </g>
              </g>
            </g>
            <g id="Grupo_79" data-name="Grupo 79" transform="translate(67.561 211.119)" opacity="0.3">
              <g id="Grupo_78" data-name="Grupo 78">
                <g id="Grupo_77" data-name="Grupo 77" clip-path="url(#clip-path-13)">
                  <path id="Trazado_196" data-name="Trazado 196" d="M97.96,330l-1.743,4.378s6.778.674,9.1-12.495a140.986,140.986,0,0,0,2.379-21.22Z" transform="translate(-96.217 -300.664)"/>
                </g>
              </g>
            </g>
            <g id="Grupo_82" data-name="Grupo 82" transform="translate(221.847 258.681)" opacity="0.3">
              <g id="Grupo_81" data-name="Grupo 81">
                <g id="Grupo_80" data-name="Grupo 80" clip-path="url(#clip-path-14)">
                  <path id="Trazado_197" data-name="Trazado 197" d="M318.7,414.22,317.448,368.4l-.962,7.271-.543,38.5Z" transform="translate(-315.943 -368.399)"/>
                </g>
              </g>
            </g>
            <g id="Grupo_85" data-name="Grupo 85" transform="translate(119.199 188.334)" opacity="0.3">
              <g id="Grupo_84" data-name="Grupo 84">
                <g id="Grupo_83" data-name="Grupo 83" clip-path="url(#clip-path-15)">
                  <path id="Trazado_198" data-name="Trazado 198" d="M169.757,277.434s11.446,10.059,31.13,10,31.811-5.742,44.5-16.718l-7.19-2.5s-11.571,7.881-29.761,8.227-29.348-.618-29.348-.618Z" transform="translate(-169.757 -268.215)"/>
                </g>
              </g>
            </g>
            <g id="Grupo_88" data-name="Grupo 88" transform="translate(145.075 281.632)" opacity="0.3">
              <g id="Grupo_87" data-name="Grupo 87">
                <g id="Grupo_86" data-name="Grupo 86" clip-path="url(#clip-path-16)">
                  <path id="Trazado_199" data-name="Trazado 199" d="M206.607,424s5.016-7.928,13.181-12.08c8.536-4.34,13.07-4.228,13.07-4.228l-.982-6.61-12.089.324-10.77,8.425-1.475,5.476Z" transform="translate(-206.608 -401.084)"/>
                </g>
              </g>
            </g>
            <g id="Grupo_91" data-name="Grupo 91" transform="translate(96.89 209.023)" opacity="0.3">
              <g id="Grupo_90" data-name="Grupo 90">
                <g id="Grupo_89" data-name="Grupo 89" clip-path="url(#clip-path-17)">
                  <path id="Trazado_200" data-name="Trazado 200" d="M139.772,391.515a81.557,81.557,0,0,1,13.686-14.552c9.136-7.8,58.241-36.735,58.241-36.735L283,302.757l-4.094-5.077L165.523,352.719l-27.537,24.059Z" transform="translate(-137.986 -297.679)"/>
                </g>
              </g>
            </g>
            <path id="Trazado_201" data-name="Trazado 201" d="M133.847,378.166H121.959c.835-16.719,9.224-28.8,28.153-41.9,17.395-12.037,44.359-25.48,81.679-44.087,13.67-6.815,29.163-14.539,46.134-23.164a76.406,76.406,0,0,0,25.6-20.927l9.366,7.289A88.346,88.346,0,0,1,283.3,279.6c-17.012,8.645-32.527,16.38-46.216,23.2-72.165,35.979-102,50.3-103.239,75.364" transform="translate(-36.322 -73.887)" fill="#e5782c"/>
            <path id="Trazado_202" data-name="Trazado 202" d="M102.863,341.266c-30.154,0-58.112-20.327-67.053-39.684-2.6-5.623-6.924-16.543-6.727-26.494.157-7.913,3.182-19.253,11.187-25.176a31.956,31.956,0,0,1,14.622-5.505c6.213-.778,11.887.211,15.982,2.791L63.5,258.914c-3-1.887-11.122-.733-14.991,2.129-3.063,2.266-5.462,8.422-5.579,14.319-.1,5.244,1.884,12.685,5.454,20.414,3.522,7.626,11.448,15.742,21.2,21.708,10.991,6.725,23.358,10.258,34.81,9.913l.4,13.841c-.643.018-1.289.028-1.93.028" transform="translate(-8.66 -72.713)" fill="#fabf50"/>
            <g id="Grupo_94" data-name="Grupo 94" transform="translate(51.994 172.027)" opacity="0.3">
              <g id="Grupo_93" data-name="Grupo 93">
                <g id="Grupo_92" data-name="Grupo 92" clip-path="url(#clip-path-18)">
                  <path id="Trazado_203" data-name="Trazado 203" d="M74.048,258.321l4.032-13.329s4.571,1.2,6.017,2.493L76.794,259" transform="translate(-74.048 -244.991)"/>
                </g>
              </g>
            </g>
            <g id="Grupo_100" data-name="Grupo 100" transform="translate(229.093 130.09)" opacity="0.3">
              <g id="Grupo_99" data-name="Grupo 99">
                <g id="Grupo_98" data-name="Grupo 98" clip-path="url(#clip-path-19)">
                  <path id="Trazado_206" data-name="Trazado 206" d="M329.925,185.266c1.746,5.218.716,14,.716,14l-3.118.3a45.971,45.971,0,0,0-1.26-13.812Z" transform="translate(-326.262 -185.267)"/>
                </g>
              </g>
            </g>
            <g id="Grupo_103" data-name="Grupo 103" transform="translate(245.961 129.556)" opacity="0.3">
              <g id="Grupo_102" data-name="Grupo 102">
                <g id="Grupo_101" data-name="Grupo 101" clip-path="url(#clip-path-20)">
                  <path id="Trazado_207" data-name="Trazado 207" d="M353.376,184.882a51.445,51.445,0,0,1,0,14.025l-3.092-.562V184.506Z" transform="translate(-350.284 -184.506)"/>
                </g>
              </g>
            </g>
            <g id="Grupo_106" data-name="Grupo 106" transform="translate(280.293 155.137)" opacity="0.3">
              <g id="Grupo_105" data-name="Grupo 105">
                <g id="Grupo_104" data-name="Grupo 104" clip-path="url(#clip-path-21)">
                  <path id="Trazado_208" data-name="Trazado 208" d="M399.178,242.892l.19,4.338s8.682-8.045,10.16-20.015a35.212,35.212,0,0,0-2.778-6.279Z" transform="translate(-399.178 -220.937)"/>
                </g>
              </g>
            </g>
            <g id="Grupo_109" data-name="Grupo 109" transform="translate(174.328 148.876)" opacity="0.3">
              <g id="Grupo_108" data-name="Grupo 108">
                <g id="Grupo_107" data-name="Grupo 107" clip-path="url(#clip-path-22)">
                  <path id="Trazado_209" data-name="Trazado 209" d="M253.324,212.021c0,.23,2.171,13.781,2.171,13.781a32.433,32.433,0,0,1-5.057,1.382l-2.168-13.82a17.617,17.617,0,0,0,5.054-1.343" transform="translate(-248.269 -212.021)"/>
                </g>
              </g>
            </g>
            <path id="Trazado_210" data-name="Trazado 210" d="M189.19,249.459a55.751,55.751,0,0,1-20.068-3.535c-2.508-.977-6.015-2.521-9.728-4.156-3.139-1.381-6.385-2.811-9.479-4.1-4.371-1.826-10.1-1.585-11.306.721L128.1,232.844c4.643-8.9,17.225-9.958,26.387-6.131,3.2,1.336,6.5,2.788,9.687,4.193,3.592,1.581,6.985,3.075,9.254,3.959,7.758,3.023,18.024,3.553,27.461,1.421,12.083-2.73,27.269-12.24,35.326-22.123,8.552-10.491,11.368-22.7,7.725-33.487-3.442-10.193-20.591-17-29.951-16.054l-1.2-11.807c13.52-1.375,36.743,7.318,42.4,24.064,4.976,14.739,1.415,31.062-9.771,44.783-9.688,11.884-27.313,22.9-41.909,26.2a65.187,65.187,0,0,1-14.317,1.6" transform="translate(-38.152 -45.47)" fill="#e5782c"/>
            <path id="Trazado_211" data-name="Trazado 211" d="M189.616,418.288c-.011-8.081,4.851-16.814,13.008-23.363,20.112-16.147,49.521-12.674,65.261-9.164L265.3,397.345c-31.827-7.092-48.277,1.237-55.249,6.835-6.333,5.084-8.574,10.769-8.569,14.091Z" transform="translate(-56.472 -114.01)" fill="#fabf50"/>
            <path id="Trazado_212" data-name="Trazado 212" d="M288.623,399.348l17.5-6.516-12.37-14.055Z" transform="translate(-85.959 -112.809)" fill="#fabf50"/>
            <g id="Grupo_112" data-name="Grupo 112" transform="translate(174.814 107.071)" opacity="0.3">
              <g id="Grupo_111" data-name="Grupo 111">
                <g id="Grupo_110" data-name="Grupo 110" clip-path="url(#clip-path-23)">
                  <path id="Trazado_213" data-name="Trazado 213" d="M254.948,152.723l-1,11.806h-3.863l-1.122-11.866a21.145,21.145,0,0,1,5.987.06" transform="translate(-248.961 -152.484)"/>
                </g>
              </g>
            </g>
            <g id="Grupo_115" data-name="Grupo 115" transform="translate(89.95 184.773)" opacity="0.3">
              <g id="Grupo_114" data-name="Grupo 114">
                <g id="Grupo_113" data-name="Grupo 113" clip-path="url(#clip-path-24)">
                  <path id="Trazado_214" data-name="Trazado 214" d="M129.855,263.144s10.041,7,9.906,7.042a2.383,2.383,0,0,0-1.152,1.1L128.1,265.744a18.187,18.187,0,0,1,1.753-2.6" transform="translate(-128.102 -263.144)"/>
                </g>
              </g>
            </g>
            <path id="Trazado_215" data-name="Trazado 215" d="M263.822,81.888l-14.147,19.643,22.633,7.218Z" transform="translate(-74.359 -24.388)" fill="#e5782c"/>
            <path id="Trazado_216" data-name="Trazado 216" d="M336.679,224.539l-4.748-10.877-.073.032c.083-.039,8.338-4.033,16.55-18.2,8.279-14.279,8.206-35.989,8.19-37.436-1.38-26.845-13.275-45.474-35.356-55.376l-.373-.166a60.749,60.749,0,0,0-47.635-.568l-5.179,2.137-4.526-10.971,5.179-2.136a72.671,72.671,0,0,1,56.977.692l.4.18c26.146,11.724,40.794,34.447,42.369,65.717l.006.175c.022,1.057.423,26.1-9.788,43.706-10.177,17.552-20.817,22.575-22,23.09" transform="translate(-78.485 -25.465)" fill="#e5782c"/>
            <path id="Trazado_217" data-name="Trazado 217" d="M317.855,246.7l-12.782-5.023a106.852,106.852,0,0,1,5.474-12.242,112.6,112.6,0,0,0,7.5-17.365c7.818-24.571,6.764-38.112,1.871-55.925l13.352-3.667c5.489,19.985,6.791,36.071-2.029,63.791a125.7,125.7,0,0,1-8.34,19.411,102.487,102.487,0,0,0-5.051,11.021" transform="translate(-90.858 -45.411)" fill="#fabf50"/>
            <path id="Trazado_218" data-name="Trazado 218" d="M341.684,146.161l-17.518-16.828-9.489,22.435Z" transform="translate(-93.719 -38.518)" fill="#fabf50"/>
            <g id="Grupo_118" data-name="Grupo 118" transform="translate(214.215 193.345)" opacity="0.3">
              <g id="Grupo_117" data-name="Grupo 117">
                <g id="Grupo_116" data-name="Grupo 116" clip-path="url(#clip-path-25)">
                  <path id="Trazado_219" data-name="Trazado 219" d="M305.073,278.261l1.18-2.91,12.843,4.583-1.241,3.359Z" transform="translate(-305.073 -275.351)"/>
                </g>
              </g>
            </g>
          </g>
        </g>
        <g id="Grupo_122" data-name="Grupo 122">
          <g id="Grupo_121" data-name="Grupo 121" clip-path="url(#clip-path)">
            <path id="Trazado_220" data-name="Trazado 220" d="M302.058,48.275a34.826,34.826,0,1,0,34.826-34.826,34.826,34.826,0,0,0-34.826,34.826" transform="translate(-89.96 -4.005)" fill="#fff2e7"/>
            <path id="Trazado_221" data-name="Trazado 221" d="M302.053,48.166a3.5,3.5,0,0,0,.064-.564c.029-.4.067-.951.117-1.652q.036-.549.078-1.215c.049-.446.146-.928.226-1.453a25.341,25.341,0,0,1,.735-3.587,33.242,33.242,0,0,1,3.868-9.215,34.542,34.542,0,0,1,41.492-14.725,31.678,31.678,0,0,1,8.728,4.7,38.919,38.919,0,0,1,3.913,3.327,38.953,38.953,0,0,1,3.378,4,33.414,33.414,0,0,1,4.929,9.5,36.868,36.868,0,0,1,1.779,10.88,36.874,36.874,0,0,1-1.777,10.883,33.412,33.412,0,0,1-4.929,9.5,38.981,38.981,0,0,1-3.38,4,38.674,38.674,0,0,1-3.913,3.328,31.691,31.691,0,0,1-8.729,4.7A34.629,34.629,0,0,1,307.141,65.85a33.237,33.237,0,0,1-3.868-9.214,25.474,25.474,0,0,1-.734-3.587c-.08-.525-.177-1.007-.226-1.453q-.042-.667-.078-1.215c-.05-.7-.089-1.248-.117-1.652a3.5,3.5,0,0,0-.064-.563,3.406,3.406,0,0,0-.007.565c.013.406.029.956.05,1.659q.02.553.045,1.224c.038.449.125.935.195,1.464a24.722,24.722,0,0,0,.677,3.624,32.985,32.985,0,0,0,3.8,9.346A35.046,35.046,0,0,0,330.4,82.655a35.171,35.171,0,0,0,18.453-1.482,32.275,32.275,0,0,0,8.9-4.768,39.615,39.615,0,0,0,3.993-3.385,39.652,39.652,0,0,0,3.45-4.072,34.022,34.022,0,0,0,5.035-9.688,37.489,37.489,0,0,0,1.816-11.1,37.458,37.458,0,0,0-1.818-11.1,34.012,34.012,0,0,0-5.035-9.684,39.669,39.669,0,0,0-3.451-4.071,39.425,39.425,0,0,0-3.993-3.384,32.29,32.29,0,0,0-8.9-4.767A35.171,35.171,0,0,0,330.4,13.677a35.048,35.048,0,0,0-23.589,16.606,32.993,32.993,0,0,0-3.8,9.347,24.722,24.722,0,0,0-.677,3.624c-.07.529-.156,1.016-.195,1.465q-.024.671-.045,1.224c-.021.7-.037,1.253-.05,1.659a3.406,3.406,0,0,0,.007.565" transform="translate(-89.956 -3.897)" fill="#b4b4b4"/>
            <path id="Trazado_222" data-name="Trazado 222" d="M339.186,47.115h4.665a3.964,3.964,0,0,1,4.071-3.987,3.776,3.776,0,0,1,3.656,2.409,4.181,4.181,0,0,1-.333,3.778c-.791,1.3-2.525,2.491-5.669,1.937V61.771h4.613V55.609a9.009,9.009,0,0,0,6.47-8.8c0-6.822-6.117-8.406-8.736-8.406-2,0-8.824.485-8.736,8.715" transform="translate(-101.018 -11.436)" fill="#efccb3"/>
            <rect id="Rectángulo_49" data-name="Rectángulo 49" width="4.681" height="4.372" transform="translate(244.546 52.501)" fill="#efccb3"/>
            <path id="Trazado_223" data-name="Trazado 223" d="M304.5,113.909a5.266,5.266,0,1,0,5.266-5.266,5.265,5.265,0,0,0-5.266,5.266" transform="translate(-90.687 -32.357)" fill="#fff"/>
            <path id="Trazado_224" data-name="Trazado 224" d="M304.473,113.774c.067,0,.072-.468.305-1.251a5.258,5.258,0,0,1,1.934-2.726,4.947,4.947,0,1,1,0,7.952,5.26,5.26,0,0,1-1.934-2.726c-.233-.782-.238-1.252-.305-1.25a2.583,2.583,0,0,0,.024,1.321,5.241,5.241,0,0,0,1.9,3.074,5.507,5.507,0,0,0,5.257.874,5.587,5.587,0,0,0,0-10.538,5.508,5.508,0,0,0-5.256.874,5.243,5.243,0,0,0-1.9,3.074,2.588,2.588,0,0,0-.024,1.321" transform="translate(-90.661 -32.221)" fill="#263238"/>
            <path id="Trazado_225" data-name="Trazado 225" d="M97.154,101.912A18.318,18.318,0,1,1,78.836,83.594a18.319,18.319,0,0,1,18.318,18.318" transform="translate(-18.024 -24.896)" fill="#fff2e7"/>
            <path id="Trazado_226" data-name="Trazado 226" d="M97.077,101.855a1.817,1.817,0,0,1-.034-.3c-.015-.213-.035-.5-.062-.869-.012-.192-.026-.406-.041-.64s-.077-.488-.119-.763a13.438,13.438,0,0,0-.386-1.887A17.48,17.48,0,0,0,94.4,92.554a18.165,18.165,0,0,0-21.824-7.745,18.736,18.736,0,0,0-2.366,1.041,19.006,19.006,0,0,0-2.224,1.43,16.646,16.646,0,0,0-3.835,3.853,17.556,17.556,0,0,0-2.592,5,17.98,17.98,0,0,0,0,11.447,17.592,17.592,0,0,0,2.592,5,16.579,16.579,0,0,0,3.835,3.854,16.605,16.605,0,0,0,4.592,2.472A18.216,18.216,0,0,0,94.4,111.158a17.5,17.5,0,0,0,2.035-4.848,13.362,13.362,0,0,0,.386-1.886c.042-.276.093-.529.119-.763s.029-.447.041-.64c.027-.369.047-.657.062-.869a1.833,1.833,0,0,1,.034-.3,1.833,1.833,0,0,1,0,.3c-.006.213-.015.5-.026.873-.007.194-.015.409-.024.643s-.065.492-.1.77a13.142,13.142,0,0,1-.356,1.906,17.369,17.369,0,0,1-2,4.916A18.426,18.426,0,0,1,82.169,120a18.5,18.5,0,0,1-9.706-.779,16.985,16.985,0,0,1-4.684-2.508,16.888,16.888,0,0,1-3.915-3.922,17.873,17.873,0,0,1-2.649-5.1,18.313,18.313,0,0,1,0-11.675,17.934,17.934,0,0,1,2.649-5.094,20.825,20.825,0,0,1,1.815-2.14A20.517,20.517,0,0,1,67.78,87a16.967,16.967,0,0,1,4.683-2.508,18.5,18.5,0,0,1,9.7-.78,18.436,18.436,0,0,1,12.407,8.735,17.322,17.322,0,0,1,2,4.917,12.938,12.938,0,0,1,.356,1.906c.037.279.083.534.1.77s.017.451.024.645c.011.369.02.659.026.872a1.827,1.827,0,0,1,0,.3" transform="translate(-17.947 -24.839)" fill="#b4b4b4"/>
            <path id="Trazado_227" data-name="Trazado 227" d="M78.636,102.31h2.993a2.544,2.544,0,0,1,2.612-2.559,2.423,2.423,0,0,1,2.346,1.547,2.681,2.681,0,0,1-.213,2.424c-.508.837-1.62,1.6-3.637,1.244v6.749H85.7v-3.955a5.779,5.779,0,0,0,4.151-5.648c0-4.377-3.925-5.393-5.605-5.393-1.285,0-5.662.31-5.606,5.591" transform="translate(-23.419 -28.805)" fill="#efccb3"/>
            <rect id="Rectángulo_50" data-name="Rectángulo 50" width="3.004" height="2.806" transform="translate(59.309 84.3)" fill="#efccb3"/>
            <path id="Trazado_228" data-name="Trazado 228" d="M121.67,120.748a3.08,3.08,0,1,1-3.08-3.08,3.08,3.08,0,0,1,3.08,3.08" transform="translate(-34.402 -35.044)" fill="#fff"/>
            <path id="Trazado_229" data-name="Trazado 229" d="M121.578,120.669c-.039,0-.042-.274-.179-.732a3.075,3.075,0,0,0-1.131-1.594,2.938,2.938,0,0,0-2.751-.378,2.893,2.893,0,1,0,2.751,5.028A3.068,3.068,0,0,0,121.4,121.4c.137-.457.14-.732.179-.731a1.521,1.521,0,0,1-.014.772,3.065,3.065,0,0,1-1.109,1.8,3.222,3.222,0,0,1-3.075.51,3.267,3.267,0,0,1,0-6.162,3.222,3.222,0,0,1,3.075.51,3.065,3.065,0,0,1,1.109,1.8,1.523,1.523,0,0,1,.014.772" transform="translate(-34.309 -34.965)" fill="#263238"/>
            <path id="Trazado_230" data-name="Trazado 230" d="M408.265,330.234a24.707,24.707,0,1,1-24.707-24.707,24.707,24.707,0,0,1,24.707,24.707" transform="translate(-106.875 -90.993)" fill="#fff2e7"/>
            <path id="Trazado_231" data-name="Trazado 231" d="M408.162,330.157a2.416,2.416,0,0,1-.045-.4c-.02-.286-.048-.675-.083-1.172q-.025-.39-.055-.863c-.034-.315-.1-.658-.16-1.03a18.055,18.055,0,0,0-.521-2.545,23.588,23.588,0,0,0-2.745-6.538,24.506,24.506,0,0,0-29.437-10.446,22.5,22.5,0,0,0-6.192,3.334,22.383,22.383,0,0,0-5.172,5.2,23.7,23.7,0,0,0-3.5,6.74,24.258,24.258,0,0,0,0,15.439,23.693,23.693,0,0,0,3.5,6.742,22.373,22.373,0,0,0,5.173,5.2,22.513,22.513,0,0,0,6.193,3.335A24.567,24.567,0,0,0,404.553,342.7a23.587,23.587,0,0,0,2.744-6.537,17.981,17.981,0,0,0,.521-2.545c.057-.372.126-.714.16-1.03s.039-.6.055-.862c.035-.5.063-.885.083-1.172a2.415,2.415,0,0,1,.045-.4,2.417,2.417,0,0,1,0,.4c-.008.288-.02.678-.035,1.177q-.015.392-.032.868c-.027.318-.089.663-.138,1.039a17.582,17.582,0,0,1-.48,2.571,23.406,23.406,0,0,1-2.694,6.631,24.861,24.861,0,0,1-16.735,11.783,24.952,24.952,0,0,1-13.091-1.051,22.874,22.874,0,0,1-6.318-3.383,22.825,22.825,0,0,1-5.281-5.29,24.128,24.128,0,0,1-3.572-6.873,24.7,24.7,0,0,1,0-15.746,24.14,24.14,0,0,1,3.572-6.87,22.82,22.82,0,0,1,5.281-5.289,22.885,22.885,0,0,1,6.316-3.382,24.946,24.946,0,0,1,13.089-1.051,24.864,24.864,0,0,1,16.736,11.781,23.405,23.405,0,0,1,2.694,6.631,17.583,17.583,0,0,1,.48,2.571c.049.376.111.72.138,1.039s.022.607.032.869c.015.5.027.89.035,1.178a2.419,2.419,0,0,1,0,.4" transform="translate(-106.771 -90.916)" fill="#b4b4b4"/>
            <path id="Trazado_232" data-name="Trazado 232" d="M384.535,329.9h3.571a3.034,3.034,0,0,1,3.116-3.052,2.889,2.889,0,0,1,2.8,1.844,3.2,3.2,0,0,1-.254,2.892c-.605,1-1.932,1.906-4.339,1.482v8.051h3.531V336.4a6.9,6.9,0,0,0,4.952-6.737c0-5.221-4.682-6.434-6.687-6.434-1.533,0-6.754.371-6.687,6.67" transform="translate(-114.524 -96.265)" fill="#efccb3"/>
            <rect id="Rectángulo_51" data-name="Rectángulo 51" width="3.583" height="3.347" transform="translate(274.892 246.509)" fill="#efccb3"/>
            <path id="Trazado_233" data-name="Trazado 233" d="M356.74,300.037a4.1,4.1,0,1,0,4.1-4.1,4.1,4.1,0,0,0-4.1,4.1" transform="translate(-106.246 -88.138)" fill="#fff"/>
            <path id="Trazado_234" data-name="Trazado 234" d="M356.719,299.932c.053,0,.056-.364.238-.973a4.094,4.094,0,0,1,1.5-2.121,3.906,3.906,0,0,1,3.66-.5,3.836,3.836,0,0,1,0,7.194,3.907,3.907,0,0,1-3.66-.5,4.089,4.089,0,0,1-1.5-2.121c-.182-.608-.185-.975-.238-.973a2.01,2.01,0,0,0,.019,1.028,4.078,4.078,0,0,0,1.475,2.392,4.286,4.286,0,0,0,4.09.68,4.348,4.348,0,0,0,0-8.2,4.285,4.285,0,0,0-4.09.68,4.08,4.08,0,0,0-1.475,2.392,2.012,2.012,0,0,0-.019,1.028" transform="translate(-106.225 -88.033)" fill="#263238"/>
            <path id="Trazado_235" data-name="Trazado 235" d="M62.126,388.149a17.093,17.093,0,1,1-17.093-17.092,17.093,17.093,0,0,1,17.093,17.092" transform="translate(-8.322 -110.51)" fill="#fff2e7"/>
            <path id="Trazado_236" data-name="Trazado 236" d="M62.055,388.1a1.793,1.793,0,0,1-.032-.277c-.014-.2-.033-.467-.058-.81q-.017-.27-.038-.6c-.024-.219-.072-.456-.111-.713a12.478,12.478,0,0,0-.36-1.761,16.32,16.32,0,0,0-1.9-4.523,16.952,16.952,0,0,0-20.364-7.227,15.6,15.6,0,0,0-4.283,2.306,19.092,19.092,0,0,0-1.92,1.633,19.258,19.258,0,0,0-1.658,1.963,16.38,16.38,0,0,0-2.419,4.663,16.777,16.777,0,0,0,0,10.681A16.424,16.424,0,0,0,31.33,398.1a15.52,15.52,0,0,0,3.579,3.6A15.566,15.566,0,0,0,39.193,404a16.993,16.993,0,0,0,20.365-7.228,16.312,16.312,0,0,0,1.9-4.522,12.491,12.491,0,0,0,.36-1.76c.039-.258.087-.494.111-.713s.027-.417.038-.6c.025-.343.044-.612.058-.81a1.777,1.777,0,0,1,.032-.277,1.689,1.689,0,0,1,0,.277c-.006.2-.014.468-.025.814q-.009.272-.022.6c-.018.22-.061.458-.095.718a12.16,12.16,0,0,1-.332,1.778,16.2,16.2,0,0,1-1.864,4.587,17.2,17.2,0,0,1-11.577,8.152,17.262,17.262,0,0,1-9.057-.727,15.833,15.833,0,0,1-4.37-2.34,19.213,19.213,0,0,1-1.96-1.661,19.345,19.345,0,0,1-1.694-2,16.707,16.707,0,0,1-2.472-4.754,17.08,17.08,0,0,1,0-10.894,16.69,16.69,0,0,1,2.472-4.753,19.431,19.431,0,0,1,1.693-2,19.377,19.377,0,0,1,1.96-1.661,15.84,15.84,0,0,1,4.37-2.34,17.259,17.259,0,0,1,9.056-.727,17.2,17.2,0,0,1,11.577,8.15,16.216,16.216,0,0,1,1.864,4.587,12.2,12.2,0,0,1,.332,1.779c.034.261.077.5.095.719s.016.42.022.6c.011.346.018.616.025.815a1.694,1.694,0,0,1,0,.277" transform="translate(-8.25 -110.456)" fill="#b4b4b4"/>
            <path id="Trazado_237" data-name="Trazado 237" d="M45.71,387.918h2.47a2.1,2.1,0,0,1,2.156-2.111,2,2,0,0,1,1.935,1.276,2.211,2.211,0,0,1-.176,2,2.68,2.68,0,0,1-3,1.025v5.57h2.442v-3.262a4.771,4.771,0,0,0,3.426-4.661,4.439,4.439,0,0,0-4.626-4.451c-1.06,0-4.672.256-4.626,4.614" transform="translate(-13.613 -114.157)" fill="#efccb3"/>
            <rect id="Rectángulo_52" data-name="Rectángulo 52" width="2.479" height="2.315" transform="translate(35.473 282.669)" fill="#efccb3"/>
            <path id="Trazado_238" data-name="Trazado 238" d="M68.255,362.78a3.951,3.951,0,1,0,3.95-3.95,3.951,3.951,0,0,0-3.95,3.95" transform="translate(-20.328 -106.868)" fill="#fff"/>
            <path id="Trazado_239" data-name="Trazado 239" d="M68.235,362.679c.051,0,.054-.352.229-.938a3.951,3.951,0,0,1,1.451-2.045,3.711,3.711,0,1,1,0,5.966,3.947,3.947,0,0,1-1.451-2.045c-.175-.586-.178-.94-.229-.938a1.943,1.943,0,0,0,.018.991,3.928,3.928,0,0,0,1.422,2.307,4.129,4.129,0,0,0,3.944.655,4.192,4.192,0,0,0,0-7.906,4.131,4.131,0,0,0-3.943.656,3.932,3.932,0,0,0-1.423,2.306,1.945,1.945,0,0,0-.018.991" transform="translate(-20.308 -106.767)" fill="#263238"/>
          </g>
        </g>
      </g>
    </g>
  </g>
</svg>
