<svg id="Group_1145601" data-name="Group 1145601" xmlns="http://www.w3.org/2000/svg" width="48" height="48" viewBox="0 0 48 48">
  <rect id="Rectangle_401338" data-name="Rectangle 401338" width="48" height="48" fill="#dbe7fc"/>
  <path id="Path_978644" data-name="Path 978644" d="M40.342,31.651a.923.923,0,0,1,0,1.306l-7.384,7.384a.924.924,0,1,1-1.306-1.306l7.384-7.384a.923.923,0,0,1,1.306,0ZM46.1,25.889a6.461,6.461,0,0,0-9.138,0L33.5,29.356A.924.924,0,0,0,34.8,30.662L38.272,27.2A4.615,4.615,0,1,1,44.8,33.727l-3.47,3.468a.923.923,0,1,0,1.3,1.306l3.47-3.474a6.461,6.461,0,0,0,0-9.138ZM37.19,41.329,33.722,44.8A4.615,4.615,0,1,1,27.2,38.27L30.663,34.8A.924.924,0,1,0,29.357,33.5L25.89,36.965A6.462,6.462,0,0,0,35.028,46.1L38.5,42.634a.923.923,0,0,0-1.306-1.3Z" transform="translate(-11.997 -11.996)" fill="#006df0"/>
</svg>
