<svg xmlns="http://www.w3.org/2000/svg" width="90" height="90" viewBox="0 0 90 90">
  <g id="Group_1144408" data-name="Group 1144408" transform="translate(-204.281 -8571.527)">
    <path id="Path_875096" data-name="Path 875096" d="M45,0A45,45,0,1,1,0,45,45,45,0,0,1,45,0Z" transform="translate(204.281 8571.527)" fill="#dbe7fc"/>
    <path id="Path_874077" data-name="Path 874077" d="M53.714,37.913a1.678,1.678,0,0,1,0,2.375L40.289,53.713a1.679,1.679,0,1,1-2.375-2.375L51.34,37.913a1.678,1.678,0,0,1,2.375,0ZM64.19,27.437a11.747,11.747,0,0,0-16.614,0l-6.306,6.3a1.679,1.679,0,0,0,2.375,2.375l6.306-6.293A8.391,8.391,0,1,1,61.818,41.687L55.51,47.993a1.678,1.678,0,1,0,2.373,2.375l6.308-6.316a11.747,11.747,0,0,0,0-16.614ZM47.983,55.509l-6.306,6.306A8.391,8.391,0,1,1,29.812,49.948l6.3-6.3a1.679,1.679,0,1,0-2.375-2.375l-6.3,6.306A11.748,11.748,0,0,0,44.052,64.189l6.306-6.308a1.678,1.678,0,0,0-2.375-2.373Z" transform="translate(203.284 8571.531)" fill="#006df0"/>
  </g>
</svg>
