<svg xmlns="http://www.w3.org/2000/svg" width="37.382" height="37.384" viewBox="0 0 37.382 37.384">
  <path id="derecho-bancario" d="M35.034,18.318a.584.584,0,0,0,.584-.584V14.546H37.3a.584.584,0,0,0,.584-.584V10.189a.583.583,0,0,0-.322-.522L19.453.558a.583.583,0,0,0-.525,0L.822,9.668A.584.584,0,0,0,.5,10.19v3.773a.585.585,0,0,0,.584.584h1.68v3.188a.585.585,0,0,0,.584.584H3.9V28.411H3.349A.584.584,0,0,0,2.764,29v3.188H1.084a.584.584,0,0,0-.584.584v4.527a.585.585,0,0,0,.584.584H37.3a.584.584,0,0,0,.584-.584V32.768a.585.585,0,0,0-.584-.584h-1.68V29a.585.585,0,0,0-.584-.584h-.548V18.318ZM34.45,17.15H29.583v-2.6H34.45ZM29,28.41a.584.584,0,0,0-.584.584v3.188H22.792V28.995a.585.585,0,0,0-.584-.584H21.66V18.318h.548a.584.584,0,0,0,.584-.584V14.546h5.622v3.188a.585.585,0,0,0,.584.584h.547V28.41ZM16.757,32.182v-2.6h4.868v2.6Zm-6.79,0V28.994a.585.585,0,0,0-.584-.584H8.835V18.318h.547a.584.584,0,0,0,.584-.584V14.546h5.622v3.188a.585.585,0,0,0,.584.584h.548V28.41h-.548a.584.584,0,0,0-.584.584v3.188H9.967ZM21.625,14.547v2.6H16.757v-2.6ZM17.889,28.41V18.318h2.6V28.41ZM1.668,10.55,19.191,1.733,36.713,10.55v2.828H1.668Zm7.13,4v2.6H3.932v-2.6ZM5.064,18.318h2.6V28.41h-2.6ZM3.932,29.578H8.8v2.6H3.932Zm32.782,7.13H1.668V33.35H36.713Zm-7.13-4.527v-2.6H34.45v2.6Zm3.734-3.772h-2.6V18.318h2.6ZM19.191,10.368a2.848,2.848,0,1,0-2.848-2.847A2.851,2.851,0,0,0,19.191,10.368Zm0-4.526a1.679,1.679,0,1,1-1.68,1.68,1.682,1.682,0,0,1,1.68-1.68Z" transform="translate(-0.5 -0.495)" fill="#1172b3"/>
</svg>
