<svg xmlns="http://www.w3.org/2000/svg" width="24" height="25.043" viewBox="0 0 24 25.043">
  <path id="Path_874071" data-name="Path 874071" d="M64,40.7a1.043,1.043,0,0,1-1.043,1.043h-3.13v2.087h2.087a1.043,1.043,0,1,1,0,2.087H59.826V48a1.043,1.043,0,0,1-2.087,0V40.7a1.043,1.043,0,0,1,1.043-1.043h4.174A1.043,1.043,0,0,1,64,40.7ZM46.783,43.3a3.652,3.652,0,0,1-3.652,3.652H42.087V48A1.043,1.043,0,0,1,40,48V40.7a1.043,1.043,0,0,1,1.043-1.043H43.13A3.652,3.652,0,0,1,46.783,43.3Zm-2.087,0a1.565,1.565,0,0,0-1.565-1.565H42.087v3.13H43.13A1.565,1.565,0,0,0,44.7,43.3Zm11.478,1.043a4.7,4.7,0,0,1-4.7,4.7H49.391A1.043,1.043,0,0,1,48.348,48V40.7a1.043,1.043,0,0,1,1.043-1.043h2.087A4.7,4.7,0,0,1,56.174,44.348Zm-2.087,0a2.609,2.609,0,0,0-2.609-2.609H50.435v5.217h1.043A2.609,2.609,0,0,0,54.087,44.348ZM40,35.478V26.087A2.087,2.087,0,0,1,42.087,24H54.609a1.043,1.043,0,0,1,.738.305l7.3,7.3a1.043,1.043,0,0,1,.305.738v3.13a1.043,1.043,0,0,1-2.087,0V33.391H54.609a1.043,1.043,0,0,1-1.043-1.043V26.087H42.087v9.391a1.043,1.043,0,0,1-2.087,0ZM55.652,31.3h3.742l-3.742-3.742Z" transform="translate(-40 -24)" fill="#f15642"/>
</svg>
