<svg xmlns="http://www.w3.org/2000/svg" width="24" height="23.51" viewBox="0 0 24 23.51">
  <path id="Path_874072" data-name="Path 874072" d="M30.939,38.694H28.98a.98.98,0,0,0-.98.98v6.857a.98.98,0,0,0,.98.98h1.959a4.408,4.408,0,1,0,0-8.816Zm0,6.857h-.98v-4.9h.98a2.449,2.449,0,0,1,0,4.9Zm20.759-.6a.98.98,0,0,1,.031,1.385,3.681,3.681,0,0,1-2.667,1.176A4.189,4.189,0,0,1,45.143,43.1a4.189,4.189,0,0,1,3.918-4.408,3.681,3.681,0,0,1,2.667,1.176.98.98,0,1,1-1.416,1.354,1.744,1.744,0,0,0-1.251-.571A2.251,2.251,0,0,0,47.1,43.1a2.251,2.251,0,0,0,1.959,2.449,1.744,1.744,0,0,0,1.251-.571A.98.98,0,0,1,51.7,44.95ZM40.245,38.694A4.189,4.189,0,0,0,36.327,43.1a4.189,4.189,0,0,0,3.918,4.408A4.189,4.189,0,0,0,44.163,43.1,4.189,4.189,0,0,0,40.245,38.694Zm0,6.857A2.251,2.251,0,0,1,38.286,43.1a2.251,2.251,0,0,1,1.959-2.449A2.251,2.251,0,0,1,42.2,43.1,2.251,2.251,0,0,1,40.245,45.551Zm-9.8-9.8a.98.98,0,0,0,.98-.98V25.959H42.2v5.878a.98.98,0,0,0,.98.98h5.878v1.959a.98.98,0,1,0,1.959,0V31.837a.98.98,0,0,0-.287-.693l-6.857-6.857A.98.98,0,0,0,43.184,24H31.429a1.959,1.959,0,0,0-1.959,1.959v8.816A.98.98,0,0,0,30.449,35.755Zm13.714-8.411,3.513,3.513H44.163Z" transform="translate(-28 -24)" fill="#006df0"/>
</svg>
