<svg xmlns="http://www.w3.org/2000/svg" width="24" height="26.152" viewBox="0 0 24 26.152">
  <path id="Path_874073" data-name="Path 874073" d="M55.63,49.063a1.09,1.09,0,0,1-1.09,1.09H50.726a1.09,1.09,0,0,1-1.09-1.09V41.435a1.09,1.09,0,1,1,2.179,0v6.538H54.54A1.09,1.09,0,0,1,55.63,49.063ZM47,40.548a1.09,1.09,0,0,0-1.52.253l-1.837,2.573L41.806,40.8a1.09,1.09,0,1,0-1.771,1.267L42.3,45.249l-2.272,3.181A1.09,1.09,0,0,0,41.8,49.7l1.84-2.573L45.48,49.7a1.09,1.09,0,0,0,1.771-1.267l-2.269-3.181,2.272-3.181A1.09,1.09,0,0,0,47,40.548Zm13.477,3.517a6.266,6.266,0,0,1-1.423-.523c-.17-.112-.168-.136-.153-.259a.618.618,0,0,1,.272-.5,4.284,4.284,0,0,1,2.7-.076,1.09,1.09,0,0,0,.554-2.109c-.287-.075-2.86-.711-4.472.376a2.8,2.8,0,0,0-1.219,2.036c-.272,2.163,1.859,2.78,3.133,3.148,1.643.475,1.787.67,1.741,1.034a.668.668,0,0,1-.293.535,4.183,4.183,0,0,1-2.662.048,1.092,1.092,0,1,0-.584,2.1,8.259,8.259,0,0,0,2.069.272,4.305,4.305,0,0,0,2.382-.607,2.835,2.835,0,0,0,1.25-2.074C64.075,45.113,61.824,44.455,60.477,44.065ZM39.829,35.987V26.179A2.179,2.179,0,0,1,42.008,24H55.085a1.09,1.09,0,0,1,.771.319l7.628,7.628a1.09,1.09,0,0,1,.319.771v3.269a1.09,1.09,0,1,1-2.179,0V33.807H55.085A1.09,1.09,0,0,1,54,32.717V26.179H42.008v9.807a1.09,1.09,0,1,1-2.179,0Zm16.345-4.359h3.907L56.174,27.72Z" transform="translate(-39.802 -24)" fill="#288225"/>
</svg>
