<svg xmlns="http://www.w3.org/2000/svg" xmlns:xlink="http://www.w3.org/1999/xlink" width="324.337" height="434.693" viewBox="0 0 324.337 434.693">
  <defs>
    <clipPath id="clip-path">
      <rect id="Rectángulo_8" data-name="Rectángulo 8" width="232.129" height="55.994" fill="none"/>
    </clipPath>
    <clipPath id="clip-path-2">
      <rect id="Rectángulo_6" data-name="Rectángulo 6" width="191.848" height="434.693" fill="none"/>
    </clipPath>
    <clipPath id="clip-path-4">
      <rect id="Rectángulo_1" data-name="Rectángulo 1" width="38.68" height="19.513" fill="none"/>
    </clipPath>
    <clipPath id="clip-path-5">
      <rect id="Rectángulo_2" data-name="Rectángulo 2" width="26.881" height="47.935" fill="none"/>
    </clipPath>
    <clipPath id="clip-path-6">
      <rect id="Rectángulo_3" data-name="Rectángulo 3" width="6.441" height="3.334" fill="none"/>
    </clipPath>
    <clipPath id="clip-path-8">
      <rect id="Rectángulo_9" data-name="Rectángulo 9" width="53.004" height="72.635" transform="translate(0 0)" fill="none"/>
    </clipPath>
    <clipPath id="clip-path-9">
      <rect id="Rectángulo_10" data-name="Rectángulo 10" width="44.832" height="56.239" fill="none"/>
    </clipPath>
    <clipPath id="clip-path-10">
      <rect id="Rectángulo_11" data-name="Rectángulo 11" width="20.011" height="19.801" transform="translate(0 0)" fill="none"/>
    </clipPath>
    <clipPath id="clip-path-15">
      <rect id="Rectángulo_12" data-name="Rectángulo 12" width="51.672" height="46.352" fill="none"/>
    </clipPath>
    <clipPath id="clip-path-16">
      <rect id="Rectángulo_13" data-name="Rectángulo 13" width="58.053" height="50.019" fill="none"/>
    </clipPath>
    <clipPath id="clip-path-17">
      <rect id="Rectángulo_14" data-name="Rectángulo 14" width="34.956" height="35.288" fill="none"/>
    </clipPath>
    <clipPath id="clip-path-18">
      <rect id="Rectángulo_15" data-name="Rectángulo 15" width="10.536" height="16.963" transform="translate(0 0)" fill="none"/>
    </clipPath>
    <clipPath id="clip-path-23">
      <rect id="Rectángulo_16" data-name="Rectángulo 16" width="5.158" height="5.158" transform="translate(0 0)" fill="none"/>
    </clipPath>
  </defs>
  <g id="Grupo_126" data-name="Grupo 126" transform="translate(-285.99 -322.654)">
    <g id="Grupo_20" data-name="Grupo 20" transform="translate(338.559 426.874)">
      <g id="Grupo_19" data-name="Grupo 19" transform="translate(0 0)" clip-path="url(#clip-path)">
        <path id="Trazado_85" data-name="Trazado 85" d="M.367,6.857A303.677,303.677,0,0,0,44.972,19.7a313.612,313.612,0,0,0,45.772,5.981,316.8,316.8,0,0,0,46.429-.783,314.432,314.432,0,0,0,45.549-7.511A303.815,303.815,0,0,0,226.688,3.157q2.589-1.063,5.157-2.174c.638-.275.087-1.207-.546-.934a302.721,302.721,0,0,1-43.773,15.012A311.546,311.546,0,0,1,142.2,23.315a316.66,316.66,0,0,1-46.006,1.541A312.691,312.691,0,0,1,50.41,19.672,303.754,303.754,0,0,1,5.973,7.744Q3.305,6.8.654,5.814C0,5.57-.281,6.616.367,6.857" transform="translate(0 0)" fill="#fff"/>
        <path id="Trazado_86" data-name="Trazado 86" d="M7.323,8.521A98.662,98.662,0,0,0,8.833,38.009c.327,1.594.93,3.45,2.492,3.906,1.508.441,2.981-.7,4.132-1.765a272.717,272.717,0,0,0,21.8-22.685Z" transform="translate(0.255 0.317)" fill="#fff"/>
        <path id="Trazado_87" data-name="Trazado 87" d="M48.247,18.853A98.621,98.621,0,0,0,54.6,47.687c.584,1.52,1.486,3.249,3.1,3.442,1.56.186,2.824-1.18,3.785-2.424A272.553,272.553,0,0,0,79.251,22.732Z" transform="translate(1.797 0.702)" fill="#fff"/>
        <path id="Trazado_88" data-name="Trazado 88" d="M183.669,15.386a98.614,98.614,0,0,0,18.1,23.324c1.179,1.121,2.735,2.3,4.279,1.779,1.488-.5,2.045-2.278,2.379-3.812a272.577,272.577,0,0,0,4.91-31.08Z" transform="translate(6.84 0.208)" fill="#fff"/>
        <path id="Trazado_89" data-name="Trazado 89" d="M101.691,24.853a98.635,98.635,0,0,0,11.045,27.383c.829,1.4,2,2.957,3.63,2.879,1.569-.076,2.59-1.632,3.331-3.017a272.354,272.354,0,0,0,13.212-28.555Z" transform="translate(3.787 0.876)" fill="#fff"/>
        <path id="Trazado_90" data-name="Trazado 90" d="M144.906,22.1a98.612,98.612,0,0,0,14.5,25.721c1,1.282,2.37,2.673,3.972,2.386,1.547-.278,2.357-1.953,2.913-3.423a272.476,272.476,0,0,0,9.4-30.027Z" transform="translate(5.396 0.624)" fill="#fff"/>
        <path id="Trazado_91" data-name="Trazado 91" d="M195.762,32.1c4.613-1.4,9.292-2.56,13.914-3.919a.325.325,0,0,0-.172-.626c-4.623,1.36-9.3,2.524-13.914,3.919a.325.325,0,0,0,.172.626" transform="translate(7.275 1.025)" fill="#dbfffe"/>
        <path id="Trazado_92" data-name="Trazado 92" d="M190.893,26.217l20.252-7.093c.392-.138.224-.765-.172-.626L190.721,25.59c-.392.138-.224.765.172.626" transform="translate(7.094 0.688)" fill="#dbfffe"/>
        <path id="Trazado_93" data-name="Trazado 93" d="M186.048,19A133.087,133.087,0,0,0,212.494,11.5c.384-.154.216-.782-.172-.626a133.1,133.1,0,0,1-26.448,7.494c-.411.072-.236.7.173.626" transform="translate(6.913 0.404)" fill="#dbfffe"/>
        <path id="Trazado_94" data-name="Trazado 94" d="M200.937,37.275l6.453-1.3c.409-.083.235-.708-.173-.626l-6.452,1.3c-.41.083-.236.708.172.626" transform="translate(7.467 1.316)" fill="#dbfffe"/>
        <path id="Trazado_95" data-name="Trazado 95" d="M106.357,25.895A179.306,179.306,0,0,0,111,48.685a.325.325,0,0,0,.626-.173,179.107,179.107,0,0,1-4.645-22.789c-.057-.413-.683-.238-.626.172" transform="translate(3.96 0.949)" fill="#dbfffe"/>
        <path id="Trazado_96" data-name="Trazado 96" d="M113.763,25.891a252.843,252.843,0,0,1,2.524,27.77c.015.416.664.418.649,0a254.416,254.416,0,0,0-2.546-27.942c-.061-.413-.687-.238-.627.172" transform="translate(4.236 0.949)" fill="#dbfffe"/>
        <path id="Trazado_97" data-name="Trazado 97" d="M120.742,24.4a181.762,181.762,0,0,0,1.781,18.888c.061.412.687.236.626-.172A179.907,179.907,0,0,1,121.391,24.4c-.018-.416-.667-.418-.649,0" transform="translate(4.496 0.897)" fill="#dbfffe"/>
        <path id="Trazado_98" data-name="Trazado 98" d="M126.638,23.789q.409,4.864.819,9.727c.035.414.685.417.649,0q-.409-4.864-.819-9.727c-.035-.413-.685-.417-.649,0" transform="translate(4.716 0.874)" fill="#dbfffe"/>
        <path id="Trazado_99" data-name="Trazado 99" d="M8.819,36.462,22.58,32.673a.325.325,0,0,0-.173-.626L8.647,35.836a.325.325,0,0,0,.172.626" transform="translate(0.313 1.193)" fill="#dbfffe"/>
        <path id="Trazado_100" data-name="Trazado 100" d="M7.384,29.806l25.821-7.889c.4-.121.229-.749-.172-.626L7.212,29.18c-.4.122-.229.749.172.626" transform="translate(0.26 0.792)" fill="#dbfffe"/>
        <path id="Trazado_101" data-name="Trazado 101" d="M7.137,22.163l20.173-6.91c.393-.135.225-.762-.172-.626L6.965,21.537c-.393.135-.225.762.172.626" transform="translate(0.251 0.544)" fill="#dbfffe"/>
        <path id="Trazado_102" data-name="Trazado 102" d="M7.048,15.475l8.076-3.149c.385-.15.217-.778-.173-.625L6.876,14.849c-.386.15-.218.779.172.626" transform="translate(0.248 0.435)" fill="#dbfffe"/>
      </g>
    </g>
    <g id="Grupo_16" data-name="Grupo 16" transform="translate(333.65 322.654)">
      <g id="Grupo_15" data-name="Grupo 15" clip-path="url(#clip-path-2)">
        <g id="Grupo_14" data-name="Grupo 14">
          <g id="Grupo_13" data-name="Grupo 13" clip-path="url(#clip-path-2)">
            <path id="Trazado_1" data-name="Trazado 1" d="M93.426,57.294c-.186-.452-2.213-8.847-2.213-8.847s7.347-7.7,6.708-12.285S91.4,30.791,91.4,30.791s-1.618-10.506-10.172-5.185a5.607,5.607,0,0,0-5.277,5.7s-4.411,4.025-1.847,11.767,5.35,7.167,5.35,7.167,3.115,11.769,6.175,13.243,8.721-3.925,7.792-6.185" transform="translate(1.529 0.503)" fill="#ffae7a"/>
            <path id="Trazado_2" data-name="Trazado 2" d="M93.175,23.614C88.4,17.824,80.5,18.866,77.7,19.459c.313-.925.574-1.715.771-2.336.021-.055.042-.114.063-.175.283-.876.443-1.366.443-1.366C80.333,11.518,72.6,5.59,61.716,2.345S40.833-.6,39.481,3.469a2.85,2.85,0,0,0-.131.627c-.19.482-.481,1.162-.843,2C37.294,4.7,31.089-1.821,22.9.493,13.739,3.072,15.6,11.661,16.766,16.184c1.722,6.71,8.549,14.628,11.829,18.142a3.27,3.27,0,0,1-1.753,1.33c-1.274.443-1.943-.207-2.83-1.086-1.365-1.354-4.462-.551-3.819,1.767,1.138,4.1,5.453,5.387,9.084,3.616,2.759,7.068,9.176,12.846,10.245,13.692a9.228,9.228,0,0,1-.8,2.292,18.9,18.9,0,0,1-3.948,5.084c-.011.014-.028.023-.039.038-.23-.027-.453-.058-.693-.086-5.5-.62-5.6,2.836-5.6,2.836-4.6.485-4.774,4-4.774,4-1.2,7.048,10.1,10.094,17.626,11.224,2.76.414,4.944-.169,6.229-1.224,2.978-2.443,1.2-5.085,1.2-5.085s.914.045,1.016-1.925c.089-1.657-1.208-3.661-3.508-5.305a14.819,14.819,0,0,1,.746-7.89,16.3,16.3,0,0,1,.715-1.727c3.628-.209,11.988-1.524,17.115-5.92a6.518,6.518,0,0,0,.9,1.833c2.021,2.861,6.01,3.58,8.45.906,1.331-1.459-.425-3.722-2.148-3.413-1,.18-1.693.387-2.383-.476a3.229,3.229,0,0,1-.523-1.047c5.208-1.229,14.391-3.852,19.455-8,3.715-3.048,10.5-9.021,4.62-16.147m-63.2,4.8C25.84,23.553,16.842,11.54,23.322,5.668c0,0,2.536-2.628,7.879.875a39.755,39.755,0,0,1,5.286,4.213,147.223,147.223,0,0,0-6.516,17.661M69.765,42.626H69.76c-.105.02-.2.048-.3.075,1.976-5.12,4-10.838,5.686-15.692.007-.02.014-.04.021-.065.291-.844.57-1.668.839-2.452a42.1,42.1,0,0,1,6.7-.5c6.495.074,6.957,3.608,6.957,3.608,1.72,8.576-13.871,13.468-19.9,15.027" transform="translate(0.329 0)" fill="#fabf4f"/>
            <g id="Grupo_3" data-name="Grupo 3" transform="translate(29.83 37.875)" opacity="0.3">
              <g id="Grupo_2" data-name="Grupo 2">
                <g id="Grupo_1" data-name="Grupo 1" clip-path="url(#clip-path-4)">
                  <path id="Trazado_3" data-name="Trazado 3" d="M61.792,47.868l-.014.017h-.006l0-.009c.007,0,.016,0,.022-.009m-.206-.09c-.054.081.1.139.184.1-.018-.1-.088-.111-.184-.1m-2.207.886a.622.622,0,0,0,.344.671.782.782,0,0,1,.671-.084c.582-.052.144-.789-.085-1.033-.413-.161-.879-.249-1.127-.66-.3.067-.611.135-.923.2.489.166,1.262.228,1.12.907m-2.725.433a.923.923,0,0,0,1.127-.2.884.884,0,0,0-.273-.988q-.547.109-1.1.213a1.809,1.809,0,0,0,.248.972m4.4.541-.486.656c1.106,1.93,2.2-.9.486-.656M41.069,54.707c.383-.445-.007-.93-.381-1.215-.452.1-.771.286-.793.763.248.533.651.509,1.174.452m.805-5.158c-.068.159-.123.287-.193.452.511,1.421,1.771.337.955-.66a2.035,2.035,0,0,0-.762.208m-9.882-6.773-.523-.222-.553.312a1.337,1.337,0,0,0-.007.189c.147.246.3.49.447.731.424.141.95-.226.636-1.011m9.17,5.015a.7.7,0,0,0-.317,1.313c.469.043.675-.3.97-.573l-.652-.74m-1.886-.552c.369.246.84.364,1.059-.087q-.495-.3-.963-.631a.893.893,0,0,0-.1.718m22.5.647h-.006l0-.009c-.081.04-.238-.018-.184-.1.1-.012.165-.005.184.1.007,0,.016,0,.022-.009l-.014.017c.222.018.266-.232.37-.372l-.254-.6q-.421.106-.86.212c-.208.527.247,1.451.744.756m-23.35-2.038c.014,0,.023-.009.038-.012-.166-.135-.329-.273-.488-.411a.559.559,0,0,0,.45.424m-6.183-3.819c.444.721,1.035.653,1.319-.117-.116-.565-.218-.671-.8-.59.066.415-.494.307-.517.707m2.762,2.821.49.513-.093.1c1.847.3.457-2.043-.4-.618m4.236,8.021c-.021.1-.049.205-.073.308.657.092,1.159-1.2-.15-1.136l-.34.35c.247.218.441.382.564.478M30.475,37.976c-.454.263-.98.559-.561,1.114.414.033.814.1,1.111-.238-.205-.369-.063-.767-.549-.876M57.719,49.99c.814.705.369,1.135,1.376.264.013-.142.025-.259.042-.45-.509-.161-1.168-.458-1.418.186m-18.805-1.6c-.05-.923-1.168-1.106-1.374-.182a.877.877,0,0,0,1.374.182M42.1,52.2l-.524.3c-.014.256.234.378.085.584.188.577.787.441,1.053-.014-.06-.39-.067-.789-.614-.874m15.437-.65c-.146-.308-.3-.6-.433-.914-.394.184-.744.287-.86.693.053.624.921.7,1.292.221M63.545,49c-.245-.417-1.357-.731-1.283.025-.07.865,1.149.7,1.283-.025M67.6,45.653c.143-.2.235-.342.275-.4a.08.08,0,0,1,.017-.025.017.017,0,0,0,.006-.009H67.9c-.042.014-.3.1-.732.232a.391.391,0,0,0,.439.207M60.422,51.6a.789.789,0,0,0-1.429-.012.762.762,0,0,0,1.429.012M43.951,49.436a1.007,1.007,0,0,0,.58-.666c-.057-.01-.117-.017-.174-.029-.275-.054-.545-.12-.812-.194a.82.82,0,0,0,.405.888m-9.034-1.981a.857.857,0,0,0,.2.983c.5.087.5.087.862-.448-.139-.411-.616-.894-1.058-.535m31.676-1.423a1.232,1.232,0,0,0-.7-.2l-.144.042c-.8,1.259,1,1.566.848.16M50.337,49.577a2.59,2.59,0,0,0-.178-.617q-.413.029-.823.049l-.137.216c.125.706.649.977,1.137.351M32.132,37.861c-.249-.475-.381-.76-.381-.76l-.442.239c-.019.027-.037.052-.059.08.357.411.665.5.882.441M44.34,55.6c-.059.147-.125.307-.213.53.365.41.672.705,1.17.249.017-.186.034-.362.049-.522A.815.815,0,0,0,44.34,55.6m9.636-2.1c-.824-.389-1.082.211-.7.746.309-.068.623-.144.939-.223a.8.8,0,0,0-.241-.524m-2.132-.867c1.27.576,1.764-.707.422-.808-.275.143-.722.469-.422.808m2.867-4.217q-.381.061-.764.118a.538.538,0,0,1,.117.391.982.982,0,0,0,.646-.509M36.679,45.98c-.333.19-.215.562-.414.761.333.755,1.306.449,1.074-.427l-.659-.334m16.554,3.343c-.289-.611-.976-.468-1.208.175.3.7,1.271.673,1.208-.175m-6.955,3.093c.263-.1.585.006.87-.246.136-1.458-1.934-.551-.87.246M43,54.173c-.023.245-.044.46-.064.678.144.067.267.127.4.188l.518-.206c.2-.717.2-.717-.379-.943-.155.093-.323.194-.475.284m-10.26-9.957c-.035-.115-.2-.115-.314-.047a.582.582,0,1,0,.848.533c-.16-.21-.452-.218-.534-.486m11.51,7.141-.56-.249a.92.92,0,0,0-.689.425c.08.7.745.509,1.231.414.006-.2.012-.373.018-.59M50.9,54.2c1.02-.235.328-1.353-.543-.9-.126.467-.088.992.543.9M47.4,49.036q-.527-.011-1.03-.045c-.029.573.971.625,1.03.045m7.492.67a.931.931,0,0,0,1.1.554c0-.3.007-.57.01-.844-.5-.262-.9-.332-1.108.29m-5.613,4.636a2.254,2.254,0,0,1-.706.6.572.572,0,0,0,.034.06c.366-.037.762-.083,1.177-.137a1.647,1.647,0,0,0-.5-.528m-4.858-1.014c.282.6,1.738.147,1.156-.43-1.015-.737-.6-.152-1.156.43M63.508,46.5,63,46.633a1.46,1.46,0,0,0,.291.072,2.512,2.512,0,0,0,.222-.208M29.341,40.019c.017-.038.034-.07.053-.11a1.809,1.809,0,0,0-.175-.178c.041.1.08.193.121.288m8.9,10.589c-.583-.188-.766.1-.844.58q.187.184.36.349c.566.085,1.029-.334.484-.929m9.527.356a1.712,1.712,0,0,0,1-.428c-.053-1.087-1.735-.476-1,.428m-.887,3.981c.035-.438,0-.5-.463-.786-1.245.636-.585,1.508.463.786m-7.04-4.595a.242.242,0,0,0,.133-.432c-.219-.194-.052-.481-.224-.715a1.338,1.338,0,0,0-.508.085c-.392.646-.24,1.193.6,1.062m8.321,3.288c.277-.106.246-.327.219-.573-.519-.553-1.189.248-.933.838a1.964,1.964,0,0,0,.56.118c.107-.12-.019-.316.153-.384m-9.571,1.585c.3.136.614.262.932.384a.575.575,0,0,0,.041-.167c-.158-.493-.618-.471-.973-.216m2.806.555c.149.6.862.564,1.193.1-.088-.113-.2-.188-.2-.266-.09-.611-1.128-.455-.994.164m13.86-2.526.573-.528c-.039-.146-.078-.3-.135-.513-.964-.1-1.547.669-.438,1.041m-21.7-6.528.857.08c.505-1.187-1.526-1.28-.857-.08m6.779,4.832.652.361c.889-1.277-.46-1.9-.652-.361M33.1,39.541c-.147-.239-.281-.463-.4-.676l-.14.082a2.527,2.527,0,0,0,.544.594m-2.843,1.423a2.663,2.663,0,0,0-.4.147q.224.453.461.9c.276-.356.413-.721-.061-1.043m20.972,9.171c-.9.264-.889,1.36.107,1.253a.552.552,0,0,1,.154-.574c-.089-.23-.164-.427-.261-.679m-15.079-.693c.105.173.2.322.288.471.657.23.706-.32.687-.826l-.6-.192c-.271.121-.218.394-.371.547m-1.733-5.568.5-.5c-.877-1.235-1.825.66-.5.5m-2.2-3.322-.567-1.075a3.675,3.675,0,0,1-.481.817c.094.211.092.451.328.545l.72-.287m22.282,10.3c-.5-.573-.985.039-1,.593l.283.239.594-.332c.041-.168.079-.322.123-.5m9.66-3.592c-.047.2-.087.372-.123.528.6.727.892.6.979-.317-.294-.075-.5-.306-.856-.21m-19.109,2.45c-.124.2-.254.41-.4.646.445.3.764.712,1.217.076a3.957,3.957,0,0,0-.436-.379c-.146-.094-.112-.365-.382-.343m4.975,2.432-.641-.581c-.276.371-.276.371-.279.981.738.138.761.127.92-.4m8.471.431c-.67-.5-1.062.031-.8.4.272-.1.541-.2.811-.308,0-.031-.006-.062-.011-.092" transform="translate(-29.221 -37.101)" fill="#421b36"/>
                </g>
              </g>
            </g>
            <path id="Trazado_4" data-name="Trazado 4" d="M65.434,48.8c2.666-3.332,4.047-7.418,5.431-11.4,1.515-4.355,2.927-8.744,4.372-13.122.834-2.528,1.683-5.051,2.565-7.563.134-.382-.454-.605-.589-.224-1.506,4.292-2.909,8.617-4.33,12.937-1.4,4.246-2.733,8.546-4.416,12.689a25.08,25.08,0,0,1-3.544,6.311c-.253.316.259.682.511.366" transform="translate(1.353 0.34)" fill="#2c3137"/>
            <path id="Trazado_5" data-name="Trazado 5" d="M39.306,52.365c2.483-1.607,7.232-.846,7.621,2.5.031.264.475.324.542.051.507-2.053-1.338-3.658-3.168-4.093-1.348-.321-5.02-.552-5.305,1.374-.028.181.185.246.31.164" transform="translate(0.814 1.056)" fill="#421b36"/>
            <path id="Trazado_6" data-name="Trazado 6" d="M33.648,60.047a20.958,20.958,0,0,1,12.031,4.461c.313.257.679-.256.366-.511a21.532,21.532,0,0,0-12.338-4.576c-.4-.022-.464.6-.059.626" transform="translate(0.696 1.24)" fill="#421b36"/>
            <path id="Trazado_7" data-name="Trazado 7" d="M26.84,63.236A24.142,24.142,0,0,1,39.347,65a32.81,32.81,0,0,1,5.2,2.7,9.878,9.878,0,0,1,3.668,3.861c.18.361.751.1.57-.265a10.205,10.205,0,0,0-3.561-3.9,32.216,32.216,0,0,0-5.445-2.89,24.852,24.852,0,0,0-13.048-1.878c-.4.057-.292.677.109.62" transform="translate(0.552 1.302)" fill="#421b36"/>
            <path id="Trazado_8" data-name="Trazado 8" d="M47.966,75.682c-.842,2.647-7.021,3.045-13.8.888s-11.6-6.05-10.755-8.7,7.021-3.044,13.8-.888,11.6,6.051,10.755,8.7" transform="translate(0.486 1.368)" fill="#2c3137"/>
            <path id="Trazado_9" data-name="Trazado 9" d="M38.929,4.352A39.73,39.73,0,0,1,72.26,10.765,21.269,21.269,0,0,1,75.3,13.571a14.432,14.432,0,0,1,2.473,3.458.315.315,0,0,0,.571-.265,18.224,18.224,0,0,0-4.734-5.73A33.872,33.872,0,0,0,66.232,6.38a39.941,39.941,0,0,0-17.27-3.913A41.636,41.636,0,0,0,38.82,3.732c-.391.1-.285.719.109.62" transform="translate(0.805 0.051)" fill="#2c3137"/>
            <path id="Trazado_10" data-name="Trazado 10" d="M20.747,2.371a6.433,6.433,0,0,0-3.994,6.5c.046.518.933.491.925-.038a6.742,6.742,0,0,1,3.257-6.056.223.223,0,0,0-.188-.4" transform="translate(0.349 0.049)" fill="#fff"/>
            <path id="Trazado_11" data-name="Trazado 11" d="M16.857,10.985c.01.013.019.027.029.041a.494.494,0,0,0,.545.156.378.378,0,0,0,.173-.089l.089-.1a.509.509,0,0,0,.094-.249l-.006-.137a.5.5,0,0,0-.109-.236l-.034-.036a.371.371,0,0,0-.153-.119.378.378,0,0,0-.19-.062.384.384,0,0,0-.2.026.375.375,0,0,0-.172.089l-.089.095a.5.5,0,0,0-.093.247c0,.046,0,.091.005.136a.513.513,0,0,0,.109.235" transform="translate(0.349 0.212)" fill="#fff"/>
            <path id="Trazado_12" data-name="Trazado 12" d="M86.066,21.362a7.207,7.207,0,0,1,4.347,5.961c.06.531.826.366.8-.142a6.97,6.97,0,0,0-4.994-6.229.22.22,0,0,0-.155.41" transform="translate(1.793 0.437)" fill="#fff"/>
            <path id="Trazado_13" data-name="Trazado 13" d="M83.776,20.873l.131.053a.458.458,0,0,0,.459-.077.462.462,0,0,0,.061-.652.465.465,0,0,0-.438-.161l-.138.029-.1.033a.325.325,0,0,0-.128.1.207.207,0,0,0-.062.088.316.316,0,0,0-.051.158.49.49,0,0,0,.037.216.435.435,0,0,0,.233.216" transform="translate(1.742 0.418)" fill="#fff"/>
            <path id="Trazado_14" data-name="Trazado 14" d="M29,39.489A5.442,5.442,0,0,0,33.1,34.5c.227-2.73-1.182-5.213-2.966-7.163-.273-.3-.757.1-.484.4a9.335,9.335,0,0,1,2.843,6.308,4.869,4.869,0,0,1-3.608,4.828c-.4.085-.288.705.109.62" transform="translate(0.597 0.568)" fill="#2c3137"/>
            <path id="Trazado_15" data-name="Trazado 15" d="M38.05,6.161c2.63,2.058,6.87.965,8.464-1.867l-.566-.129a5.661,5.661,0,0,0,4.241,4A5.75,5.75,0,0,0,55.9,6.009l-.566-.129a5.262,5.262,0,0,0,8.548,2.906l-.51-.187a6.027,6.027,0,0,0,7.639,4.553l-.369-.339a5.482,5.482,0,0,0,6.642,6.046.315.315,0,0,0-.11-.62,4.85,4.85,0,0,1-5.9-5.368.317.317,0,0,0-.369-.339A5.4,5.4,0,0,1,63.994,8.49a.317.317,0,0,0-.51-.187A4.626,4.626,0,0,1,55.956,5.77a.319.319,0,0,0-.566-.129,5.12,5.12,0,0,1-4.964,1.932,5.016,5.016,0,0,1-3.859-3.519c-.063-.229-.419-.388-.566-.128-1.43,2.541-5.2,3.586-7.586,1.722-.32-.25-.685.262-.366.511" transform="translate(0.791 0.079)" fill="#2c3137"/>
            <path id="Trazado_16" data-name="Trazado 16" d="M37.518,59.008a31.273,31.273,0,0,0,4.011-5.757c.288-.508-.393-1.033-.753-.54a31.251,31.251,0,0,0-3.628,6.1c-.1.24.219.362.371.2" transform="translate(0.775 1.096)" fill="#fff"/>
            <path id="Trazado_17" data-name="Trazado 17" d="M50.859,21.215S56.321,13.987,56.9,16.3s-.914,7.153-.914,7.153L60.341,25.5c1.662.8,4.467,2.306-1.175,2.485l-2.893.148s-1.321,7.326-2.451,7.671c-1.059.324-2.361-6.084-2.361-6.084s-7.536,5.039-7.025,2.475,3.619-7.569,3.619-7.569-6.515-6.178-3.414-5.833c.659.074,6.218,2.427,6.218,2.427" transform="translate(0.914 0.331)" fill="#fff"/>
            <path id="Trazado_18" data-name="Trazado 18" d="M29.689,61.987a3.391,3.391,0,0,0,1.024-.376,2.753,2.753,0,0,1,1.256-.095c.582.082.626-.766.083-.887a2.729,2.729,0,0,0-1.589.117c-.415.156-.962.46-1.019.944a.273.273,0,0,0,.246.3" transform="translate(0.614 1.263)" fill="#fff"/>
            <path id="Trazado_19" data-name="Trazado 19" d="M25.152,65.659a1.929,1.929,0,0,1,1.524-.6.481.481,0,0,0,.09-.958,1.9,1.9,0,0,0-2.132,1.188c-.1.29.272.615.518.371" transform="translate(0.514 1.337)" fill="#fff"/>
            <path id="Trazado_20" data-name="Trazado 20" d="M36.119,11a2.953,2.953,0,0,0,3.228-1.906,3.278,3.278,0,0,0-.886-3.476c-.316-.254-.682.258-.368.511a2.637,2.637,0,0,1,.665,2.741,2.326,2.326,0,0,1-2.58,1.5c-.4-.068-.456.558-.059.626" transform="translate(0.748 0.116)" fill="#421b36"/>
            <path id="Trazado_21" data-name="Trazado 21" d="M35.966,32.3a21.034,21.034,0,0,0,5.7,13.792c.369.4,1.006-.117.653-.541A29.136,29.136,0,0,1,36.1,32.29c-.013-.071-.136-.074-.133.005" transform="translate(0.75 0.673)" fill="#fff"/>
            <path id="Trazado_22" data-name="Trazado 22" d="M91.063,31.305a13.267,13.267,0,0,0-8.977,6.965,4.226,4.226,0,0,0-.525,3,3.2,3.2,0,0,0,3.149,2.059A6.263,6.263,0,0,0,88.372,41.8c1.06-.834,1.976-1.836,3.032-2.672a2.7,2.7,0,0,0,.836,3.444c1.063.748,1.88.333,3-.322a4.976,4.976,0,0,0,2.118-3.121c.551-2.054.8-3.969-.609-5.566a6.6,6.6,0,0,0-5.736-2.145" transform="translate(1.699 0.653)" fill="#ffae7a"/>
            <path id="Trazado_23" data-name="Trazado 23" d="M81.447,25.552a6.577,6.577,0,0,1,9.841,2.615,4.48,4.48,0,0,1,.4,2.741,2.748,2.748,0,0,1-1.725,2.064c-.814.267-.636.3-1.371-.136s-.66-.837-1.242-1.465c2.138.66,1.527,1.526-.546,2.8-1.064.652-1.475,2.136-2.721,2.215A3.1,3.1,0,0,1,81.1,34.539c.538.693,2.655,2.468,2.946,3.3a5.43,5.43,0,0,1-.482,3.562,2.662,2.662,0,0,1-2.375,1.146c-1.458.006-4.657-2.549-5.807-3.445a4.583,4.583,0,0,1-1.824-3.785,3.524,3.524,0,0,1,2.549-3.188,5.405,5.405,0,0,1,5.15-6.161" transform="translate(1.534 0.507)" fill="#ffae7a"/>
            <path id="Trazado_24" data-name="Trazado 24" d="M93.705,30.93a5.719,5.719,0,0,0-4.935,1.093A12.554,12.554,0,0,0,86.8,33.891a17.945,17.945,0,0,0-1.723,2.2c-.852,1.362-1.077,3.315.391,4.352,1.366.965,3.13.5,4.433-.32.926-.581,1.78-1.284,2.652-1.94Q94,37.1,95.437,36.013c.513-.385.011-1.263-.509-.872l-4.132,3.1c-1.083.814-2.341,1.881-3.793,1.711a1.761,1.761,0,0,1-1.472-.965,2.5,2.5,0,0,1,.287-2.175A12.472,12.472,0,0,1,87.175,35a16.156,16.156,0,0,1,1.543-1.64A5.082,5.082,0,0,1,93.437,31.9a.505.505,0,0,0,.268-.974" transform="translate(1.761 0.641)" fill="#2c3137"/>
            <path id="Trazado_25" data-name="Trazado 25" d="M76.421,38.144a8.316,8.316,0,0,0,2.723,3.989,3.726,3.726,0,0,0,4.051.286,2.931,2.931,0,0,0,1.237-1.479,5.205,5.205,0,0,0,.4-2.384,5.265,5.265,0,0,0-.943-2.088c-.451-.691-.958-1.342-1.454-2a8.037,8.037,0,0,0-3.878-3.2c-.62-.2-.885.772-.268.973a7.416,7.416,0,0,1,3.479,3.005c.927,1.227,2.373,2.734,1.993,4.386a2.713,2.713,0,0,1-1.073,1.914,2.464,2.464,0,0,1-2.114.194c-1.693-.58-2.56-2.314-3.175-3.864-.237-.6-1.214-.337-.974.268" transform="translate(1.594 0.652)" fill="#2c3137"/>
            <path id="Trazado_26" data-name="Trazado 26" d="M80.039,26.121a10.017,10.017,0,0,1,7.883,6.413c.216.608,1.193.346.974-.268a11.007,11.007,0,0,0-8.589-7.118c-.636-.094-.911.879-.268.974" transform="translate(1.662 0.525)" fill="#2c3137"/>
            <path id="Trazado_27" data-name="Trazado 27" d="M138.527,178.425s15.623-20.547,24.357-17.45,12.456,20.248,7.94,24.957-31.907,28.076-37.833,22.687,3.687-30.582,3.687-30.582" transform="translate(2.734 3.352)" fill="#e5782c"/>
            <g id="Grupo_6" data-name="Grupo 6" transform="translate(133.5 164.88)" opacity="0.2">
              <g id="Grupo_5" data-name="Grupo 5">
                <g id="Grupo_4" data-name="Grupo 4" clip-path="url(#clip-path-5)">
                  <path id="Trazado_28" data-name="Trazado 28" d="M148.515,198.014c-1.577-.327-.64-1.839.419-2.264,1.7.384.674,2.313-.419,2.264M139.581,186.4c-3.125.635,1.238,4.4.881.72-.305-.208-.489-.579-.881-.72m2.081,2.376-.85.705c-.219,1.582,1.089,1.808,2.062,1.152a1.631,1.631,0,0,0-1.212-1.857m-3.707-4.229c-.307-.151-.61-.3-.9-.442-.565.315-.677.873-.9,1.312l.5.932a1.138,1.138,0,0,0,1.3-1.8m13.582,8.882c-1.83.154-2.122,1.4-.375,2.061a1.067,1.067,0,0,0,.375-2.061m-5.962,6.366c.933,1.056,2.467-.379,1.681-1.546-1.015-.265-2.487.357-1.681,1.546m7.38-4.11-.738,1.159c1.355,2.908,3.488-.739.738-1.159m1.357-8.781-.758-.524a1.313,1.313,0,0,0-1.039,1.859c1.1.716,2.132-.1,1.8-1.335m-23.14,5.039-.4.89a.882.882,0,0,0,.4-.89m18.639,9.624c-.575-1.479-1.259-1.426-2.233-.318a1.131,1.131,0,0,0,2.233.318m-5.763-3.6c1.237-.628,1.681-2.049-.156-2.073-1.218.189-.919,1.817.156,2.073m-8.524-15.734-.689,1.539c.6.134,1.093-.308.689-1.539m10.658,6.55a1.334,1.334,0,0,0-.463,1.974c1.66.585,2.531-2,.463-1.974m-7.678,4.07c1.081.606,1.528.464,2.075-.685-.517-1.608-2.485-.917-2.075.685m-3.5,3.074c-.209.112-.376.2-.523.278-.332-.1-.312-.637-.873-.492-.043,3.77,3.647,1.717,1.4.214m15.534,2.212c-.984,1.356-.1,2.56,1.391,1.6.3-.94-.5-2.1-1.391-1.6M145.512,180.8c.044.386.074.473.379.528a1.25,1.25,0,0,0,1.7-.827c-.636-1.235-2.46-1.453-2.083.3m5.911.91c.686-.187.161-1.1.6-1.59-1.751-1.886-2.964,1.729-.6,1.59m-12.71,2.072c1.279.432,1.427-.292,1.85-1.319-1.061-1.034-3.272.2-1.85,1.319m6.348-18.66c.1-.68.3-1.837-.8-1.81a.607.607,0,0,0-.253,0l-.706,1.575a2.492,2.492,0,0,0,1.763.239m-9.228,26.895a1.2,1.2,0,0,0-2.194.21c.361,1.453,2.483,1.243,2.194-.21m21.818,4.042a1.02,1.02,0,0,0-.583,1.085,1.5,1.5,0,0,0,.206.444c.057-.08.117-.16.162-.236a2.592,2.592,0,0,0,.214-1.293m-24.721,4.027c.033-.413.6-.593.53-1.178-.555-.771-1.272-.964-1.758-.483.093.473.192.958.3,1.451a.919.919,0,0,0,.932.21m8.819,4.661c1.545.26,1.456-2.243-.118-1.851-.743.2-1.052,2.185.118,1.851m2.864-17.949c-1.463-.718-1.654.918-.973,1.882.987.169,2.339-1.389.973-1.882m3.151,5.352c.086.233.184.5.253.685l1,.487.459-.236c-.127-.565-.127-.565.316-1.044a1.018,1.018,0,0,0-2.025.108m-1.3,1.277c-1.094.754-1.5,2.029.156,2.237.6-.478.64-.543.887-1.439a3.963,3.963,0,0,0-1.043-.8M136.2,195.215c.583.574,1.82-.007,2.047-.933a1.125,1.125,0,1,0-2.047.933m11.356-16.8c.709.872.849.9,1.879.485.5-1.033-.007-1.134-.705-1.753a1.566,1.566,0,0,0-1.174,1.268M144.3,200.328l-1.162.733c-.422,2.731,3.717.7,1.162-.733m-3.471,7.743c.3-.13.605-.267.917-.411l-.569-.092a1.373,1.373,0,0,0-.348.5M136.8,181.36c1.238.531,1.424-.9.943-1.718a1.172,1.172,0,0,0-1.109.1l-.511,1.141a.884.884,0,0,0,.677.474m-3.216,20.224a1.826,1.826,0,0,1,.632.725c.449.319,1.268-.168,1.48-.6.357-1.723-1.718-1.543-2.112-.13m-.422-6.145c.662-.8.533-1.7-.3-1.645-.52.285-1.341-.107-1.5.641.364.975.754,1.256,1.8,1m4.628,4.112c.426-.77.088-1.243-.642-1.466-.792.122-.86.7-1.021,1.243.09.88,1.572,1.316,1.663.223m14.033-9.739a.931.931,0,0,0-1.049-.947c-2.333.42.931,3.581,1.049.947m-15.459-.221c-.126,1.519,1.737,1.729,1.691.028.157-1.03-1.985-1.3-1.691-.028m8.663-7.228c-.533-.318-1.189-.778-1.509-.006-.109.415-.726.355-.6.855.613,1.049,2.562.778,2.108-.849m-1.708,9.261c-.41,1.586,1.393,2.127,1.912.573-.723-.961-.8-1.609-1.912-.573m.451-12.44c2.642-.1.554-3.345-.768-1.078.089.534.444.767.768,1.078m13.312,13.307a.657.657,0,0,0,.058.243c-.019-.081-.038-.161-.058-.243m-15.408-8.431a1.822,1.822,0,0,0-1.072,1.193c.86,2.27,2.982-.086,1.072-1.193m8.818-9.07a.7.7,0,0,0-.054,1.26c.35.118.23.406.378.574.533.039.779.047.95-.142q-.315-.818-.63-1.623a1.242,1.242,0,0,0-.644-.068m4.971,15.784c.45-.044.427-.6.843-.393a1.186,1.186,0,0,0,.213-.017q-.184-.646-.392-1.328a1.19,1.19,0,0,0-.693-.272c-.982.567-.727,1.4.029,2.01m-.83,3.883c.686,1.037,1.443.982,2.253.138-.54-1.365-1.712-1.668-2.253-.138m-21.1-4.719c-.405-.486-.678-.855-1.037-.954l-.682,1.519a1.965,1.965,0,0,0,.361.314c.584-.187,1.243-.092,1.358-.879M142,170.357c-1.048.221-1.083.552-1.07,1.551a2.047,2.047,0,0,0,1.53.23c.474-.892.633-1.309-.46-1.78m.469,25.017c.417-1.018-.737-2.206-1.594-1.341-.548.951.786,2.216,1.594,1.341m8.212-9.068c2.756.029.878-3.411-.581-1.1a4.285,4.285,0,0,0,.581,1.1m1.694-3.521c.143.289.268.543.4.8.987.4,1.311.105,1.385-.49q-.208-.583-.422-1.172a.915.915,0,0,0-.591-.14l-.769,1M143.6,206.771q.7-.349,1.42-.726c-.2-1.691-2.87-.456-1.42.726m-5.527-2.73c-.056-.99-.858-1.51-1.7-.9a.982.982,0,1,0,1.7.9m2.779-28.674c.127.421.251.838.369,1.227.27.175.5.33.717.469.857-.3.828-.924.725-1.613-.568-.307-1.123-.615-1.81-.083m6.208,29.388c1.023-.855.075-1.655-.91-1.812-.581.258-.55.789-.6,1.317a1.479,1.479,0,0,0,1.509.5m8.43-6.357a.754.754,0,0,0-.839.715,2.961,2.961,0,0,0,.448.584c.5-.4.951-.788,1.322-1.147a1.21,1.21,0,0,0-.931-.151m-8.571-12.245a2.509,2.509,0,0,0,.645-1.118c-1.841-2.211-3.02,1.08-.645,1.118M136.182,208.57c.285.378.475.632.657.875.252-.045.539-.116.843-.2a4.153,4.153,0,0,0,.313-.916c-.29-.863-1.849-.823-1.814.243m11.607-25.926c.2,1.666,1.853,1.612,1.907-.15a1.081,1.081,0,0,0-1.907.15M134.975,188.5a1.119,1.119,0,0,0,.018-2.048c-1.3.248-.927.583-1.069,1.483.278.423.7.4,1.05.565m11.109-25.8c-.2-.468-.371-.869-.506-1.185a3.489,3.489,0,0,0-.155.4,1.1,1.1,0,0,0,.662.784m1.459,13.465c-.1-.265-.193-.529-.3-.814-3.245-1.231-1.181,3.222.3.814m-7.22-2.115c.088-.92.093-1.021-.549-1.3l-.7,1.563a1.451,1.451,0,0,0,1.25-.265m-.969,5.106c1.374-.237,1.261-1.876-.09-1.842-1.035.316-.923,1.527.09,1.842m14.908,12.588c-.735-.686-1.677-.153-2.019.671.539,1.079,2.429.837,2.019-.671M147.828,169.5l.683.608a2.049,2.049,0,0,0,.551-.262c-.23-.562-.451-1.106-.669-1.634a2.129,2.129,0,0,0-.473.13c-.029.366-.059.734-.093,1.159m-9.611,6.887a.832.832,0,0,0-.023-.113l-.075.166c.033-.018.066-.033.1-.053m4.439-10.069-.545,1.216.084.035a1.006,1.006,0,0,0,.461-1.251m3.954,4.034-.7.22c-.462.741-.388,2.084.753,1.789l.638-.775c-.173-.46-.056-1.028-.693-1.233M139.67,195.94l-.95.244-.271.825c.688,1.575,3.332-.259,1.221-1.069m5.877-29.417.844,1.033c.575,0,.878-.544.984-1.093-.421-1.181-1.677-1.35-1.828.06m-11.678,39.083c.217.46-.014.968.321,1.473,2.249.131,1.47-2.833-.321-1.473m4.641-4.528c-.1.865.377.9.89,1.277,2.046.351.505-2.7-.89-1.277m1.882,5.171c-.447-.911-.447-.911-1.454-.759-.92,1.43.768,2.4,1.454.759m-7.046-2.192c-.494-.407-.14-.977-.616-1.349l-.072.026c.156.614.317,1.217.487,1.793.183-.054.287-.188.2-.47m9.169-4.439c-.028-.405-.051-.751-.077-1.135-.73-.531-1.3.279-1.706.842.65,1,.924.883,1.782.293m7.173-12.279c-.735-.9-1.764-.987-1.983.315.69.93,1.6.786,1.983-.315M148.068,173c-.257.487.224.827.076,1.257,2.118.988,1.945-2.019-.076-1.257m4.189,28.366a2.886,2.886,0,0,0,.162.282c.3-.2.589-.4.87-.6-.453-.09-.85-.2-1.032.317m-10.364-21.51-.776.509c-.021.347-.037.622-.056.937h1.344l.528-.763-1.04-.684m1.654-11.442c-.985,1.592.951,1.306,1.651.545-.182-.6-.379-.668-1.651-.545m-.156,4.74c-.482.982.635,1.083,1.391,1.146.829-1.1-.662-1.38-1.391-1.146" transform="translate(-130.772 -161.51)" fill="#421b36"/>
                </g>
              </g>
            </g>
            <path id="Trazado_29" data-name="Trazado 29" d="M176.014,149.935s.191-2.385-2.957-1.908-6.619,7.25-7.078,9.253,0,6.772,0,6.772a6.468,6.468,0,0,0-2.651,4.579c-.287,3.052,4.2,8.013,7.631,6.868s14.785-13.737,16.406-15.072-.572-4.483-.572-4.483,2.721-3.052,1.169-5.247a8.419,8.419,0,0,0-11.948-.763" transform="translate(3.407 3.083)" fill="#ffae7a"/>
            <path id="Trazado_30" data-name="Trazado 30" d="M175.466,149.546c-3.462,3.532-7.942,8.027-7.813,13.385.053,2.184,1.321,4.509,3.622,4.955a3.27,3.27,0,0,0,3.9-3.381c-.076-.637-1.086-.645-1.01,0a2.18,2.18,0,0,1-1.458,2.293,2.693,2.693,0,0,1-2.734-.693c-1.689-1.557-1.473-4.068-.831-6.065,1.252-3.895,4.238-6.926,7.035-9.78.454-.465-.258-1.179-.715-.714" transform="translate(3.498 3.117)" fill="#2c3137"/>
            <path id="Trazado_31" data-name="Trazado 31" d="M169.179,159.758a8.684,8.684,0,0,1,11.108,2.272c.4.511,1.11-.207.715-.715a9.682,9.682,0,0,0-12.332-2.43.505.505,0,0,0,.509.872" transform="translate(3.514 3.289)" fill="#2c3137"/>
            <path id="Trazado_32" data-name="Trazado 32" d="M172.775,153.839a8.8,8.8,0,0,1,10.779,2.589c.387.512,1.264.01.872-.509a9.836,9.836,0,0,0-12.161-2.951c-.586.282-.075,1.153.509.872" transform="translate(3.588 3.171)" fill="#2c3137"/>
            <path id="Trazado_33" data-name="Trazado 33" d="M136.732,406.278A24.408,24.408,0,0,1,134.4,404.9a28.843,28.843,0,0,1-7.879-10.829c-1.854-4.747,3.316-23.262,3.756-23.728l-20.2,4.824c1.886,16.541,1.89,16.629,1.319,21.957-.573,5.357-4.726,18.6-3.005,21.814s25.38,6.845,34.25,7.362c13.781.8,18.51-5.185,18.545-6.952.025-1.213-20.483-10.376-24.452-13.071" transform="translate(2.253 7.726)" fill="#2b3137"/>
            <path id="Trazado_34" data-name="Trazado 34" d="M155.741,415.451l-19.013-9.8a22.922,22.922,0,0,1-5.923-5.363s-5.55,4.64-11.3,4.728a13.07,13.07,0,0,1-9.068-3.28c-1.035,4.539-1.968,8.865-2.327,11.99,0,0,11.752,8.532,27.112,8.911s24.074-5.359,24.074-5.359Z" transform="translate(2.255 8.351)" fill="#e5782c"/>
            <path id="Trazado_35" data-name="Trazado 35" d="M160.915,418.048a13.722,13.722,0,0,0-1.62-1.042h0c-.285.186-8.934,5.551-24.036,5.183-15.36-.376-27.149-8.736-27.149-8.736-.224,2.04-.226,3.785.25,4.67a1.442,1.442,0,0,0,.224.3,3.6,3.6,0,0,0,.81.614c5,2.949,25.184,5.983,33.219,6.453,10.6.621,15.726-2.745,17.667-5.146.971-1.267,1.078-1.949.636-2.295" transform="translate(2.252 8.626)" fill="#fff"/>
            <path id="Trazado_36" data-name="Trazado 36" d="M131.027,401.092s1.021-5.2-1.928-8.289c-2.711-2.84-12.578,1.662-12.138,5.223.39,3.161,5.323,6.65,2.488,7.169s-8.52-3.01-8.809-3.083v5.327l7.341,4.986h8.2l5.072-4.415,4.466-2.77a29.556,29.556,0,0,1-4.692-4.147" transform="translate(2.308 8.176)" fill="#e5782c"/>
            <path id="Trazado_37" data-name="Trazado 37" d="M127.339,407.066a7.385,7.385,0,0,1,5.782-2.646.562.562,0,0,0,0-1.124,7.927,7.927,0,0,0-6.464,3.088c-.372.478.275,1.163.682.682" transform="translate(2.64 8.414)" fill="#fff"/>
            <path id="Trazado_38" data-name="Trazado 38" d="M138.521,406.623a7.407,7.407,0,0,0-6.742,3.733c-.343.656.554,1.463,1.081.834a11.89,11.89,0,0,1,2.5-2.466,12.8,12.8,0,0,1,3.255-1.391.363.363,0,0,0-.1-.71" transform="translate(2.748 8.483)" fill="#fff"/>
            <path id="Trazado_39" data-name="Trazado 39" d="M143.155,409.18c-2.309-.322-4.909,1.652-6.265,3.341-.565.7.391,1.716,1.015,1.014a12.461,12.461,0,0,1,2.531-2.214c.888-.576,1.953-.842,2.811-1.438.236-.163.267-.652-.092-.7" transform="translate(2.852 8.536)" fill="#fff"/>
            <path id="Trazado_40" data-name="Trazado 40" d="M108.908,408.615s13.567,5.4,15.94,8.189,2.518,4.831,2.518,4.831l3.062.508s.3-4.514-4.96-7.919-15.982-8.414-15.982-8.414Z" transform="translate(2.272 8.466)" fill="#fff"/>
            <path id="Trazado_41" data-name="Trazado 41" d="M130.549,400.838c-2.407.243-5.753,1.29-6.995,3.572a.48.48,0,0,0,.652.651c1.123-.574,2-1.588,3.065-2.273a25.763,25.763,0,0,1,3.31-1.832.063.063,0,0,0-.032-.117" transform="translate(2.576 8.363)" fill="#421b36"/>
            <path id="Trazado_42" data-name="Trazado 42" d="M109.982,402.152c-.675,3.086-1.182,6.213-1.615,9.342-.19,1.371-.366,2.745-.491,4.124a9.66,9.66,0,0,0-.07,2.6c.322,1.68,3.308,2.444,4.7,2.9a75.294,75.294,0,0,0,8.192,2.045,184.76,184.76,0,0,0,18.362,2.788c6.011.6,12.568.78,18.041-2.187a13.036,13.036,0,0,0,2.686-1.9c.8-.743,1.895-1.87,1.888-3.022-.006-1.073-1.273-1.395-2.074-1.749-1.225-.542-2.519-1.006-3.69-1.662a.51.51,0,0,0-.515.881c.912.511,1.912.885,2.869,1.3.473.205,2.281.7,2.381,1.245.145.782-1.225,1.975-1.787,2.47a12.225,12.225,0,0,1-2.355,1.6c-5.134,2.741-11.293,2.6-16.921,2.054s-11.254-1.385-16.815-2.448c-2.672-.51-5.339-1.076-7.964-1.8a16.978,16.978,0,0,1-5.471-2.1c-.779-.57-.564-1.386-.493-2.354.1-1.424.282-2.842.475-4.256.437-3.216.957-6.43,1.651-9.6.14-.64-.843-.914-.984-.272" transform="translate(2.248 8.382)" fill="#e5782c"/>
            <path id="Trazado_43" data-name="Trazado 43" d="M27.724,226.618a24.392,24.392,0,0,1,2.628.663,28.844,28.844,0,0,1,10.612,8.17c3.117,4.031,3.374,23.253,3.083,23.824l18.021-10.32c-6.471-15.34-6.5-15.422-7.454-20.695-.96-5.3-.708-19.181-3.264-21.777s-26.279.586-34.936,2.589C2.965,212.183.114,219.263.579,220.968c.319,1.17,22.577,4.184,27.145,5.65" transform="translate(0.011 4.287)" fill="#2b3137"/>
            <path id="Trazado_44" data-name="Trazado 44" d="M6.675,222.519l21,4.042a22.938,22.938,0,0,1,7.2,3.476s4.018-6.016,9.513-7.722a13.066,13.066,0,0,1,9.625.592c-.286-4.647-.609-9.061-1.146-12.159,0,0-13.681-4.876-28.524-.91S2.752,221.763,2.752,221.763Z" transform="translate(0.057 4.345)" fill="#e5782c"/>
            <path id="Trazado_45" data-name="Trazado 45" d="M.95,221.28a13.738,13.738,0,0,0,1.849.544h0c.221-.259,7.006-7.844,21.6-11.748,14.843-3.967,28.511.731,28.511.731-.36-2.02-.85-3.7-1.557-4.41a1.451,1.451,0,0,0-.3-.225,3.631,3.631,0,0,0-.949-.361c-5.627-1.42-25.848,1.357-33.692,3.172C6.072,211.374,2.1,216.048.914,218.9c-.576,1.489-.485,2.174.036,2.382" transform="translate(0.011 4.286)" fill="#fff"/>
            <path id="Trazado_46" data-name="Trazado 46" d="M33.9,229.376s.486,5.277,4.187,7.409c3.4,1.961,11.6-5.139,10.174-8.431-1.265-2.923-6.982-4.881-4.407-6.176s9.023.486,9.32.475l-1.5-5.11-8.45-2.715-7.867,2.311L31.735,222.8l-3.5,3.916a29.575,29.575,0,0,1,5.671,2.656" transform="translate(0.589 4.482)" fill="#e5782c"/>
            <path id="Trazado_47" data-name="Trazado 47" d="M35.33,222.32a7.383,7.383,0,0,1-4.8,4.168.563.563,0,0,0,.317,1.079,7.926,7.926,0,0,0,5.331-4.786c.222-.563-.591-1.038-.846-.461" transform="translate(0.629 4.633)" fill="#fff"/>
            <path id="Trazado_48" data-name="Trazado 48" d="M24.726,225.913a7.406,7.406,0,0,0,5.416-5.482c.145-.727-.944-1.247-1.272-.5a11.843,11.843,0,0,1-1.706,3.071,12.751,12.751,0,0,1-2.73,2.252.363.363,0,0,0,.292.654" transform="translate(0.506 4.581)" fill="#fff"/>
            <path id="Trazado_49" data-name="Trazado 49" d="M19.552,224.762c2.306-.343,4.245-2.969,5.069-4.972.344-.835-.858-1.536-1.259-.687a12.455,12.455,0,0,1-1.8,2.839c-.69.8-1.636,1.358-2.292,2.171-.181.224-.074.7.286.648" transform="translate(0.4 4.563)" fill="#fff"/>
            <path id="Trazado_50" data-name="Trazado 50" d="M52.951,215.768s-14.54-1.361-17.6-3.365-3.778-3.925-3.778-3.925l-3.081.375s.983,4.416,6.992,6.2,17.7,3.569,17.7,3.569Z" transform="translate(0.594 4.349)" fill="#fff"/>
            <path id="Trazado_51" data-name="Trazado 51" d="M34,229.207c2.242-.912,5.156-2.859,5.7-5.4a.48.48,0,0,0-.809-.442c-.917.869-1.473,2.089-2.3,3.046a25.848,25.848,0,0,1-2.659,2.69.063.063,0,0,0,.063.1" transform="translate(0.708 4.657)" fill="#421b36"/>
            <path id="Trazado_52" data-name="Trazado 52" d="M54.383,222.42c-.223-3.151-.618-6.295-1.083-9.418-.2-1.369-.422-2.738-.691-4.1a9.684,9.684,0,0,0-.666-2.515c-.782-1.522-3.863-1.413-5.327-1.454a75.089,75.089,0,0,0-8.436.347,184.632,184.632,0,0,0-18.4,2.5C13.839,208.9,7.5,210.577,3.083,214.965a13.056,13.056,0,0,0-2.041,2.583c-.556.938-1.29,2.329-.96,3.431.309,1.028,1.614.979,2.483,1.093,1.329.175,2.7.254,4.01.554a.51.51,0,0,0,.245-.99c-1.019-.233-2.084-.31-3.12-.441-.51-.064-2.387-.033-2.635-.524-.359-.71.619-2.241,1.018-2.875a12.291,12.291,0,0,1,1.809-2.2c4.154-4.076,10.1-5.673,15.656-6.74s11.189-1.843,16.823-2.39c2.708-.263,5.427-.473,8.149-.52a16.935,16.935,0,0,1,5.839.473c.91.327.932,1.171,1.137,2.119.3,1.4.531,2.806.744,4.217.487,3.209.894,6.44,1.123,9.678.046.653,1.066.638,1.02-.017" transform="translate(0 4.275)" fill="#e5782c"/>
            <path id="Trazado_53" data-name="Trazado 53" d="M104.307,246.779s-4.367,48.773-2.714,79.179-1.347,62.6,7.314,65.114,30.128,4.63,34.725-4.86-2.965-126.226-3.293-131.827c-.4-6.825-4.338-55.482-5.341-57.264s-20.711-2.465-20.711-2.465Z" transform="translate(2.112 4.061)" fill="#2b3137"/>
            <path id="Trazado_54" data-name="Trazado 54" d="M96.759,192.255s-16.538,12.629-21.1,24.9S64.088,258.9,64.088,258.9s2.805-25.6-6.314-26.3-19.64,14.73-21.394,23.849,3.157,64.886,23.849,68.043S110.121,241.3,110.121,241.3l5.526-46.6Z" transform="translate(0.752 4.011)" fill="#2b3137"/>
            <path id="Trazado_55" data-name="Trazado 55" d="M97.717,270.456c4.951-11.289,9.329-22.838,13.83-34.31q1.625-4.142,3.26-8.281c.24-.6-.736-.867-.974-.268-4.505,11.358-8.883,22.767-13.508,34.077-1.132,2.769-2.278,5.533-3.479,8.273-.259.589.611,1.1.872.509" transform="translate(2.019 4.741)" fill="#e5782c"/>
            <path id="Trazado_56" data-name="Trazado 56" d="M57.026,289.539,67.6,244.019c.147-.632-.826-.9-.974-.268l-10.578,45.52c-.147.633.827.9.974.268" transform="translate(1.169 5.078)" fill="#e5782c"/>
            <path id="Trazado_57" data-name="Trazado 57" d="M110.69,241.37q-1.655,28.056-1.436,56.179.227,28.1,2.338,56.15,1.187,15.759,2.969,31.463c.072.638,1.083.645,1.01,0q-3.162-27.926-4.455-56.021-1.286-28.075-.687-56.193.337-15.8,1.272-31.577c.039-.649-.972-.647-1.01,0" transform="translate(2.279 5.025)" fill="#e5782c"/>
            <path id="Trazado_58" data-name="Trazado 58" d="M130.864,136.272c1.053.291,6.062.479,12.4,5.891s8.211,23.378,7.173,28.931-9.653,11.455-9.653,11.455Z" transform="translate(2.73 2.843)" fill="#e5782c"/>
            <path id="Trazado_59" data-name="Trazado 59" d="M129.454,84.329c-6.444-2.1-14.783-.064-20,4.423s-8.482,11.116-10,18.006c-.687,3.129-1.029,6.469-.033,9.505s3.624,5.666,6.69,5.709a6.934,6.934,0,0,0,3.528,7.679,6.351,6.351,0,0,0,7.823-2.34,48.243,48.243,0,0,0,10.6,5.117,19.017,19.017,0,0,0,11.522.2,12.811,12.811,0,0,0,8.212-8.071,14.434,14.434,0,0,0,12,1.309,7.239,7.239,0,0,0,3.129-1.892,3.961,3.961,0,0,0,1-3.511c-.457-1.788-2.3-2.714-3.977-3.31s-3.551-1.227-4.391-2.854a7.437,7.437,0,0,0,6.184-.331c.68-.359,1.383-.986,1.307-1.779-.088-.9-1.071-1.326-1.881-1.637-5.663-2.173-8.943-12.783-12.215-17.386" transform="translate(2.061 1.742)" fill="#2b3137"/>
            <path id="Trazado_60" data-name="Trazado 60" d="M148.337,93.15a19.475,19.475,0,0,0-8.646-6.9,24.872,24.872,0,0,0-11.672-1.925l.277,39.4,14.42-9.476c1.335-3.57,6.943-7.421,7.692-10.4a13.657,13.657,0,0,0-2.071-10.7" transform="translate(2.671 1.758)" fill="#2b3137"/>
            <path id="Trazado_61" data-name="Trazado 61" d="M114.646,92.546c7.2-9.684,22.489-8.107,27.6,2.828,1.616,3.459,2.263,8.02,2.019,14.088-.681,16.932-15.016,16.666-15.016,16.666l-1.489,10.936-3.177,4.444-11.019-5.044-.477-18.514s-1.731-12.644-.52-20.612a10.736,10.736,0,0,1,2.083-4.791" transform="translate(2.339 1.797)" fill="#ffae7a"/>
            <path id="Trazado_62" data-name="Trazado 62" d="M111.918,131.942s.884-4.387,4.094-4.7,14.187,0,15.016,2.692,0,7.352,0,7.352Z" transform="translate(2.335 2.653)" fill="#e5782c"/>
            <path id="Trazado_63" data-name="Trazado 63" d="M120.7,94.989c1.846-1.8,4.12-2.021,6.521-2.256.55-.054.8-.856.173-1.035-2.711-.768-5.419.909-7.094,2.873-.236.277.127.685.4.419" transform="translate(2.508 1.909)" fill="#2c3137"/>
            <path id="Trazado_64" data-name="Trazado 64" d="M121.314,122.9a13.714,13.714,0,0,0,9.647,2.9.465.465,0,0,0,0-.929,24.41,24.41,0,0,1-9.605-2.046c-.039-.016-.075.045-.042.071" transform="translate(2.531 2.563)" fill="#2b3137"/>
            <path id="Trazado_65" data-name="Trazado 65" d="M103.263,97.455c-2.638,7.163-6.621,28.35-1.221,33.746l17.747.39a5.184,5.184,0,0,0,4.939-7.111c-3.052-7.457-9.1-17.338-9.1-24.119,0-5.247,5.157-5.99,13.505-14.1V84.017c-4.626-1.619-10.228-.665-14.594,1.562a22.162,22.162,0,0,0-6.8,5.09s-3.337,3.708-4.471,6.787" transform="translate(2.073 1.736)" fill="#2c3137"/>
            <g id="Grupo_9" data-name="Grupo 9" transform="translate(121.206 104.724)" opacity="0.3">
              <g id="Grupo_8" data-name="Grupo 8">
                <g id="Grupo_7" data-name="Grupo 7" clip-path="url(#clip-path-6)">
                  <path id="Trazado_66" data-name="Trazado 66" d="M125.17,104.251c0,.921-1.441,1.667-3.22,1.667s-3.221-.746-3.221-1.667,1.442-1.667,3.221-1.667,3.22.746,3.22,1.667" transform="translate(-118.729 -102.584)" fill="#421b36"/>
                </g>
              </g>
            </g>
            <g id="Grupo_12" data-name="Grupo 12" transform="translate(138.947 104.724)" opacity="0.3">
              <g id="Grupo_11" data-name="Grupo 11">
                <g id="Grupo_10" data-name="Grupo 10" clip-path="url(#clip-path-6)">
                  <path id="Trazado_67" data-name="Trazado 67" d="M142.548,104.251c0,.921-1.441,1.667-3.22,1.667s-3.221-.746-3.221-1.667,1.442-1.667,3.221-1.667,3.22.746,3.22,1.667" transform="translate(-136.107 -102.584)" fill="#421b36"/>
                </g>
              </g>
            </g>
            <path id="Trazado_68" data-name="Trazado 68" d="M129.064,84.977c1.634-1.3,3.047-2.7,5.134-3.257a11.317,11.317,0,0,1,6.006.37.356.356,0,0,0,.273-.647c-3.7-2.094-9.894-.747-11.519,3.472-.027.066.063.1.107.062" transform="translate(2.69 1.679)" fill="#421b36"/>
            <path id="Trazado_69" data-name="Trazado 69" d="M136.612,77.707a9.408,9.408,0,0,0-9.174,8.011c-.107.6.8.848.91.251a9.978,9.978,0,0,1,8.289-8.079c.1-.017.079-.186-.024-.183" transform="translate(2.658 1.621)" fill="#421b36"/>
            <path id="Trazado_70" data-name="Trazado 70" d="M108.488,104.474a2.959,2.959,0,0,0-3.006.373,4.668,4.668,0,0,0-1.64,2.661,5.482,5.482,0,0,0,1.106,4.968,4.057,4.057,0,0,0,4.824.912Z" transform="translate(2.163 2.174)" fill="#ffae7a"/>
            <path id="Trazado_71" data-name="Trazado 71" d="M106.326,109.255a2.872,2.872,0,0,1,1.417-.349,1.854,1.854,0,0,1,1.272.667.485.485,0,0,0,.758-.585,2.265,2.265,0,0,0-1.942-1.021,2.036,2.036,0,0,0-1.063.315c-.342.232-.392.508-.566.85-.037.074.044.179.122.123" transform="translate(2.215 2.252)" fill="#421b36"/>
            <path id="Trazado_72" data-name="Trazado 72" d="M138.146,93.356a4.015,4.015,0,0,0-6.492.678c-1.956,3.4-.3,8.838,1.7,11.854a.554.554,0,0,0,.957-.559c-1.156-2.421-2.281-4.91-2.338-7.651-.076-3.579,2.629-5.758,5.9-3.973a.223.223,0,0,0,.268-.348" transform="translate(2.728 1.92)" fill="#2b3137"/>
            <path id="Trazado_73" data-name="Trazado 73" d="M133.6,108.471a25.272,25.272,0,0,0-5.209-1.7,2.64,2.64,0,0,0-2.358.3,2.17,2.17,0,0,0-.51,1.785,4.966,4.966,0,0,0,8.749,2.774,2.51,2.51,0,0,0,.62-1.233c.063-.462.328-1.354-1.29-1.932" transform="translate(2.618 2.225)" fill="#2b3137"/>
            <path id="Trazado_74" data-name="Trazado 74" d="M148.866,96.454a16.9,16.9,0,0,0,5.521,7.28c3.144,2.317,7.1,2.531,10.287,4.661.635.423,1.433-.582.827-1.071-2.484-2-5.668-2.148-8.469-3.527a16.446,16.446,0,0,1-7.481-7.632c-.184-.376-.849-.106-.685.289" transform="translate(3.105 2.002)" fill="#2b3137"/>
            <path id="Trazado_75" data-name="Trazado 75" d="M95.682,193.521s-6.86-4.928-7.945-11.193,9.22-49.556,16.271-50.508,19.706,1.229,25.13,3.122,16.851,19,16.832,28.075c-.01,4.535-1.423,13.513-3.171,21.544s-3.83,15.116-5.179,15.862c-2.7,1.492-41.937-6.9-41.937-6.9" transform="translate(1.829 2.745)" fill="#e5782c"/>
            <path id="Trazado_76" data-name="Trazado 76" d="M112.75,136.6s-10.533-84.43-18.33-84.43S75.751,57.078,74,67.951s18.058,92.658,18.058,92.658" transform="translate(1.542 1.088)" fill="#e5782c"/>
            <path id="Trazado_77" data-name="Trazado 77" d="M87.391,40.029a7.356,7.356,0,0,0-1.373,11.731c.469.45,1.185-.263.716-.715A6.332,6.332,0,0,1,87.9,40.9a.505.505,0,0,0-.509-.872" transform="translate(1.746 0.834)" fill="#2c3137"/>
            <path id="Trazado_78" data-name="Trazado 78" d="M92.276,156.984a22.237,22.237,0,0,0,22.2-14.8c.216-.615-.758-.879-.974-.268a21.218,21.218,0,0,1-21.224,14.055c-.649-.038-.647.972,0,1.01" transform="translate(1.915 2.954)" fill="#2b3137"/>
            <path id="Trazado_79" data-name="Trazado 79" d="M126.758,101.069a2.92,2.92,0,0,0-2.51-2.41c-1.122-.151-2.757.418-3.045,1.634a.621.621,0,0,0,.9.693c.686-.406,1.076-1.028,1.969-1.039a2.409,2.409,0,0,1,2.068,1.381c.186.357.685.1.617-.259" transform="translate(2.528 2.058)" fill="#2b3137"/>
            <path id="Trazado_80" data-name="Trazado 80" d="M135.047,101.358c.251-.572.779-1.418,1.5-1.435s.959.741,1.478,1.071a.619.619,0,0,0,.923-.53c.018-1.179-1.515-2.031-2.576-1.833a2.6,2.6,0,0,0-1.949,2.557c-.026.323.494.476.628.17" transform="translate(2.804 2.057)" fill="#2b3137"/>
            <path id="Trazado_81" data-name="Trazado 81" d="M113.424,137.518a5.683,5.683,0,0,0-.072-3.352,20.405,20.405,0,0,1-.762-3.7,57.456,57.456,0,0,1,.3-7.656c.039-.649-.972-.647-1.01,0a62.081,62.081,0,0,0-.32,7.4,15.307,15.307,0,0,0,.554,3.306,6.088,6.088,0,0,1,.333,3.73c-.215.615.761.879.974.268" transform="translate(2.327 2.552)" fill="#2b3137"/>
            <path id="Trazado_82" data-name="Trazado 82" d="M135.635,200.289c3.457-.4,5.044-3.637,5.8-6.667.69-2.758,1.2-5.568,1.671-8.37a183.679,183.679,0,0,0,2.319-20.2,91.638,91.638,0,0,0,.056-10.774c-.04-.646-1.05-.65-1.011,0a112.192,112.192,0,0,1-.664,18.327,176.837,176.837,0,0,1-2.674,17.743c-.668,3.225-1.409,8.466-5.5,8.936-.638.072-.645,1.084,0,1.01" transform="translate(2.82 3.208)" fill="#421b36"/>
            <path id="Trazado_83" data-name="Trazado 83" d="M116.662,134.465a61.9,61.9,0,0,0,15.306,2.92c.649.041.647-.97,0-1.01a60.773,60.773,0,0,1-15.037-2.884c-.62-.2-.885.773-.268.974" transform="translate(2.427 2.784)" fill="#2c3137"/>
          </g>
        </g>
      </g>
    </g>
    <g id="Grupo_22" data-name="Grupo 22" transform="translate(285.99 586.344)">
      <g id="Grupo_21" data-name="Grupo 21" clip-path="url(#clip-path-8)">
        <path id="Trazado_103" data-name="Trazado 103" d="M52.6,44.2c1.534-12.523-1.2-26.12-9.877-35.275C34.276.016,20.955-3.605,9.382,4.561c-.255.171-.5.357-.746.546-.073.055-.146.1-.218.16l.02-.008A22.429,22.429,0,0,0,1.552,16.221,38.542,38.542,0,0,0,4.628,45.347,38.539,38.539,0,0,0,27.475,63.67c4.556,1.315,9.6,1.733,13.934-.2,7.1-3.163,10.245-11.555,11.19-19.275" fill="#fff"/>
        <path id="Trazado_104" data-name="Trazado 104" d="M49.886,65.669a64.5,64.5,0,0,0-7.361-2.9l-3.345,1.79A4.809,4.809,0,0,0,38.6,67.8a9.9,9.9,0,0,0,1.132,3.142c.428.813,1.074,1.7,1.993,1.695a1.848,1.848,0,0,0,1.625-1.5,5.413,5.413,0,0,0-.145-2.362,5.125,5.125,0,0,0,1.55,1.936A1.552,1.552,0,0,0,47.019,68.6a5.128,5.128,0,0,0-1.457-1.4,7,7,0,0,0,4.366.683,1.334,1.334,0,0,0,1.1-.671c.249-.662-.506-1.238-1.146-1.537" fill="#fff"/>
        <path id="Trazado_105" data-name="Trazado 105" d="M9.481,9.02c-5.786,7.4-7.8,18.294-3.937,27.033.327.74,1.611.209,1.319-.556C3.586,26.913,5.257,17.163,10.018,9.434c.2-.322-.294-.725-.537-.414" fill="#dbe4eb"/>
        <path id="Trazado_106" data-name="Trazado 106" d="M6.663,39.259c.218.663.26,1.405.415,2.089.245,1.075,2,.445,1.438-.606-.152-.286-.3-.578-.471-.855a6.529,6.529,0,0,1-.524-.865c-.214-.511-1.042-.322-.858.237" fill="#dbfffe"/>
        <path id="Trazado_107" data-name="Trazado 107" d="M37.735,65.436a8.29,8.29,0,0,0,7.173-2.514c.673-.673-.335-1.657-1.036-1.036a11.821,11.821,0,0,1-6.137,2.65.47.47,0,0,0,0,.9" fill="#dbe4eb"/>
      </g>
    </g>
    <g id="Grupo_24" data-name="Grupo 24" transform="translate(565.496 529.661)">
      <g id="Grupo_23" data-name="Grupo 23" transform="translate(0 0)" clip-path="url(#clip-path-9)">
        <path id="Trazado_108" data-name="Trazado 108" d="M25.541,46.884C34.4,42.244,42.029,34.343,44.088,24.561c2-9.516-1.635-19.831-12.169-23.7C31.692.775,31.46.7,31.227.623c-.068-.023-.133-.048-.2-.07l.013.008a17.778,17.778,0,0,0-10.246.448A30.163,30.163,0,0,0,1.535,39.274c1.194,3.562,3.193,7.038,6.4,8.993,5.261,3.207,12.146,1.475,17.6-1.384" transform="translate(0 0)" fill="#fff"/>
        <path id="Trazado_109" data-name="Trazado 109" d="M10.678,63.591a50.948,50.948,0,0,0-1.427-6.1L6.578,56.114a3.8,3.8,0,0,0-2.37,1.08,7.836,7.836,0,0,0-1.539,2.152,2.059,2.059,0,0,0-.207,2.063,1.464,1.464,0,0,0,1.711.382,4.28,4.28,0,0,0,1.474-1.157,4.065,4.065,0,0,0-.564,1.882A1.394,1.394,0,0,0,6.236,63.91a1.381,1.381,0,0,0,1.243-.871,4.046,4.046,0,0,0,.257-1.581,5.545,5.545,0,0,0,1.521,3.154,1.055,1.055,0,0,0,.935.417c.543-.136.579-.888.486-1.439" transform="translate(-0.354 -8.808)" fill="#fff"/>
        <path id="Trazado_110" data-name="Trazado 110" d="M30.793,3.463c-7.367-.448-15.41,3.159-19.332,9.564-.4.649.588,1.2,1.01.59,4.089-5.948,11.211-9.219,18.323-9.6a.277.277,0,0,0,0-.554" transform="translate(-1.784 -0.538)" fill="#dbe4eb"/>
        <path id="Trazado_111" data-name="Trazado 111" d="M9.291,17.478a4.886,4.886,0,0,1-.569.551c-.188.179-.362.374-.538.565a.637.637,0,1,0,1,.773c.133-.26.271-.518.384-.787a4.591,4.591,0,0,1,.345-.738c.256-.4-.351-.723-.623-.364" transform="translate(-1.256 -2.719)" fill="#dbe4eb"/>
        <path id="Trazado_112" data-name="Trazado 112" d="M5.956,55.438a6.491,6.491,0,0,0,4.793,3.476c.74.132,1.069-.962.316-1.145a9.39,9.39,0,0,1-4.515-2.79c-.325-.323-.756.084-.593.459" transform="translate(-0.929 -8.612)" fill="#dbe4eb"/>
        <path id="Trazado_113" data-name="Trazado 113" d="M.38,31.658c1.515,5.451,6.806,10.1,11.425,13.015a32.936,32.936,0,0,0,17.552,5.072.422.422,0,0,0,0-.844,33.36,33.36,0,0,1-17.039-5.108C7.171,40.553,4.259,36.144.439,31.624c-.024-.028-.068,0-.059.034" transform="translate(-0.059 -4.962)" fill="#dbe4eb"/>
        <path id="Trazado_114" data-name="Trazado 114" d="M6.3,15.317C12.846,26.756,27.015,35.8,40.032,37.561c.465.063.688-.607.2-.729-6.761-1.7-13.058-3.741-18.948-7.6-5.821-3.812-10.4-8.741-14.832-14.039-.075-.09-.214.025-.158.122" transform="translate(-0.986 -2.38)" fill="#dbe4eb"/>
        <path id="Trazado_115" data-name="Trazado 115" d="M19.552,3.534C24.475,13.32,37.217,19.016,47.61,19.649c.391.024.372-.551,0-.6a41.51,41.51,0,0,1-15.83-5.3C27,10.948,23.715,7.138,19.869,3.289a.2.2,0,0,0-.318.245" transform="translate(-3.065 -0.507)" fill="#dbe4eb"/>
      </g>
    </g>
    <g id="Grupo_26" data-name="Grupo 26" transform="translate(302.487 503)">
      <g id="Grupo_25" data-name="Grupo 25" clip-path="url(#clip-path-10)">
        <path id="Trazado_116" data-name="Trazado 116" d="M7.257,8.765,10.135,0,13.4,8.765s6.53,1.111,6.607,1.72-6.251,2.459-6.251,2.459-2.654,8.5-3.625,6.574a36.677,36.677,0,0,1-1.911-6.185S0,11.624,0,10.786c0-.908,7.257-2.021,7.257-2.021" fill="#fff"/>
      </g>
    </g>
    <g id="Grupo_27" data-name="Grupo 27" transform="translate(341.487 576)">
      <g id="Grupo_25-2" data-name="Grupo 25" clip-path="url(#clip-path-10)">
        <path id="Trazado_116-2" data-name="Trazado 116" d="M7.257,8.765,10.135,0,13.4,8.765s6.53,1.111,6.607,1.72-6.251,2.459-6.251,2.459-2.654,8.5-3.625,6.574a36.677,36.677,0,0,1-1.911-6.185S0,11.624,0,10.786c0-.908,7.257-2.021,7.257-2.021" fill="#fff"/>
      </g>
    </g>
    <g id="Grupo_28" data-name="Grupo 28" transform="translate(505.487 529.661)">
      <g id="Grupo_25-3" data-name="Grupo 25" clip-path="url(#clip-path-10)">
        <path id="Trazado_116-3" data-name="Trazado 116" d="M7.257,8.765,10.135,0,13.4,8.765s6.53,1.111,6.607,1.72-6.251,2.459-6.251,2.459-2.654,8.5-3.625,6.574a36.677,36.677,0,0,1-1.911-6.185S0,11.624,0,10.786c0-.908,7.257-2.021,7.257-2.021" fill="#fff"/>
      </g>
    </g>
    <g id="Grupo_29" data-name="Grupo 29" transform="translate(525.498 622.661)">
      <g id="Grupo_25-4" data-name="Grupo 25" clip-path="url(#clip-path-10)">
        <path id="Trazado_116-4" data-name="Trazado 116" d="M7.257,8.765,10.135,0,13.4,8.765s6.53,1.111,6.607,1.72-6.251,2.459-6.251,2.459-2.654,8.5-3.625,6.574a36.677,36.677,0,0,1-1.911-6.185S0,11.624,0,10.786c0-.908,7.257-2.021,7.257-2.021" fill="#fff"/>
      </g>
    </g>
    <g id="Grupo_30" data-name="Grupo 30" transform="translate(573.498 494.661)">
      <g id="Grupo_25-5" data-name="Grupo 25" clip-path="url(#clip-path-10)">
        <path id="Trazado_116-5" data-name="Trazado 116" d="M7.257,8.765,10.135,0,13.4,8.765s6.53,1.111,6.607,1.72-6.251,2.459-6.251,2.459-2.654,8.5-3.625,6.574a36.677,36.677,0,0,1-1.911-6.185S0,11.624,0,10.786c0-.908,7.257-2.021,7.257-2.021" fill="#fff"/>
      </g>
    </g>
    <g id="Grupo_32" data-name="Grupo 32" transform="translate(340.82 476.45)">
      <g id="Grupo_31" data-name="Grupo 31" transform="translate(0 0)" clip-path="url(#clip-path-15)">
        <path id="Trazado_117" data-name="Trazado 117" d="M34.063,45.679c5.215-1.1,11.6-5.71,14.462-10.945,3.609-6.59,4.748-14.255-.008-22.565A24.464,24.464,0,0,0,30.492.143c-7.358-.886-16.113,2.388-20.7,8.943,0,0-9.221-1.968-9.754.041-.529.921,4.589,5.54,6.881,6.9l.036-.065c-2.284,7.063-2.166,15.947,5.054,23.452C17.4,45.024,24.466,47.7,34.063,45.679" transform="translate(0 0)" fill="#ffe5d0"/>
        <path id="Trazado_118" data-name="Trazado 118" d="M33.442,19.528s-.4,7.6.52,10.046c.613,1.633,7.027,1.06,7.088.443.244-2.47-.409-9.041-.511-10.82-.115-1.988-7.1-1.818-7.1.331" transform="translate(0.297 0.159)" fill="#efccb3"/>
        <path id="Trazado_119" data-name="Trazado 119" d="M23.513,13.5s.306,14.082,1.226,16.531c.612,1.633,7.026,1.06,7.088.442.244-2.47-.409-15.272-.512-17.051-.114-1.988-7.8-2.071-7.8.078" transform="translate(0.21 0.107)" fill="#efccb3"/>
        <path id="Trazado_120" data-name="Trazado 120" d="M15.163,25.7a9.14,9.14,0,0,0,.469,4.617c.613,1.633,7.026,1.06,7.088.442a27.857,27.857,0,0,0,.245-5.136c-.114-1.988-7.8-2.071-7.8.078" transform="translate(0.134 0.215)" fill="#efccb3"/>
      </g>
    </g>
    <g id="Grupo_34" data-name="Grupo 34" transform="translate(497.635 556.506)">
      <g id="Grupo_33" data-name="Grupo 33" transform="translate(0 0)" clip-path="url(#clip-path-16)">
        <path id="Trazado_121" data-name="Trazado 121" d="M54.444,37.979c3.2-4.846,4.613-13.3,2.829-19.551C55.024,10.559,50.039,3.748,39.993.95A26.645,26.645,0,0,0,16.82,5.43C10.442,10.375,6.164,19.615,7.628,28.2c0,0-8.652,5.532-7.527,7.5.3,1.119,7.8.781,10.615.082l-.021-.078c3.637,7.221,10.529,14.013,21.868,14.3,8.47.216,16-3.115,21.881-12.031" transform="translate(0 0)" fill="#ffe5d0"/>
        <path id="Trazado_122" data-name="Trazado 122" d="M35.217,11.608c-.344-.114-14.443-1.146-15.016,11.348s9.629,12.035,9.858,12.151-.23,2.063.458,2.407,7.45.917,7.795,0a5.229,5.229,0,0,0,0-2.407s9.809-.571,9.284-12.839c-.459-10.729-12.38-10.66-12.38-10.66" transform="translate(-1.102 -0.631)" fill="#efccb3"/>
        <path id="Trazado_123" data-name="Trazado 123" d="M32.494,36.915c.035-2.606.149-5.225.095-7.831-.039-1.839-.618-4.058-2.635-4.626a2.748,2.748,0,0,0-3.329,2.425c-.3,1.808.957,3.349,2.39,4.276a10.276,10.276,0,0,0,10.858-.173c1.481-.964,3.109-2.568,2.9-4.5a2.957,2.957,0,0,0-3.3-2.47c-2.227.287-2.763,2.9-3.093,4.712a43.832,43.832,0,0,0-.7,8.539.468.468,0,0,0,.936,0,43.212,43.212,0,0,1,.289-5.82,17.014,17.014,0,0,1,1.064-5.089c.656-1.4,2.381-2.015,3.49-.679,1.154,1.39-.336,3.175-1.428,4.045a9.464,9.464,0,0,1-8.637,1.518,5.839,5.839,0,0,1-3.633-2.752c-.551-1.207-.016-3.371,1.657-3.192,2.311.246,2.253,3.34,2.23,5.018q-.043,3.3-.089,6.6a.468.468,0,0,0,.935,0" transform="translate(-1.452 -1.311)" fill="#fff2e7"/>
        <path id="Trazado_124" data-name="Trazado 124" d="M14.179,33.008,17.6,31.3a.468.468,0,0,0-.473-.807L13.707,32.2a.468.468,0,1,0,.472.807" transform="translate(-0.736 -1.663)" fill="#efccb3"/>
        <path id="Trazado_125" data-name="Trazado 125" d="M17.267,19.844l-3.722-.8a.48.48,0,0,0-.576.327.471.471,0,0,0,.327.575l3.722.8a.478.478,0,0,0,.575-.327.472.472,0,0,0-.326-.575" transform="translate(-0.708 -1.04)" fill="#efccb3"/>
        <path id="Trazado_126" data-name="Trazado 126" d="M49.67,31.494l3.794,1.89a.479.479,0,0,0,.64-.168.472.472,0,0,0-.167-.64l-3.795-1.889a.479.479,0,0,0-.639.167.472.472,0,0,0,.167.64" transform="translate(-2.701 -1.674)" fill="#efccb3"/>
        <path id="Trazado_127" data-name="Trazado 127" d="M29.323,38.109a42.476,42.476,0,0,0,.689,4.578,4.273,4.273,0,0,0,3.2,2.384,17.727,17.727,0,0,0,3.395,0,3.567,3.567,0,0,0,2.607-2.622c.443-2.146.73-4.206.73-4.206-.629-.488-10.705-.909-10.618-.134" transform="translate(-1.602 -2.059)" fill="#efccb3"/>
        <path id="Trazado_128" data-name="Trazado 128" d="M29.485,40.712a33.926,33.926,0,0,0,10.1.061c.594-.085.341-.986-.249-.9a32.431,32.431,0,0,1-9.6-.061c-.589-.093-.842.808-.249.9" transform="translate(-1.592 -2.175)" fill="#fff2e7"/>
        <path id="Trazado_129" data-name="Trazado 129" d="M30.088,43.394a18.647,18.647,0,0,0,9.12.045.468.468,0,0,0-.249-.9,17.618,17.618,0,0,1-8.623-.045.468.468,0,0,0-.249.9" transform="translate(-1.626 -2.321)" fill="#fff2e7"/>
        <path id="Trazado_130" data-name="Trazado 130" d="M26.413,10.627,24.271,7.059a.468.468,0,0,0-.807.472q1.071,1.785,2.142,3.568a.468.468,0,0,0,.807-.472" transform="translate(-1.278 -0.374)" fill="#efccb3"/>
        <path id="Trazado_131" data-name="Trazado 131" d="M41.9,10.6,43.823,7.53a.468.468,0,1,0-.807-.472L41.09,10.125a.468.468,0,1,0,.807.472" transform="translate(-2.242 -0.373)" fill="#efccb3"/>
        <path id="Trazado_132" data-name="Trazado 132" d="M51.04,19.789l3.584-.656a.471.471,0,0,0,.326-.575.477.477,0,0,0-.575-.327l-3.584.656a.471.471,0,0,0-.326.575.477.477,0,0,0,.575.327" transform="translate(-2.756 -0.996)" fill="#efccb3"/>
      </g>
    </g>
    <g id="Grupo_36" data-name="Grupo 36" transform="translate(382.35 662.462)">
      <g id="Grupo_35" data-name="Grupo 35" transform="translate(0 0)" clip-path="url(#clip-path-17)">
        <path id="Trazado_133" data-name="Trazado 133" d="M15.825,35.192a18.315,18.315,0,0,0,13.114-4.184c4.247-3.806,7-9.006,5.689-16.154A18.564,18.564,0,0,0,24.761,1.7C19.718-.793,12.625-.659,7.689,2.875c0,0-6.1-3.736-6.993-2.433C.085.969,2.582,5.566,3.879,7.12l.042-.037C.5,11.562-1.653,17.95,1.619,25.144c2.444,5.374,6.825,9.076,14.206,10.048" transform="translate(0 0)" fill="#ffe5d0"/>
        <path id="Trazado_134" data-name="Trazado 134" d="M29.53,15.238a23.666,23.666,0,0,0-3.288.1l-.561-.711s1.678-2.83,1.267-3.373S23.59,8.984,23.1,9.2a12.844,12.844,0,0,0-1.968,2.293L20.1,11.353s-.4-2.865-1.567-2.809a12.907,12.907,0,0,0-3.9,1.106c-.456.295.23,3.1.23,3.1l-.753.6-.325-.155s-2.238-1.4-2.878-.92a10.556,10.556,0,0,0-2.038,4,15.084,15.084,0,0,0,2.455,2.079l-.176.8s-2.639.8-2.759,1.559.36,3.878,1.159,3.958a23.708,23.708,0,0,0,3.278-.28l.6.68S11.9,27.985,12.338,28.5s3.478,2.079,3.957,1.839a12.811,12.811,0,0,0,1.839-2.4l1.039.08s.56,2.839,1.719,2.718a12.892,12.892,0,0,0,3.838-1.319c.44-.32-.4-3.078-.4-3.078l.76-.679s2.238,1.359,3.078.8,2.2-3.2,2-3.6a19.634,19.634,0,0,0-2.239-2.078l.011-.214c.709-.2,2.4-.73,2.531-1.322.162-.752-.145-3.892-.94-4.015M19.437,23.18a3.612,3.612,0,1,1,3.612-3.612,3.612,3.612,0,0,1-3.612,3.612" transform="translate(-1.959 -2.002)" fill="#efccb3"/>
      </g>
    </g>
    <g id="Grupo_38" data-name="Grupo 38" transform="translate(497.635 667.762)">
      <g id="Grupo_37" data-name="Grupo 37" clip-path="url(#clip-path-18)">
        <path id="Trazado_135" data-name="Trazado 135" d="M0,3.578A13.112,13.112,0,0,1,4.944,16.751c1.72.722,4.89-.629,4.89-.629.929-1.618.772-4.936.457-6.775A18.021,18.021,0,0,0,5.588,0Z" fill="#fff"/>
      </g>
    </g>
    <g id="Grupo_39" data-name="Grupo 39" transform="translate(545.152 486.037)">
      <g id="Grupo_37-2" data-name="Grupo 37" clip-path="url(#clip-path-18)">
        <path id="Trazado_135-2" data-name="Trazado 135" d="M0,3.578A13.112,13.112,0,0,1,4.944,16.751c1.72.722,4.89-.629,4.89-.629.929-1.618.772-4.936.457-6.775A18.021,18.021,0,0,0,5.588,0Z" fill="#fff"/>
      </g>
    </g>
    <g id="Grupo_40" data-name="Grupo 40" transform="translate(297.219 548.024)">
      <g id="Grupo_37-3" data-name="Grupo 37" clip-path="url(#clip-path-18)">
        <path id="Trazado_135-3" data-name="Trazado 135" d="M0,3.578A13.112,13.112,0,0,1,4.944,16.751c1.72.722,4.89-.629,4.89-.629.929-1.618.772-4.936.457-6.775A18.021,18.021,0,0,0,5.588,0Z" fill="#fff"/>
      </g>
    </g>
    <g id="Grupo_41" data-name="Grupo 41" transform="translate(514.962 418.393)">
      <g id="Grupo_37-4" data-name="Grupo 37" clip-path="url(#clip-path-18)">
        <path id="Trazado_135-4" data-name="Trazado 135" d="M0,3.578A13.112,13.112,0,0,1,4.944,16.751c1.72.722,4.89-.629,4.89-.629.929-1.618.772-4.936.457-6.775A18.021,18.021,0,0,0,5.588,0Z" fill="#fff"/>
      </g>
    </g>
    <g id="Grupo_42" data-name="Grupo 42" transform="translate(382.35 418.393)">
      <g id="Grupo_37-5" data-name="Grupo 37" clip-path="url(#clip-path-18)">
        <path id="Trazado_135-5" data-name="Trazado 135" d="M0,3.578A13.112,13.112,0,0,1,4.944,16.751c1.72.722,4.89-.629,4.89-.629.929-1.618.772-4.936.457-6.775A18.021,18.021,0,0,0,5.588,0Z" fill="#fff"/>
      </g>
    </g>
    <g id="Grupo_44" data-name="Grupo 44" transform="translate(565.53 627.404)">
      <g id="Grupo_43" data-name="Grupo 43" clip-path="url(#clip-path-23)">
        <path id="Trazado_136" data-name="Trazado 136" d="M5.158,2.579A2.579,2.579,0,1,1,2.579,0,2.579,2.579,0,0,1,5.158,2.579" fill="#fff"/>
      </g>
    </g>
    <g id="Grupo_45" data-name="Grupo 45" transform="translate(302.597 476.485)">
      <g id="Grupo_43-2" data-name="Grupo 43" clip-path="url(#clip-path-23)">
        <path id="Trazado_136-2" data-name="Trazado 136" d="M5.158,2.579A2.579,2.579,0,1,1,2.579,0,2.579,2.579,0,0,1,5.158,2.579" fill="#fff"/>
      </g>
    </g>
    <g id="Grupo_46" data-name="Grupo 46" transform="translate(361.498 639.884)">
      <g id="Grupo_43-3" data-name="Grupo 43" clip-path="url(#clip-path-23)">
        <path id="Trazado_136-3" data-name="Trazado 136" d="M5.158,2.579A2.579,2.579,0,1,1,2.579,0,2.579,2.579,0,0,1,5.158,2.579" fill="#fff"/>
      </g>
    </g>
    <g id="Grupo_47" data-name="Grupo 47" transform="translate(539.994 529.662)">
      <g id="Grupo_43-4" data-name="Grupo 43" clip-path="url(#clip-path-23)">
        <path id="Trazado_136-4" data-name="Trazado 136" d="M5.158,2.579A2.579,2.579,0,1,1,2.579,0,2.579,2.579,0,0,1,5.158,2.579" fill="#fff"/>
      </g>
    </g>
    <g id="Grupo_48" data-name="Grupo 48" transform="translate(568.34 471.327)">
      <g id="Grupo_43-5" data-name="Grupo 43" clip-path="url(#clip-path-23)">
        <path id="Trazado_136-5" data-name="Trazado 136" d="M5.158,2.579A2.579,2.579,0,1,1,2.579,0,2.579,2.579,0,0,1,5.158,2.579" fill="#fff"/>
      </g>
    </g>
  </g>
</svg>
