<svg xmlns="http://www.w3.org/2000/svg" width="212.361" height="35.844" viewBox="0 0 212.361 35.844">
  <g id="Logo" transform="translate(-36.9 -25.5)">
    <g id="Layer_2" transform="translate(36.9 25.5)">
      <g id="Group_1099336" data-name="Group 1099336" transform="translate(0 0)">
        <g id="Group_1099332" data-name="Group 1099332">
          <circle id="Ellipse_11488" data-name="Ellipse 11488" cx="3.703" cy="3.703" r="3.703" transform="translate(7.464 7.464)" fill="#219248"/>
          <path id="Path_874002" data-name="Path 874002" d="M48.067,25.5A11.167,11.167,0,1,0,59.234,36.667,11.177,11.177,0,0,0,48.067,25.5Zm0,20.577a9.41,9.41,0,1,1,9.41-9.41A9.411,9.411,0,0,1,48.067,46.077Z" transform="translate(-36.9 -25.5)" fill="#0b0b0c"/>
          <path id="Path_874003" data-name="Path 874003" d="M59.277,117.019v9.126a9.411,9.411,0,0,1-9.41,9.41H46.41a9.411,9.411,0,0,1-9.41-9.41v-9.126h.378a12.008,12.008,0,0,0,7.067,6.2v3.212a1.246,1.246,0,0,0,1.247,1.247H50.6a1.23,1.23,0,0,0,1.228-1.247v-3.212A11.961,11.961,0,0,0,58.956,117h.321Z" transform="translate(-36.981 -99.711)" fill="#e5782c"/>
        </g>
        <g id="Group_1099335" data-name="Group 1099335" transform="translate(28.664 6.387)">
          <g id="Group_1099333" data-name="Group 1099333">
            <path id="Path_874004" data-name="Path 874004" d="M195.742,76.881a5.831,5.831,0,0,0-.416-1.1c-.208-.359-.34-.453-1.077-.453h-1.323v6.424c0,1.02.113,1.171,1.36,1.247v.378h-3.836V83c1.228-.076,1.342-.208,1.342-1.247V75.331h-1.209c-.718,0-.945.076-1.153.472A6.559,6.559,0,0,0,189,76.881h-.4c.076-.812.151-1.644.189-2.381h.3c.189.321.34.3.718.3h5.234a.683.683,0,0,0,.68-.3h.321c0,.624.057,1.568.113,2.343l-.4.038Z" transform="translate(-188.6 -71.628)" fill="#e5782c"/>
            <path id="Path_874005" data-name="Path 874005" d="M240.572,82.419c-.076.34-.435,1.7-.567,2.1H233.6v-.378c1.228-.094,1.323-.208,1.323-1.285V77.638c0-1.171-.151-1.247-1.134-1.342v-.378h4.044c1.247,0,1.757,0,1.908-.019,0,.321.057,1.323.113,2.022l-.4.057a3.935,3.935,0,0,0-.4-1c-.208-.435-.51-.529-1.3-.529H236.51c-.416,0-.435.038-.435.416v2.91h1.474c.983,0,1.058-.189,1.209-1.1h.416V81.4h-.416c-.17-.945-.283-1.077-1.228-1.077h-1.455v2.626c0,.926.283,1,.945,1.02h1.228c.812,0,.945-.113,1.228-.453a6.2,6.2,0,0,0,.718-1.209l.4.113Z" transform="translate(-225.097 -72.763)" fill="#e5782c"/>
            <path id="Path_874006" data-name="Path 874006" d="M283.4,81.851a17.655,17.655,0,0,1-.718,1.984,12.227,12.227,0,0,1-2.419.321c-3.155,0-4.762-2.1-4.762-4.4a4.8,4.8,0,0,1,5.007-4.554c2.966,0,2.06.246,2.494.3.057.586.151,1.379.246,2.041l-.416.094a2.3,2.3,0,0,0-1.247-1.7,3.749,3.749,0,0,0-1.379-.246c-2.173,0-3.326,1.606-3.326,3.779s1.323,4.176,3.458,4.176,2-.624,2.683-1.946l.4.132Z" transform="translate(-259.08 -72.196)" fill="#e5782c"/>
            <path id="Path_874007" data-name="Path 874007" d="M331.991,76.559c-.85.094-1.115.227-1.153.831,0,.416-.038.983-.038,2.211v5.291h-.51l-5.65-6.9V81.3c0,1.19.038,1.776.057,2.173.019.68.359.869,1.3.945V84.8h-3.212v-.378c.812-.057,1.134-.265,1.19-.907.038-.416.057-1.02.057-2.211V77.938a1.1,1.1,0,0,0-.265-.869c-.246-.321-.529-.416-1.171-.472v-.378h1.984l5.593,6.632V79.62c0-1.228-.019-1.8-.057-2.192-.038-.586-.34-.775-1.4-.85V76.2h3.269v.378Z" transform="translate(-297.281 -73.007)" fill="#e5782c"/>
            <path id="Path_874008" data-name="Path 874008" d="M382.178,75.1a4.251,4.251,0,0,1,4.27,4.365,4.426,4.426,0,0,1-4.365,4.61,4.479,4.479,0,0,1,.076-8.956Zm-.265.491c-1.474,0-2.815,1.247-2.815,3.7s1.342,4.27,3.212,4.27,2.8-1.19,2.8-3.741S383.633,75.591,381.914,75.591Z" transform="translate(-341.969 -72.115)" fill="#e5782c"/>
            <path id="Path_874009" data-name="Path 874009" d="M436.846,82.487c-.076.416-.472,1.776-.6,2.192H430.1V84.3c1.209-.113,1.3-.189,1.3-1.3V77.763c0-1.115-.132-1.19-1.19-1.285V76.1h3.533v.378c-1.058.113-1.209.151-1.209,1.285v5.366c0,.812.113.983.85,1h1.039c.68,0,.869-.076,1.172-.416a4.814,4.814,0,0,0,.812-1.36l.416.113Z" transform="translate(-384.468 -72.926)" fill="#e5782c"/>
            <path id="Path_874010" data-name="Path 874010" d="M475.578,62.285a4.251,4.251,0,0,1,4.27,4.365,4.426,4.426,0,0,1-4.365,4.61,4.479,4.479,0,0,1,.076-8.956Zm-.265.491c-1.474,0-2.815,1.247-2.815,3.7s1.342,4.27,3.212,4.27,2.8-1.19,2.8-3.741S477.033,62.777,475.314,62.777Zm-.529-1.455,2.192-2.022a2.255,2.255,0,0,1,.945.718v.113l-2.872,1.53-.265-.321Z" transform="translate(-417.721 -59.3)" fill="#e5782c"/>
            <path id="Path_874011" data-name="Path 874011" d="M533.816,80.358c-.812.113-.869.189-.869.964v1.115a6.307,6.307,0,0,0,.076,1.247,13.183,13.183,0,0,1-3,.472c-3,0-4.818-1.852-4.818-4.516s2.267-4.44,4.913-4.44,2.343.265,2.74.321c.019.491.094,1.285.189,2.116l-.4.076c-.321-1.115-.7-1.606-1.531-1.871a4.2,4.2,0,0,0-1.228-.17c-2.022,0-3.326,1.379-3.326,3.8s1.077,4.176,3.647,4.176.85-.094,1.115-.227c.283-.151.453-.3.453-.85V81.492c0-.964-.113-1.077-1.379-1.153v-.378h3.4v.378Z" transform="translate(-461.599 -72.196)" fill="#e5782c"/>
            <path id="Path_874012" data-name="Path 874012" d="M576.2,84.678V84.3c1.077-.113,1.19-.17,1.19-1.285V77.782c0-1.134-.113-1.19-1.19-1.3V76.1h3.533v.378c-1.1.113-1.209.17-1.209,1.3v5.234c0,1.134.113,1.171,1.209,1.285v.378Z" transform="translate(-502.963 -72.926)" fill="#e5782c"/>
            <path id="Path_874013" data-name="Path 874013" d="M609.5,81.851a17.661,17.661,0,0,1-.718,1.984,12.228,12.228,0,0,1-2.419.321c-3.155,0-4.762-2.1-4.762-4.4a4.8,4.8,0,0,1,5.007-4.554c2.967,0,2.06.246,2.494.3.057.586.151,1.379.246,2.041l-.416.094a2.3,2.3,0,0,0-1.247-1.7,3.749,3.749,0,0,0-1.379-.246c-2.173,0-3.326,1.606-3.326,3.779s1.323,4.176,3.458,4.176,2-.624,2.683-1.946l.4.132Z" transform="translate(-523.564 -72.196)" fill="#e5782c"/>
            <path id="Path_874014" data-name="Path 874014" d="M653.042,83.867v-.378c.85-.113.964-.246.775-.737-.17-.51-.435-1.172-.718-2h-2.853c-.208.586-.416,1.115-.586,1.644-.284.85-.113.964.983,1.1v.378H647.6v-.378c.831-.113,1.039-.189,1.512-1.379l2.74-6.934.416-.076c.831,2.249,1.738,4.743,2.57,7.029.416,1.153.548,1.247,1.474,1.36v.378h-3.269Zm-1.323-7.029c-.416,1.134-.869,2.343-1.266,3.382h2.475Z" transform="translate(-560.872 -72.115)" fill="#e5782c"/>
            <path id="Path_874015" data-name="Path 874015" d="M715.366,76.019a5.283,5.283,0,0,1,3.855,1.153,3.827,3.827,0,0,1,1.115,2.815,4.829,4.829,0,0,1-1.644,3.571A6.264,6.264,0,0,1,714.78,84.6H711.7v-.378c1.134-.113,1.19-.189,1.19-1.285V77.663c0-1.134-.151-1.19-1.19-1.285V76h3.666Zm-1.342,6.821c0,.983.416,1.266,1.417,1.266,2.381,0,3.59-1.625,3.59-3.93S718.54,77.644,717.5,77a4.219,4.219,0,0,0-2.249-.529c-.869,0-.907.076-1.039.189-.113.076-.17.227-.17.737V82.84Z" transform="translate(-612.86 -72.845)" fill="#e5782c"/>
            <path id="Path_874016" data-name="Path 874016" d="M770.572,82.419c-.076.34-.435,1.7-.567,2.1H763.6v-.378c1.228-.094,1.323-.208,1.323-1.285V77.638c0-1.171-.151-1.247-1.134-1.342v-.378h4.044c1.247,0,1.757,0,1.908-.019,0,.321.057,1.323.113,2.022l-.4.057a3.935,3.935,0,0,0-.4-1c-.208-.435-.51-.529-1.3-.529H766.51c-.416,0-.435.038-.435.416v2.91h1.474c.983,0,1.058-.189,1.209-1.1h.416V81.4h-.416c-.17-.945-.283-1.077-1.228-1.077h-1.455v2.626c0,.926.283,1,.945,1.02h1.228c.813,0,.945-.113,1.228-.453a6.194,6.194,0,0,0,.718-1.209l.4.113Z" transform="translate(-654.953 -72.763)" fill="#e5782c"/>
            <path id="Path_874017" data-name="Path 874017" d="M811.446,82.487c-.076.416-.472,1.776-.6,2.192H804.7V84.3c1.209-.113,1.3-.189,1.3-1.3V77.763c0-1.115-.132-1.19-1.19-1.285V76.1h3.533v.378c-1.058.113-1.209.151-1.209,1.285v5.366c0,.812.113.983.85,1h1.039c.68,0,.869-.076,1.172-.416a4.817,4.817,0,0,0,.813-1.36l.416.113Z" transform="translate(-688.288 -72.926)" fill="#e5782c"/>
            <path id="Path_874018" data-name="Path 874018" d="M865.778,75.1a4.251,4.251,0,0,1,4.27,4.365,4.426,4.426,0,0,1-4.365,4.61,4.479,4.479,0,0,1,.076-8.956Zm-.265.491c-1.474,0-2.815,1.247-2.815,3.7s1.342,4.27,3.212,4.27,2.8-1.19,2.8-3.741S867.233,75.591,865.514,75.591Z" transform="translate(-734.193 -72.115)" fill="#e5782c"/>
            <path id="Path_874019" data-name="Path 874019" d="M922.223,84.792a4.271,4.271,0,0,1-.491-.019,2.34,2.34,0,0,1-2.06-1.134c-.491-.68-.964-1.512-1.379-2.173-.265-.416-.435-.51-1.115-.51h-.453v2.078c0,1.115.151,1.19,1.209,1.285V84.7H914.4v-.378c1.1-.113,1.19-.17,1.19-1.285V77.763c0-1.115-.151-1.153-1.19-1.285V76.1h3.363a3.674,3.674,0,0,1,2.116.453,1.968,1.968,0,0,1,.907,1.738,2.821,2.821,0,0,1-1.7,2.267c.246.416.813,1.285,1.209,1.89a13.989,13.989,0,0,0,1.039,1.36,1.917,1.917,0,0,0,.964.6l-.057.378ZM917.366,80.5a2.234,2.234,0,0,0,1.455-.378,1.852,1.852,0,0,0,.718-1.625,1.776,1.776,0,0,0-1.946-1.927c-1,0-.6.057-.7.132-.113.094-.151.227-.151.567V80.5h.624Z" transform="translate(-777.26 -72.926)" fill="#e5782c"/>
            <path id="Path_874020" data-name="Path 874020" d="M958.6,84.678V84.3c1.077-.113,1.19-.17,1.19-1.285V77.782c0-1.134-.113-1.19-1.19-1.3V76.1h3.533v.378c-1.1.113-1.209.17-1.209,1.3v5.234c0,1.134.113,1.171,1.209,1.285v.378Z" transform="translate(-813.108 -72.926)" fill="#e5782c"/>
            <path id="Path_874021" data-name="Path 874021" d="M990.672,82.419c-.076.34-.435,1.7-.567,2.1H983.7v-.378c1.228-.094,1.323-.208,1.323-1.285V77.638c0-1.171-.151-1.247-1.134-1.342v-.378h4.044c1.247,0,1.757,0,1.908-.019,0,.321.057,1.323.113,2.022l-.4.057a3.937,3.937,0,0,0-.4-1c-.208-.435-.51-.529-1.3-.529H986.61c-.416,0-.435.038-.435.416v2.91h1.474c.983,0,1.058-.189,1.209-1.1h.416V81.4h-.416c-.17-.945-.283-1.077-1.228-1.077h-1.455v2.626c0,.926.283,1,.945,1.02h1.228c.813,0,.945-.113,1.228-.453a6.2,6.2,0,0,0,.718-1.209l.4.113Z" transform="translate(-833.466 -72.763)" fill="#e5782c"/>
            <path id="Path_874022" data-name="Path 874022" d="M1033.491,76.559c-.85.094-1.115.227-1.153.831,0,.416-.038.983-.038,2.211v5.291h-.51l-5.65-6.9V81.3c0,1.19.038,1.776.057,2.173.019.68.359.869,1.3.945V84.8h-3.212v-.378c.813-.057,1.134-.265,1.19-.907.038-.416.057-1.02.057-2.211V77.938a1.1,1.1,0,0,0-.265-.869c-.246-.321-.529-.416-1.172-.472v-.378h1.984l5.593,6.632V79.62c0-1.228-.019-1.8-.057-2.192-.038-.586-.34-.775-1.4-.85V76.2h3.269v.378Z" transform="translate(-866.232 -73.007)" fill="#e5782c"/>
            <path id="Path_874023" data-name="Path 874023" d="M1086.042,76.881a5.839,5.839,0,0,0-.416-1.1c-.208-.359-.34-.453-1.077-.453h-1.323v6.424c0,1.02.113,1.171,1.36,1.247v.378h-3.836V83c1.228-.076,1.341-.208,1.341-1.247V75.331h-1.209c-.718,0-.945.076-1.153.472a6.574,6.574,0,0,0-.435,1.077h-.4c.076-.812.151-1.644.189-2.381h.3c.189.321.34.3.718.3h5.234a.683.683,0,0,0,.68-.3h.321c0,.624.057,1.568.113,2.343l-.4.038Z" transform="translate(-910.677 -71.628)" fill="#e5782c"/>
            <path id="Path_874024" data-name="Path 874024" d="M1130.772,82.419c-.076.34-.435,1.7-.567,2.1H1123.8v-.378c1.228-.094,1.323-.208,1.323-1.285V77.638c0-1.171-.151-1.247-1.134-1.342v-.378h4.044c1.247,0,1.757,0,1.908-.019,0,.321.057,1.323.113,2.022l-.4.057a3.941,3.941,0,0,0-.4-1c-.208-.435-.51-.529-1.3-.529h-1.247c-.416,0-.435.038-.435.416v2.91h1.474c.982,0,1.058-.189,1.209-1.1h.416V81.4h-.416c-.17-.945-.283-1.077-1.228-1.077h-1.455v2.626c0,.926.283,1,.945,1.02h1.228c.812,0,.945-.113,1.228-.453a6.2,6.2,0,0,0,.718-1.209l.4.113Z" transform="translate(-947.094 -72.763)" fill="#e5782c"/>
          </g>
          <g id="Group_1099334" data-name="Group 1099334" transform="translate(14.908 15.192)">
            <path id="Path_874025" data-name="Path 874025" d="M268.313,147.3v6.33H267.5V147.3Z" transform="translate(-267.5 -145.864)"/>
            <path id="Path_874026" data-name="Path 874026" d="M279.238,153.63V147.3h.888l2.022,3.193a16.361,16.361,0,0,1,1.134,2.06h0c-.076-.85-.094-1.625-.094-2.608V147.3h.775v6.33h-.831l-2-3.212a19.9,19.9,0,0,1-1.19-2.116h-.019c.038.812.057,1.568.057,2.608v2.7H279.2Z" transform="translate(-276.989 -145.864)"/>
            <path id="Path_874027" data-name="Path 874027" d="M310.508,152.142a2.869,2.869,0,0,0,1.455.416c.831,0,1.323-.435,1.323-1.077s-.34-.926-1.19-1.266c-1.039-.359-1.663-.907-1.663-1.8a1.878,1.878,0,0,1,2.041-1.719c1.228,0,1.115.151,1.4.3l-.227.661a2.5,2.5,0,0,0-1.209-.3c-.869,0-1.19.51-1.19.945s.378.888,1.266,1.228c1.077.416,1.606.926,1.606,1.852s-.718,1.814-2.211,1.814-1.285-.17-1.606-.4l.208-.68Z" transform="translate(-302.213 -145.377)"/>
            <path id="Path_874028" data-name="Path 874028" d="M334.627,148H332.7v-.7h4.686v.7h-1.927v5.631h-.831Z" transform="translate(-320.38 -145.864)"/>
            <path id="Path_874029" data-name="Path 874029" d="M362.012,147.3v6.33H361.2V147.3Z" transform="translate(-343.495 -145.864)"/>
            <path id="Path_874030" data-name="Path 874030" d="M371.127,148H369.2v-.7h4.686v.7h-1.927v5.631h-.831Z" transform="translate(-349.984 -145.864)"/>
            <path id="Path_874031" data-name="Path 874031" d="M398.431,147.3v3.741c0,1.417.624,2.022,1.474,2.022s1.531-.624,1.531-2.022V147.3h.831v3.685c0,1.946-1.02,2.74-2.4,2.74s-2.267-.737-2.267-2.7V147.3Z" transform="translate(-373.018 -145.864)"/>
            <path id="Path_874032" data-name="Path 874032" d="M432.68,153.016a4.045,4.045,0,0,1-1.663.3,2.956,2.956,0,0,1-3.118-3.193,3.11,3.11,0,0,1,3.307-3.326c1.965,0,1.285.17,1.493.283l-.189.661a2.962,2.962,0,0,0-1.285-.265,2.359,2.359,0,0,0-2.475,2.608,2.253,2.253,0,0,0,2.437,2.551c1.549,0,1-.094,1.323-.265Z" transform="translate(-397.592 -145.458)"/>
            <path id="Path_874033" data-name="Path 874033" d="M459.412,147.3v6.33H458.6V147.3Z" transform="translate(-422.492 -145.864)"/>
            <path id="Path_874034" data-name="Path 874034" d="M474.363,144.235c0,2.173-1.323,3.326-2.929,3.326a2.924,2.924,0,0,1-2.834-3.212,3.051,3.051,0,0,1,2.929-3.326,2.9,2.9,0,0,1,2.834,3.193Zm-4.913.113c0,1.342.737,2.57,2.022,2.57s2.022-1.19,2.022-2.626-.661-2.57-2.022-2.57S469.45,142.969,469.45,144.348Zm3.382-4.648-1.19,1.1h-.68l.869-1.1Z" transform="translate(-430.602 -139.7)"/>
            <path id="Path_874035" data-name="Path 874035" d="M504.538,153.63V147.3h.888l2.022,3.193a16.356,16.356,0,0,1,1.134,2.06h0c-.076-.85-.094-1.625-.094-2.608V147.3h.775v6.33h-.831l-2-3.212a19.894,19.894,0,0,1-1.19-2.116h-.019c.038.812.057,1.568.057,2.608v2.7H504.5Z" transform="translate(-459.719 -145.864)"/>
            <path id="Path_874036" data-name="Path 874036" d="M547.9,147.232a11.639,11.639,0,0,1,1.738-.132,3.608,3.608,0,0,1,2.57.794,2.885,2.885,0,0,1,.888,2.267,3.386,3.386,0,0,1-.907,2.456,3.913,3.913,0,0,1-2.8.907,6.052,6.052,0,0,1-1.474-.076v-6.216Zm.812,5.593a5.336,5.336,0,0,0,.831.038,2.43,2.43,0,0,0,2.683-2.683,2.259,2.259,0,0,0-2.57-2.437c-1.738,0-.737.038-.964.076v4.988Z" transform="translate(-494.918 -145.702)"/>
            <path id="Path_874037" data-name="Path 874037" d="M584.169,150.663h-2.456v2.286h2.74v.68H580.9V147.3h3.42v.68h-2.589v2h2.456v.68Z" transform="translate(-521.683 -145.864)"/>
            <path id="Path_874038" data-name="Path 874038" d="M619.169,150.663h-2.456v2.286h2.74v.68H615.9V147.3h3.42v.68h-2.589v2h2.456v.68Z" transform="translate(-550.07 -145.864)"/>
            <path id="Path_874039" data-name="Path 874039" d="M640.3,147.232a11.639,11.639,0,0,1,1.738-.132,3.608,3.608,0,0,1,2.57.794,2.885,2.885,0,0,1,.888,2.267,3.386,3.386,0,0,1-.907,2.456,3.913,3.913,0,0,1-2.8.907,6.052,6.052,0,0,1-1.474-.076v-6.216Zm.813,5.593a5.334,5.334,0,0,0,.831.038,2.43,2.43,0,0,0,2.683-2.683,2.259,2.259,0,0,0-2.57-2.437c-1.738,0-.737.038-.964.076v4.988Z" transform="translate(-569.859 -145.702)"/>
            <path id="Path_874040" data-name="Path 874040" d="M674.131,147.3v3.741c0,1.417.624,2.022,1.474,2.022s1.53-.624,1.53-2.022V147.3h.831v3.685c0,1.946-1.02,2.74-2.4,2.74s-2.267-.737-2.267-2.7V147.3Z" transform="translate(-596.624 -145.864)"/>
            <path id="Path_874041" data-name="Path 874041" d="M708.28,153.016a4.045,4.045,0,0,1-1.663.3,2.956,2.956,0,0,1-3.118-3.193,3.109,3.109,0,0,1,3.307-3.326c1.965,0,1.285.17,1.493.283l-.189.661a2.962,2.962,0,0,0-1.285-.265,2.359,2.359,0,0,0-2.475,2.608,2.253,2.253,0,0,0,2.438,2.551c1.549,0,1-.094,1.323-.265Z" transform="translate(-621.118 -145.458)"/>
            <path id="Path_874042" data-name="Path 874042" d="M733.412,151.646l-.661,1.984h-.85l2.154-6.33h.983l2.154,6.33h-.869l-.68-1.984h-2.248Zm2.06-.642-.624-1.814c-.132-.416-.227-.794-.321-1.153h0c-.094.378-.189.756-.321,1.153l-.624,1.833h1.908Z" transform="translate(-644.151 -145.864)"/>
            <path id="Path_874043" data-name="Path 874043" d="M766.98,153.016a4.045,4.045,0,0,1-1.663.3,2.956,2.956,0,0,1-3.118-3.193,3.109,3.109,0,0,1,3.307-3.326c1.965,0,1.285.17,1.493.283l-.189.661a2.962,2.962,0,0,0-1.285-.265,2.359,2.359,0,0,0-2.475,2.608,2.253,2.253,0,0,0,2.438,2.551c1.549,0,1-.094,1.323-.265l.17.642Z" transform="translate(-668.726 -145.458)"/>
            <path id="Path_874044" data-name="Path 874044" d="M793.713,147.3v6.33H792.9V147.3Z" transform="translate(-693.625 -145.864)"/>
            <path id="Path_874045" data-name="Path 874045" d="M808.563,144.235c0,2.173-1.323,3.326-2.929,3.326a2.924,2.924,0,0,1-2.834-3.212,3.051,3.051,0,0,1,2.929-3.326,2.9,2.9,0,0,1,2.834,3.193Zm-4.894.113c0,1.342.737,2.57,2.022,2.57s2.022-1.19,2.022-2.626-.661-2.57-2.022-2.57S803.669,142.969,803.669,144.348Zm3.382-4.648-1.19,1.1h-.68l.869-1.1Z" transform="translate(-701.655 -139.7)"/>
            <path id="Path_874046" data-name="Path 874046" d="M838.738,153.63V147.3h.888l2.022,3.193a16.35,16.35,0,0,1,1.134,2.06h0c-.076-.85-.094-1.625-.094-2.608V147.3h.775v6.33h-.831l-2-3.212a19.9,19.9,0,0,1-1.19-2.116h-.019c.038.812.057,1.568.057,2.608v2.7H838.7Z" transform="translate(-730.772 -145.864)"/>
            <path id="Path_874047" data-name="Path 874047" d="M880.608,152.142a2.868,2.868,0,0,0,1.455.416c.831,0,1.323-.435,1.323-1.077s-.34-.926-1.19-1.266c-1.039-.359-1.663-.907-1.663-1.8a1.878,1.878,0,0,1,2.041-1.719c1.228,0,1.115.151,1.4.3l-.227.661a2.5,2.5,0,0,0-1.209-.3c-.869,0-1.19.51-1.19.945s.378.888,1.266,1.228c1.077.416,1.606.926,1.606,1.852s-.718,1.814-2.211,1.814-1.285-.17-1.606-.4l.208-.68Z" transform="translate(-764.592 -145.377)"/>
            <path id="Path_874048" data-name="Path 874048" d="M907.331,147.3v3.741c0,1.417.624,2.022,1.474,2.022s1.531-.624,1.531-2.022V147.3h.831v3.685c0,1.946-1.02,2.74-2.4,2.74s-2.267-.737-2.267-2.7V147.3Z" transform="translate(-785.761 -145.864)"/>
            <path id="Path_874049" data-name="Path 874049" d="M938.7,147.213a10.747,10.747,0,0,1,1.568-.113,2.877,2.877,0,0,1,1.776.529,1.717,1.717,0,0,1,.548,1.323,1.828,1.828,0,0,1-.491,1.342,2.646,2.646,0,0,1-1.927.7c-.794,0-.472,0-.661-.057v2.532H938.7v-6.254Zm.813,3.061a3.259,3.259,0,0,0,.68.057c.983,0,1.587-.472,1.587-1.342s-.586-1.247-1.493-1.247-.624.019-.775.057v2.475Z" transform="translate(-811.877 -145.702)"/>
            <path id="Path_874050" data-name="Path 874050" d="M968.369,150.663h-2.456v2.286h2.74v.68H965.1V147.3h3.42v.68h-2.589v2h2.456v.68Z" transform="translate(-833.288 -145.864)"/>
            <path id="Path_874051" data-name="Path 874051" d="M989.5,147.232a9.353,9.353,0,0,1,1.568-.132,2.6,2.6,0,0,1,1.833.51,1.579,1.579,0,0,1,.491,1.209,1.66,1.66,0,0,1-1.19,1.606h0a1.64,1.64,0,0,1,.926,1.3,9.934,9.934,0,0,0,.491,1.738h-.85a8.1,8.1,0,0,1-.416-1.512c-.189-.869-.529-1.209-1.266-1.228h-.775v2.74H989.5Zm.813,2.872h.831c.869,0,1.417-.472,1.417-1.209s-.586-1.171-1.455-1.19a3.381,3.381,0,0,0-.812.076v2.305Z" transform="translate(-853.078 -145.702)"/>
            <path id="Path_874052" data-name="Path 874052" d="M1017.112,147.3v6.33h-.812V147.3Z" transform="translate(-874.814 -145.864)"/>
            <path id="Path_874053" data-name="Path 874053" d="M1031.963,149.912c0,2.173-1.323,3.326-2.929,3.326a2.924,2.924,0,0,1-2.834-3.212,3.051,3.051,0,0,1,2.929-3.326,2.9,2.9,0,0,1,2.834,3.193Zm-4.913.113c0,1.342.737,2.57,2.022,2.57s2.022-1.19,2.022-2.626-.661-2.57-2.022-2.57S1027.05,148.646,1027.05,150.026Z" transform="translate(-882.843 -145.377)"/>
            <path id="Path_874054" data-name="Path 874054" d="M1062.3,147.232a9.353,9.353,0,0,1,1.568-.132,2.594,2.594,0,0,1,1.833.51,1.579,1.579,0,0,1,.491,1.209,1.66,1.66,0,0,1-1.19,1.606h0a1.64,1.64,0,0,1,.926,1.3,9.934,9.934,0,0,0,.491,1.738h-.85a8.1,8.1,0,0,1-.416-1.512c-.189-.869-.529-1.209-1.266-1.228h-.775v2.74h-.812Zm.812,2.872h.831c.869,0,1.417-.472,1.417-1.209s-.586-1.171-1.455-1.19a3.381,3.381,0,0,0-.812.076v2.305Z" transform="translate(-912.122 -145.702)"/>
          </g>
        </g>
      </g>
    </g>
  </g>
</svg>
