<svg xmlns="http://www.w3.org/2000/svg" width="18" height="12.661" viewBox="0 0 18 12.661">
  <path id="youtube-brands-solid" d="M32.524,65.981a2.259,2.259,0,0,0-1.592-1.6A53.4,53.4,0,0,0,23.9,64a53.393,53.393,0,0,0-7.033.379,2.259,2.259,0,0,0-1.592,1.6,25.487,25.487,0,0,0,0,8.72,2.224,2.224,0,0,0,1.592,1.575,53.394,53.394,0,0,0,7.033.379,53.4,53.4,0,0,0,7.033-.379A2.23,2.23,0,0,0,32.524,74.7a25.487,25.487,0,0,0,0-8.72ZM22.061,73.016V67.665l4.7,2.676Z" transform="translate(-14.899 -63.996)" fill="#e31821"/>
</svg>
